SplineFontDB: 3.0
FontName: humanitarian-webfont
FullName: humanitarian-webfont
FamilyName: humanitarian-webfont
Weight: Regular
ItalicAngle: 0
UnderlinePosition: 0
UnderlineWidth: 0
Ascent: 878
Descent: 146
LayerCount: 5
Layer: 0 1 "Back"  1
Layer: 1 1 "Fore"  0
Layer: 2 1 "Back 2"  1
Layer: 3 0 "Back 3"  1
Layer: 4 0 "Back 4"  1
XUID: [1021 855 882857008 3269350]
OS2Version: 0
OS2_WeightWidthSlopeOnly: 0
OS2_UseTypoMetrics: 0
CreationTime: 1423571719
ModificationTime: 1429626694
PfmFamily: 17
TTFWeight: 400
TTFWidth: 5
LineGap: 92
VLineGap: 92
Panose: 2 0 5 3 0 0 0 0 0 0
OS2TypoAscent: 0
OS2TypoAOffset: 1
OS2TypoDescent: 0
OS2TypoDOffset: 1
OS2TypoLinegap: 92
OS2WinAscent: 0
OS2WinAOffset: 1
OS2WinDescent: 0
OS2WinDOffset: 1
HheadAscent: 0
HheadAOffset: 1
HheadDescent: 0
HheadDOffset: 1
OS2Vendor: 'PfEd'
DEI: 91125
Encoding: Custom
UnicodeInterp: none
NameList: Adobe Glyph List
DisplaySize: -96
AntiAlias: 1
FitToEm: 1
WinInfo: 784 16 6
BeginChars: 879 878

StartChar: uniE000
Encoding: 1 57344 0
Width: 285
LayerCount: 5
Fore
SplineSet
0 0 m 0,0,-1
EndSplineSet
Validated: 1
EndChar

StartChar: uniF000
Encoding: 2 61440 1
Width: 1024
LayerCount: 5
Fore
SplineSet
971 771 m 0,0,1
 971 750.996 971 750.996 946 727 c 2,2,-1
 585 366 l 1,3,-1
 585 -73 l 1,4,-1
 768 -73 l 2,5,6
 783 -73 783 -73 794 -84 c 128,-1,7
 805 -95 805 -95 805 -110 c 128,-1,8
 804.992 -125 804.992 -125 794 -135 c 0,9,10
 782.991 -145.998 782.991 -145.998 768 -146 c 2,11,-1
 256 -146 l 2,12,13
 241 -146 241 -146 230 -135 c 128,-1,14
 218.999 -124 218.999 -124 219 -110 c 0,15,16
 219 -95.0001 219 -95.0001 230 -84 c 128,-1,17
 241 -73.0001 241 -73.0001 256 -73 c 2,18,-1
 439 -73 l 1,19,-1
 439 366 l 1,20,-1
 78 727 l 2,21,22
 53 752.01 53 752.01 53 771 c 0,23,24
 53.0001 784.013 53.0001 784.013 63 793 c 0,25,26
 73 801 73 801 85 802 c 1,27,28
 96.0001 804 96.0001 804 110 805 c 1,29,-1
 914 805 l 2,30,31
 927.018 805 927.018 805 939 802 c 0,32,33
 950 800 950 800 961 793 c 1,34,35
 971.011 784 971.011 784 971 771 c 0,0,1
EndSplineSet
Validated: 524289
EndChar

StartChar: uniF001
Encoding: 3 61441 2
Width: 877
LayerCount: 5
Fore
SplineSet
878 750 m 2,0,-1
 878 110 l 2,1,2
 877.99 81 877.99 81 858 58 c 0,3,4
 839 35 839 35 809 25 c 1,5,6
 779 13 779 13 750 6 c 1,7,8
 720 0 720 0 695 0 c 0,9,10
 668.997 0 668.997 0 640 6 c 0,11,12
 609.996 12 609.996 12 581 25 c 1,13,14
 551.001 37 551.001 37 531 58 c 1,15,16
 511.997 81 511.997 81 512 110 c 128,-1,17
 512 139 512 139 531 161 c 0,18,19
 550.002 184 550.002 184 581 196 c 0,20,21
 611 208 611 208 640 213 c 0,22,23
 670.002 219 670.002 219 695 219 c 0,24,25
 755 219 755 219 805 198 c 1,26,-1
 805 504 l 1,27,-1
 366 369 l 1,28,-1
 366 -37 l 2,29,30
 366 -66 366 -66 346 -87 c 1,31,32
 326.999 -110 326.999 -110 297 -122 c 128,-1,33
 267 -134 267 -134 238 -140 c 0,34,35
 208 -146 208 -146 183 -146 c 0,36,37
 157 -146 157 -146 128 -140 c 0,38,39
 98 -134 98 -134 69 -122 c 0,40,41
 39 -110 39 -110 19 -87 c 0,42,43
 0 -64 0 -64 0 -37 c 0,44,45
 0 -8 0 -8 19 14 c 0,46,47
 38 37 38 37 69 49 c 0,48,49
 99 61 99 61 128 68 c 1,50,51
 158 74 158 74 183 73 c 1,52,53
 243 73 243 73 293 51 c 1,54,-1
 293 603 l 2,55,56
 293 620 293 620 303 636 c 1,57,58
 314.002 650 314.002 650 332 656 c 2,59,-1
 807 802 l 2,60,61
 814.016 804 814.016 804 823 805 c 1,62,63
 846 804.989 846 804.989 862 788 c 1,64,65
 878.008 772.995 878.008 772.995 878 750 c 2,0,-1
EndSplineSet
Validated: 524321
EndChar

StartChar: uniF002
Encoding: 4 61442 3
Width: 950
LayerCount: 5
Fore
SplineSet
658 402 m 128,-1,1
 658 507 658 507 583 583 c 0,2,3
 507.999 658 507.999 658 402 658 c 0,4,5
 297 658 297 658 221 583 c 0,6,7
 146 507.999 146 507.999 146 402 c 0,8,9
 146 297 146 297 221 221 c 0,10,11
 296 146 296 146 402 146 c 0,12,13
 507 146 507 146 583 221 c 1,14,0
 658 297 658 297 658 402 c 128,-1,1
951 -73 m 0,15,16
 951 -103 951 -103 929 -125 c 128,-1,17
 907 -147 907 -147 878 -146 c 1,18,19
 847 -146 847 -146 826 -125 c 2,20,-1
 631 71 l 1,21,22
 528.999 0 528.999 0 402 0 c 0,23,24
 320 0 320 0 246 32 c 0,25,26
 171 64 171 64 118 118 c 0,27,28
 64 172 64 172 32 246 c 0,29,30
 0 321 0 321 0 402 c 0,31,32
 0 484 0 484 32 558 c 0,33,34
 64 633 64 633 118 687 c 128,-1,35
 172 741 172 741 246 773 c 0,36,37
 321 805 321 805 402 805 c 0,38,39
 484 804.991 484 804.991 558 773 c 0,40,41
 633 740.995 633 740.995 687 687 c 128,-1,42
 741 633 741 633 773 558 c 128,-1,43
 805 483 805 483 805 402 c 0,44,45
 804.998 276 804.998 276 734 174 c 1,46,-1
 930 -22 l 2,47,48
 951 -42 951 -42 951 -73 c 0,15,16
EndSplineSet
Validated: 524321
EndChar

StartChar: uniF003
Encoding: 5 61443 4
Width: 1024
LayerCount: 5
Fore
SplineSet
951 18 m 2,0,-1
 951 457 l 1,1,2
 933 437 933 437 911 420 c 0,3,4
 757 302 757 302 668 226 c 0,5,6
 638.997 201 638.997 201 621 188 c 128,-1,7
 602.996 175 602.996 175 571 161 c 0,8,9
 540 147 540 147 513 146 c 1,10,-1
 512 146 l 1,11,-1
 511 146 l 2,12,13
 482.998 146 482.998 146 453 161 c 1,14,15
 421.999 175 421.999 175 403 188 c 0,16,17
 385 201 385 201 356 226 c 0,18,19
 266 302 266 302 113 420 c 0,20,21
 90.9999 437.002 90.9999 437.002 73 457 c 1,22,-1
 73 18 l 2,23,24
 73 11 73 11 79 5 c 0,25,26
 84 0 84 0 91 0 c 2,27,-1
 933 0 l 2,28,29
 940 0 940 0 945 5 c 0,30,31
 951 11 951 11 951 18 c 2,0,-1
951 618 m 2,32,-1
 951 625 l 1,33,-1
 951 633 l 1,34,-1
 951 640 l 1,35,-1
 948 647 l 1,36,-1
 946 652 l 1,37,-1
 941 657 l 1,38,-1
 933 658 l 1,39,-1
 91 658 l 2,40,41
 84 658.002 84 658.002 79 653 c 128,-1,42
 74 647.985 74 647.985 73 640 c 1,43,44
 73 544 73 544 157 478 c 0,45,46
 268 391 268 391 386 297 c 0,47,48
 389 294 389 294 407 280 c 1,49,50
 423 266 423 266 432 258 c 0,51,52
 441.002 251 441.002 251 458 241 c 1,53,54
 473 231 473 231 486 224 c 1,55,56
 499 218.994 499 218.994 511 219 c 2,57,-1
 512 219 l 1,58,-1
 513 219 l 2,59,60
 524 219 524 219 538 224 c 0,61,62
 550.998 229 550.998 229 566 241 c 1,63,64
 581 251.001 581 251.001 592 258 c 1,65,66
 601.004 265 601.004 265 617 280 c 0,67,68
 633 294 633 294 638 297 c 0,69,70
 757 391 757 391 867 478 c 0,71,72
 898.004 503 898.004 503 925 544 c 0,73,74
 951 584.004 951 584.004 951 618 c 2,32,-1
1024 640 m 2,75,-1
 1024 18 l 2,76,77
 1024 -20 1024 -20 997 -46 c 0,78,79
 970 -73 970 -73 933 -73 c 2,80,-1
 91 -73 l 2,81,82
 53 -73 53 -73 27 -46 c 0,83,84
 0 -19 0 -19 0 18 c 2,85,-1
 0 640 l 2,86,87
 0 678 0 678 27 705 c 128,-1,88
 54 732 54 732 91 731 c 1,89,-1
 933 731 l 2,90,91
 971 730.995 971 730.995 997 705 c 0,92,93
 1024 677.998 1024 677.998 1024 640 c 2,75,-1
EndSplineSet
Validated: 524321
EndChar

StartChar: uniF004
Encoding: 6 61444 5
Width: 1024
LayerCount: 5
Fore
SplineSet
512 -73 m 128,-1,1
 497 -73.0003 497 -73.0003 486 -62 c 2,2,-1
 130 282 l 1,3,4
 124 286 124 286 115 296 c 0,5,6
 105 306 105 306 83 334 c 128,-1,7
 61 362 61 362 44 389 c 1,8,9
 27 418.001 27 418.001 13 459 c 0,10,11
 0 500 0 500 0 538 c 0,12,13
 0 664 0 664 73 734 c 0,14,15
 146 805 146 805 273 805 c 0,16,17
 309 805 309 805 345 793 c 0,18,19
 382 781 382 781 414 759 c 1,20,21
 446.001 739 446.001 739 469 720 c 0,22,23
 492.001 702 492.001 702 512 681 c 1,24,25
 532 701 532 701 555 720 c 0,26,27
 578 738 578 738 610 759 c 0,28,29
 642 779 642 779 679 793 c 1,30,31
 716 805 716 805 751 805 c 0,32,33
 879 804.998 879 804.998 951 734 c 0,34,35
 1024 663 1024 663 1024 538 c 0,36,37
 1024 412 1024 412 893 280 c 1,38,-1
 538 -62 l 2,39,0
 526.994 -73 526.994 -73 512 -73 c 128,-1,1
EndSplineSet
Validated: 524289
EndChar

StartChar: uniF005
Encoding: 7 61445 6
Width: 950
LayerCount: 5
Fore
SplineSet
951 508 m 0,0,1
 951 495.998 951 495.998 936 480 c 1,2,-1
 728 279 l 1,3,-1
 777 -7 l 2,4,5
 778.027 -11 778.027 -11 778 -18 c 0,6,7
 778 -30 778 -30 772 -39 c 0,8,9
 765.991 -46.9999 765.991 -46.9999 755 -47 c 128,-1,10
 743.992 -47 743.992 -47 732 -41 c 2,11,-1
 475 94 l 1,12,-1
 219 -41 l 2,13,14
 207 -48 207 -48 196 -47 c 1,15,16
 184 -47 184 -47 178 -39 c 128,-1,17
 172 -31 172 -31 172 -18 c 0,18,19
 172.006 -15 172.006 -15 173 -7 c 2,20,-1
 222 279 l 1,21,-1
 14 480 l 1,22,23
 0 495 0 495 0 508 c 0,24,25
 0 530 0 530 32 535 c 2,26,-1
 318 575 l 1,27,-1
 447 836 l 2,28,29
 458.002 860 458.002 860 475 859 c 0,30,31
 492.002 858.989 492.002 858.989 504 836 c 2,32,-1
 632 575 l 1,33,-1
 919 535 l 2,34,35
 951 530 951 530 951 508 c 0,0,1
EndSplineSet
Validated: 524321
EndChar

StartChar: uniF006
Encoding: 8 61446 7
Width: 950
LayerCount: 5
Fore
SplineSet
649 304 m 1,0,-1
 824 474 l 1,1,-1
 584 509 l 1,2,-1
 475 727 l 1,3,-1
 368 509 l 1,4,-1
 126 474 l 1,5,-1
 301 304 l 1,6,-1
 259 63 l 1,7,-1
 475 177 l 1,8,-1
 691 63 l 1,9,-1
 649 304 l 1,0,-1
951 508 m 0,10,11
 951 495.998 951 495.998 936 480 c 1,12,-1
 728 279 l 1,13,-1
 777 -7 l 2,14,15
 778.027 -11 778.027 -11 778 -18 c 0,16,17
 778 -47 778 -47 755 -47 c 0,18,19
 743.992 -47 743.992 -47 732 -41 c 2,20,-1
 475 94 l 1,21,-1
 219 -41 l 2,22,23
 207 -48 207 -48 196 -47 c 1,24,25
 184 -47 184 -47 178 -39 c 128,-1,26
 172 -31 172 -31 172 -18 c 0,27,28
 172.006 -15 172.006 -15 173 -7 c 2,29,-1
 222 279 l 1,30,-1
 14 480 l 1,31,32
 0 495 0 495 0 508 c 0,33,34
 0 530 0 530 32 535 c 2,35,-1
 318 575 l 1,36,-1
 447 836 l 2,37,38
 458.002 860 458.002 860 475 859 c 0,39,40
 492.002 858.989 492.002 858.989 504 836 c 2,41,-1
 632 575 l 1,42,-1
 919 535 l 2,43,44
 951 530 951 530 951 508 c 0,10,11
EndSplineSet
Validated: 524321
EndChar

StartChar: uniF007
Encoding: 9 61447 8
Width: 803
LayerCount: 5
Fore
SplineSet
805 75 m 0,0,1
 805 6 805 6 763 -34 c 128,-1,2
 721 -74 721 -74 652 -73 c 1,3,-1
 153 -73 l 2,4,5
 83 -73 83 -73 42 -34 c 0,6,7
 0 6 0 6 0 75 c 0,8,9
 0 106 0 106 2 134 c 0,10,11
 4 163 4 163 10 197 c 128,-1,12
 16 231 16 231 26 258 c 1,13,14
 35 287.001 35 287.001 50 314 c 0,15,16
 65.0001 342 65.0001 342 85 360 c 0,17,18
 105 379 105 379 134 391 c 0,19,20
 163 402.008 163 402.008 198 402 c 0,21,22
 203 402 203 402 222 390 c 2,23,-1
 264 362 l 2,24,25
 288 347 288 347 326 335 c 128,-1,26
 364.001 323 364.001 323 402 323 c 128,-1,27
 440.001 323 440.001 323 478 335 c 128,-1,28
 516.003 347 516.003 347 541 362 c 0,29,30
 565 377 565 377 583 390 c 0,31,32
 601 402 601 402 607 402 c 0,33,34
 642 402 642 402 671 391 c 128,-1,35
 700 380 700 380 720 360 c 0,36,37
 740 340.999 740 340.999 755 314 c 0,38,39
 770 285.999 770 285.999 779 258 c 0,40,41
 787.995 229 787.995 229 795 197 c 1,42,43
 801 163 801 163 803 134 c 0,44,45
 805 106 805 106 805 75 c 0,0,1
622 585 m 128,-1,47
 621.996 494 621.996 494 557 430 c 0,48,49
 492 365 492 365 402 366 c 1,50,51
 311 366 311 366 247 430 c 0,52,53
 182 495 182 495 183 585 c 1,54,55
 183 676.001 183 676.001 247 740 c 0,56,57
 312 805 312 805 402 805 c 0,58,59
 493 804.998 493 804.998 557 740 c 1,60,46
 622 676 622 676 622 585 c 128,-1,47
EndSplineSet
Validated: 524321
EndChar

StartChar: uniF008
Encoding: 10 61448 9
Width: 1096
LayerCount: 5
Fore
SplineSet
219 -37 m 2,0,-1
 219 37 l 2,1,2
 219 52 219 52 209 62 c 0,3,4
 198 73.0003 198 73.0003 183 73 c 2,5,-1
 110 73 l 2,6,7
 95 73 95 73 84 62 c 128,-1,8
 73 51 73 51 73 37 c 2,9,-1
 73 -37 l 2,10,11
 73 -52 73 -52 84 -62 c 0,12,13
 95.0002 -73 95.0002 -73 110 -73 c 2,14,-1
 183 -73 l 2,15,16
 198 -73.0003 198 -73.0003 209 -62 c 0,17,18
 219.001 -52 219.001 -52 219 -37 c 2,0,-1
219 183 m 2,19,-1
 219 256 l 2,20,21
 219 271.002 219 271.002 209 282 c 0,22,23
 198 293.003 198 293.003 183 293 c 2,24,-1
 110 293 l 2,25,26
 95 293 95 293 84 282 c 128,-1,27
 73 271 73 271 73 256 c 2,28,-1
 73 183 l 2,29,30
 73 168 73 168 84 157 c 128,-1,31
 95.0002 146 95.0002 146 110 146 c 2,32,-1
 183 146 l 2,33,34
 198 146 198 146 209 157 c 0,35,36
 219.001 168 219.001 168 219 183 c 2,19,-1
219 402 m 2,37,-1
 219 475 l 2,38,39
 219 489.999 219 489.999 209 501 c 0,40,41
 198 512.006 198 512.006 183 512 c 2,42,-1
 110 512 l 2,43,44
 95 512 95 512 84 501 c 128,-1,45
 73 490 73 490 73 475 c 2,46,-1
 73 402 l 2,47,48
 73 386.998 73 386.998 84 377 c 0,49,50
 95.0002 366 95.0002 366 110 366 c 2,51,-1
 183 366 l 2,52,53
 198 366.008 198 366.008 209 377 c 0,54,55
 219.001 387 219.001 387 219 402 c 2,37,-1
805 -37 m 2,56,-1
 805 256 l 2,57,58
 804.992 271.002 804.992 271.002 794 282 c 128,-1,59
 782.991 293.003 782.991 293.003 768 293 c 2,60,-1
 329 293 l 2,61,62
 314 293 314 293 303 282 c 128,-1,63
 292 271 292 271 293 256 c 1,64,-1
 293 -37 l 2,65,66
 293 -52 293 -52 303 -62 c 0,67,68
 314.002 -73 314.002 -73 329 -73 c 2,69,-1
 768 -73 l 2,70,71
 783 -73.0003 783 -73.0003 794 -62 c 0,72,73
 805 -52 805 -52 805 -37 c 2,56,-1
219 622 m 2,74,-1
 219 695 l 2,75,76
 219 710 219 710 209 721 c 0,77,78
 198 732 198 732 183 731 c 1,79,-1
 110 731 l 2,80,81
 95 731 95 731 84 721 c 0,82,83
 73 710 73 710 73 695 c 2,84,-1
 73 622 l 2,85,86
 73 606.994 73 606.994 84 596 c 128,-1,87
 95.0002 584.994 95.0002 584.994 110 585 c 2,88,-1
 183 585 l 2,89,90
 198 585 198 585 209 596 c 0,91,92
 219.001 607 219.001 607 219 622 c 2,74,-1
1024 -37 m 2,93,-1
 1024 37 l 2,94,95
 1023.96 52 1023.96 52 1013 62 c 0,96,97
 1002 73.0003 1002 73.0003 987 73 c 2,98,-1
 914 73 l 2,99,100
 899 73 899 73 889 62 c 0,101,102
 877.968 51 877.968 51 878 37 c 2,103,-1
 878 -37 l 2,104,105
 878 -52 878 -52 889 -62 c 0,106,107
 900 -73 900 -73 914 -73 c 2,108,-1
 987 -73 l 2,109,110
 1002 -73.0003 1002 -73.0003 1013 -62 c 0,111,112
 1024 -52 1024 -52 1024 -37 c 2,93,-1
805 402 m 2,113,-1
 805 695 l 2,114,115
 804.992 710 804.992 710 794 721 c 128,-1,116
 782.991 732 782.991 732 768 731 c 1,117,-1
 329 731 l 2,118,119
 314 731 314 731 303 721 c 0,120,121
 292 710 292 710 293 695 c 1,122,-1
 293 402 l 2,123,124
 293 386.998 293 386.998 303 377 c 0,125,126
 314.002 366 314.002 366 329 366 c 2,127,-1
 768 366 l 2,128,129
 783 366.008 783 366.008 794 377 c 0,130,131
 805 387 805 387 805 402 c 2,113,-1
1024 183 m 2,132,-1
 1024 256 l 2,133,134
 1023.96 271.002 1023.96 271.002 1013 282 c 128,-1,135
 1002 293.003 1002 293.003 987 293 c 2,136,-1
 914 293 l 2,137,138
 899 293 899 293 889 282 c 0,139,140
 877.968 271 877.968 271 878 256 c 2,141,-1
 878 183 l 2,142,143
 878 168 878 168 889 157 c 128,-1,144
 900 146 900 146 914 146 c 2,145,-1
 987 146 l 2,146,147
 1002 146 1002 146 1013 157 c 128,-1,148
 1024 168 1024 168 1024 183 c 2,132,-1
1024 402 m 2,149,-1
 1024 475 l 2,150,151
 1023.96 489.999 1023.96 489.999 1013 501 c 128,-1,152
 1002 512.006 1002 512.006 987 512 c 2,153,-1
 914 512 l 2,154,155
 899 512 899 512 889 501 c 0,156,157
 877.968 490 877.968 490 878 475 c 2,158,-1
 878 402 l 2,159,160
 878 386.998 878 386.998 889 377 c 0,161,162
 900 366 900 366 914 366 c 2,163,-1
 987 366 l 2,164,165
 1002 366.008 1002 366.008 1013 377 c 0,166,167
 1024 387 1024 387 1024 402 c 2,149,-1
1024 622 m 2,168,-1
 1024 695 l 2,169,170
 1023.96 710 1023.96 710 1013 721 c 128,-1,171
 1002 732 1002 732 987 731 c 1,172,-1
 914 731 l 2,173,174
 899 731 899 731 889 721 c 0,175,176
 877.968 710 877.968 710 878 695 c 2,177,-1
 878 622 l 2,178,179
 878 606.994 878 606.994 889 596 c 128,-1,180
 900 584.994 900 584.994 914 585 c 2,181,-1
 987 585 l 2,182,183
 1002 585 1002 585 1013 596 c 128,-1,184
 1024 607 1024 607 1024 622 c 2,168,-1
1097 713 m 2,185,-1
 1097 -55 l 2,186,187
 1097 -93 1097 -93 1070 -120 c 128,-1,188
 1043 -147 1043 -147 1006 -146 c 2,189,-1
 91 -146 l 2,190,191
 53 -146 53 -146 27 -120 c 0,192,193
 0 -93.0001 0 -93.0001 0 -55 c 2,194,-1
 0 713 l 2,195,196
 0 751 0 751 27 777 c 0,197,198
 54 804.009 54 804.009 91 805 c 2,199,-1
 1006 805 l 2,200,201
 1044.02 805 1044.02 805 1070 777 c 1,202,203
 1097 750.991 1097 750.991 1097 713 c 2,185,-1
EndSplineSet
Validated: 524321
EndChar

StartChar: uniF009
Encoding: 11 61449 10
Width: 950
LayerCount: 5
Fore
SplineSet
439 293 m 2,0,-1
 439 73 l 2,1,2
 438.996 43 438.996 43 417 22 c 0,3,4
 395 0 395 0 366 0 c 2,5,-1
 73 0 l 2,6,7
 43 0 43 0 22 22 c 0,8,9
 0 44 0 44 0 73 c 2,10,-1
 0 293 l 2,11,12
 0 323 0 323 22 344 c 0,13,14
 44 366 44 366 73 366 c 2,15,-1
 366 366 l 2,16,17
 396 365.998 396 365.998 417 344 c 1,18,19
 439 323 439 323 439 293 c 2,0,-1
439 731 m 2,20,-1
 439 512 l 2,21,22
 438.996 482 438.996 482 417 461 c 0,23,24
 395 438.999 395 438.999 366 439 c 2,25,-1
 73 439 l 2,26,27
 43 439 43 439 22 461 c 0,28,29
 0 483 0 483 0 512 c 2,30,-1
 0 731 l 2,31,32
 0 761.004 0 761.004 22 783 c 128,-1,33
 44 805.006 44 805.006 73 805 c 2,34,-1
 366 805 l 2,35,36
 396 805 396 805 417 783 c 0,37,38
 439 761 439 761 439 731 c 2,20,-1
951 293 m 2,39,-1
 951 73 l 2,40,41
 951 43 951 43 929 22 c 0,42,43
 907 0 907 0 878 0 c 2,44,-1
 585 0 l 2,45,46
 555 0 555 0 534 22 c 0,47,48
 511.997 44 511.997 44 512 73 c 2,49,-1
 512 293 l 2,50,51
 512 323 512 323 534 344 c 0,52,53
 556 366 556 366 585 366 c 2,54,-1
 878 366 l 2,55,56
 908 365.998 908 365.998 929 344 c 1,57,58
 951.006 323 951.006 323 951 293 c 2,39,-1
951 731 m 2,59,-1
 951 512 l 2,60,61
 951 482 951 482 929 461 c 0,62,63
 907 438.999 907 438.999 878 439 c 2,64,-1
 585 439 l 2,65,66
 555 439 555 439 534 461 c 0,67,68
 511.997 483 511.997 483 512 512 c 2,69,-1
 512 731 l 2,70,71
 512 761.004 512 761.004 534 783 c 128,-1,72
 556 805.006 556 805.006 585 805 c 2,73,-1
 878 805 l 2,74,75
 908 805 908 805 929 783 c 0,76,77
 951.006 761 951.006 761 951 731 c 2,59,-1
EndSplineSet
Validated: 524321
EndChar

StartChar: uniF00A
Encoding: 12 61450 11
Width: 1024
LayerCount: 5
Fore
SplineSet
293 165 m 2,0,-1
 293 55 l 2,1,2
 293 32 293 32 276 16 c 0,3,4
 259.999 0 259.999 0 238 0 c 2,5,-1
 55 0 l 2,6,7
 32 0 32 0 16 16 c 128,-1,8
 0 32 0 32 0 55 c 2,9,-1
 0 165 l 2,10,11
 0 188 0 188 16 204 c 128,-1,12
 32 220 32 220 55 219 c 1,13,-1
 238 219 l 2,14,15
 261 219 261 219 276 204 c 0,16,17
 293.001 188 293.001 188 293 165 c 2,0,-1
293 457 m 2,18,-1
 293 347 l 2,19,20
 293 324 293 324 276 308 c 0,21,22
 259.999 292 259.999 292 238 293 c 1,23,-1
 55 293 l 2,24,25
 32 293 32 293 16 308 c 0,26,27
 0 324 0 324 0 347 c 2,28,-1
 0 457 l 2,29,30
 0 480 0 480 16 496 c 128,-1,31
 32 512 32 512 55 512 c 2,32,-1
 238 512 l 2,33,34
 261 511.997 261 511.997 276 496 c 1,35,36
 293.001 480 293.001 480 293 457 c 2,18,-1
658 165 m 2,37,-1
 658 55 l 2,38,39
 658 32 658 32 642 16 c 128,-1,40
 626 0 626 0 603 0 c 2,41,-1
 421 0 l 2,42,43
 398 0 398 0 382 16 c 128,-1,44
 365.995 32 365.995 32 366 55 c 2,45,-1
 366 165 l 2,46,47
 366 188 366 188 382 204 c 128,-1,48
 398 220 398 220 421 219 c 1,49,-1
 603 219 l 2,50,51
 626 219 626 219 642 204 c 0,52,53
 658.016 188 658.016 188 658 165 c 2,37,-1
293 750 m 2,54,-1
 293 640 l 2,55,56
 293 617 293 617 276 601 c 0,57,58
 259.999 585 259.999 585 238 585 c 2,59,-1
 55 585 l 2,60,61
 32 585.008 32 585.008 16 601 c 128,-1,62
 0 617 0 617 0 640 c 2,63,-1
 0 750 l 2,64,65
 0 773 0 773 16 788 c 0,66,67
 32 804.01 32 804.01 55 805 c 2,68,-1
 238 805 l 2,69,70
 261 804.989 261 804.989 276 788 c 1,71,72
 293.001 772.995 293.001 772.995 293 750 c 2,54,-1
658 457 m 2,73,-1
 658 347 l 2,74,75
 658 324 658 324 642 308 c 128,-1,76
 626 292 626 292 603 293 c 1,77,-1
 421 293 l 2,78,79
 398 293 398 293 382 308 c 0,80,81
 365.995 324 365.995 324 366 347 c 2,82,-1
 366 457 l 2,83,84
 366 480 366 480 382 496 c 128,-1,85
 398 512 398 512 421 512 c 2,86,-1
 603 512 l 2,87,88
 626 511.997 626 511.997 642 496 c 128,-1,89
 658.016 480 658.016 480 658 457 c 2,73,-1
1024 165 m 2,90,-1
 1024 55 l 2,91,92
 1024 32 1024 32 1008 16 c 128,-1,93
 992 0 992 0 969 0 c 2,94,-1
 786 0 l 2,95,96
 762.991 0 762.991 0 748 16 c 0,97,98
 732 32 732 32 731 55 c 1,99,-1
 731 165 l 2,100,101
 731 188 731 188 748 204 c 0,102,103
 764.004 220 764.004 220 786 219 c 1,104,-1
 969 219 l 2,105,106
 992 219 992 219 1008 204 c 0,107,108
 1024.02 188 1024.02 188 1024 165 c 2,90,-1
658 750 m 2,109,-1
 658 640 l 2,110,111
 658 617 658 617 642 601 c 128,-1,112
 626 585 626 585 603 585 c 2,113,-1
 421 585 l 2,114,115
 398 585.008 398 585.008 382 601 c 128,-1,116
 365.995 617 365.995 617 366 640 c 2,117,-1
 366 750 l 2,118,119
 366 773 366 773 382 788 c 0,120,121
 398 804.01 398 804.01 421 805 c 2,122,-1
 603 805 l 2,123,124
 626 804.989 626 804.989 642 788 c 1,125,126
 658.016 772.995 658.016 772.995 658 750 c 2,109,-1
1024 457 m 2,127,-1
 1024 347 l 2,128,129
 1024 324 1024 324 1008 308 c 128,-1,130
 992 292 992 292 969 293 c 1,131,-1
 786 293 l 2,132,133
 762.991 293 762.991 293 748 308 c 0,134,135
 732 324 732 324 731 347 c 1,136,-1
 731 457 l 2,137,138
 731 480 731 480 748 496 c 0,139,140
 764.004 512 764.004 512 786 512 c 2,141,-1
 969 512 l 2,142,143
 992 511.997 992 511.997 1008 496 c 128,-1,144
 1024.02 480 1024.02 480 1024 457 c 2,127,-1
1024 750 m 2,145,-1
 1024 640 l 2,146,147
 1024 617 1024 617 1008 601 c 128,-1,148
 992 585 992 585 969 585 c 2,149,-1
 786 585 l 2,150,151
 762.991 585.008 762.991 585.008 748 601 c 0,152,153
 732 617 732 617 731 640 c 1,154,-1
 731 750 l 2,155,156
 731 773 731 773 748 788 c 1,157,158
 764.004 804.01 764.004 804.01 786 805 c 2,159,-1
 969 805 l 2,160,161
 992 804.989 992 804.989 1008 788 c 1,162,163
 1024.02 772.995 1024.02 772.995 1024 750 c 2,145,-1
EndSplineSet
Validated: 524321
EndChar

StartChar: uniF00B
Encoding: 13 61451 12
Width: 1024
LayerCount: 5
Fore
SplineSet
293 165 m 2,0,-1
 293 55 l 2,1,2
 293 32 293 32 276 16 c 0,3,4
 259.999 0 259.999 0 238 0 c 2,5,-1
 55 0 l 2,6,7
 32 0 32 0 16 16 c 128,-1,8
 0 32 0 32 0 55 c 2,9,-1
 0 165 l 2,10,11
 0 188 0 188 16 204 c 128,-1,12
 32 220 32 220 55 219 c 1,13,-1
 238 219 l 2,14,15
 261 219 261 219 276 204 c 0,16,17
 293.001 188 293.001 188 293 165 c 2,0,-1
293 457 m 2,18,-1
 293 347 l 2,19,20
 293 324 293 324 276 308 c 0,21,22
 259.999 292 259.999 292 238 293 c 1,23,-1
 55 293 l 2,24,25
 32 293 32 293 16 308 c 0,26,27
 0 324 0 324 0 347 c 2,28,-1
 0 457 l 2,29,30
 0 480 0 480 16 496 c 128,-1,31
 32 512 32 512 55 512 c 2,32,-1
 238 512 l 2,33,34
 261 511.997 261 511.997 276 496 c 1,35,36
 293.001 480 293.001 480 293 457 c 2,18,-1
1024 165 m 2,37,-1
 1024 55 l 2,38,39
 1024 32 1024 32 1008 16 c 128,-1,40
 992 0 992 0 969 0 c 2,41,-1
 421 0 l 2,42,43
 398 0 398 0 382 16 c 128,-1,44
 365.995 32 365.995 32 366 55 c 2,45,-1
 366 165 l 2,46,47
 366 188 366 188 382 204 c 128,-1,48
 398 220 398 220 421 219 c 1,49,-1
 969 219 l 2,50,51
 992 219 992 219 1008 204 c 0,52,53
 1024.02 188 1024.02 188 1024 165 c 2,37,-1
293 750 m 2,54,-1
 293 640 l 2,55,56
 293 617 293 617 276 601 c 0,57,58
 259.999 585 259.999 585 238 585 c 2,59,-1
 55 585 l 2,60,61
 32 585.008 32 585.008 16 601 c 128,-1,62
 0 617 0 617 0 640 c 2,63,-1
 0 750 l 2,64,65
 0 773 0 773 16 788 c 0,66,67
 32 804.01 32 804.01 55 805 c 2,68,-1
 238 805 l 2,69,70
 261 804.989 261 804.989 276 788 c 1,71,72
 293.001 772.995 293.001 772.995 293 750 c 2,54,-1
1024 457 m 2,73,-1
 1024 347 l 2,74,75
 1024 324 1024 324 1008 308 c 128,-1,76
 992 292 992 292 969 293 c 1,77,-1
 421 293 l 2,78,79
 398 293 398 293 382 308 c 0,80,81
 365.995 324 365.995 324 366 347 c 2,82,-1
 366 457 l 2,83,84
 366 480 366 480 382 496 c 128,-1,85
 398 512 398 512 421 512 c 2,86,-1
 969 512 l 2,87,88
 992 511.997 992 511.997 1008 496 c 128,-1,89
 1024.02 480 1024.02 480 1024 457 c 2,73,-1
1024 750 m 2,90,-1
 1024 640 l 2,91,92
 1024 617 1024 617 1008 601 c 128,-1,93
 992 585 992 585 969 585 c 2,94,-1
 421 585 l 2,95,96
 398 585.008 398 585.008 382 601 c 128,-1,97
 365.995 617 365.995 617 366 640 c 2,98,-1
 366 750 l 2,99,100
 366 773 366 773 382 788 c 0,101,102
 398 804.01 398 804.01 421 805 c 2,103,-1
 969 805 l 2,104,105
 992 804.989 992 804.989 1008 788 c 1,106,107
 1024.02 772.995 1024.02 772.995 1024 750 c 2,90,-1
EndSplineSet
Validated: 524321
EndChar

StartChar: uniF00C
Encoding: 14 61452 13
Width: 1024
LayerCount: 5
Fore
SplineSet
954 554 m 128,-1,1
 954 531 954 531 939 515 c 2,2,-1
 525 101 l 1,3,-1
 447 24 l 2,4,5
 430.999 8 430.999 8 409 8 c 0,6,7
 386 8 386 8 370 24 c 2,8,-1
 292 101 l 1,9,-1
 85 308 l 2,10,11
 69 324 69 324 70 347 c 0,12,13
 70 370 70 370 85 386 c 2,14,-1
 163 464 l 2,15,16
 179 480 179 480 202 480 c 128,-1,17
 225 479.997 225 479.997 241 464 c 2,18,-1
 409 296 l 1,19,-1
 783 671 l 2,20,21
 799 687.008 799 687.008 822 687 c 128,-1,22
 845 687 845 687 861 671 c 2,23,-1
 939 593 l 2,24,0
 954 577 954 577 954 554 c 128,-1,1
EndSplineSet
Validated: 524321
EndChar

StartChar: uniF00D
Encoding: 15 61453 14
Width: 803
LayerCount: 5
Fore
SplineSet
741 122 m 128,-1,1
 741 99 741 99 726 83 c 2,2,-1
 648 6 l 2,3,4
 632 -10 632 -10 609 -10 c 128,-1,5
 586 -10 586 -10 570 6 c 2,6,-1
 402 174 l 1,7,-1
 234 6 l 2,8,9
 218 -10 218 -10 196 -10 c 0,10,11
 173 -10 173 -10 157 6 c 2,12,-1
 79 83 l 2,13,14
 62.9999 99 62.9999 99 62 122 c 0,15,16
 62.0001 145 62.0001 145 79 161 c 2,17,-1
 247 329 l 1,18,-1
 79 497 l 2,19,20
 62.9999 513 62.9999 513 62 536 c 0,21,22
 62.0001 559 62.0001 559 79 574 c 1,23,-1
 157 652 l 2,24,25
 173 668.011 173 668.011 196 669 c 0,26,27
 219 668.994 219 668.994 234 652 c 1,28,-1
 402 484 l 1,29,-1
 570 652 l 2,30,31
 586 668.011 586 668.011 609 669 c 0,32,33
 632 668.994 632 668.994 648 652 c 2,34,-1
 726 574 l 2,35,36
 742 558 742 558 741 536 c 1,37,38
 741 512.997 741 512.997 726 497 c 2,39,-1
 558 329 l 1,40,-1
 726 161 l 2,41,0
 741 145 741 145 741 122 c 128,-1,1
EndSplineSet
Validated: 524321
EndChar

StartChar: uniF00E
Encoding: 16 61454 15
Width: 950
LayerCount: 5
Fore
SplineSet
585 421 m 2,0,-1
 585 384 l 2,1,2
 584.947 376.995 584.947 376.995 580 371 c 0,3,4
 574.999 366 574.999 366 567 366 c 2,5,-1
 439 366 l 1,6,-1
 439 238 l 2,7,8
 439 231 439 231 433 225 c 0,9,10
 428 220 428 220 421 219 c 1,11,-1
 384 219 l 2,12,13
 376.995 219 376.995 219 371 225 c 0,14,15
 366 230 366 230 366 238 c 2,16,-1
 366 366 l 1,17,-1
 238 366 l 2,18,19
 231 366.008 231 366.008 225 371 c 0,20,21
 220 376.003 220 376.003 219 384 c 1,22,-1
 219 421 l 2,23,24
 219 428 219 428 225 433 c 0,25,26
 230 438 230 438 238 439 c 1,27,-1
 366 439 l 1,28,-1
 366 567 l 2,29,30
 366.008 574.012 366.008 574.012 371 580 c 0,31,32
 376.003 585 376.003 585 384 585 c 2,33,-1
 421 585 l 2,34,35
 428 584.947 428 584.947 433 580 c 128,-1,36
 438 574.999 438 574.999 439 567 c 1,37,-1
 439 439 l 1,38,-1
 567 439 l 2,39,40
 574.012 439 574.012 439 580 433 c 0,41,42
 585 428 585 428 585 421 c 2,0,-1
658 402 m 128,-1,44
 658 507 658 507 583 583 c 0,45,46
 507.999 658 507.999 658 402 658 c 0,47,48
 297 658 297 658 221 583 c 0,49,50
 146 507.999 146 507.999 146 402 c 0,51,52
 146 297 146 297 221 221 c 0,53,54
 296 146 296 146 402 146 c 0,55,56
 507 146 507 146 583 221 c 1,57,43
 658 297 658 297 658 402 c 128,-1,44
951 -73 m 128,-1,59
 951 -104 951 -104 930 -125 c 0,60,61
 908 -147 908 -147 878 -146 c 1,62,63
 847 -146 847 -146 826 -125 c 2,64,-1
 631 71 l 1,65,66
 528.999 0 528.999 0 402 0 c 0,67,68
 320 0 320 0 246 32 c 0,69,70
 171 64 171 64 118 118 c 0,71,72
 64 172 64 172 32 246 c 0,73,74
 0 321 0 321 0 402 c 0,75,76
 0 484 0 484 32 558 c 0,77,78
 64 633 64 633 118 687 c 128,-1,79
 172 741 172 741 246 773 c 0,80,81
 321 805 321 805 402 805 c 0,82,83
 484 804.991 484 804.991 558 773 c 0,84,85
 633 740.995 633 740.995 687 687 c 128,-1,86
 741 633 741 633 773 558 c 128,-1,87
 805 483 805 483 805 402 c 0,88,89
 804.998 276 804.998 276 734 174 c 1,90,-1
 930 -22 l 2,91,58
 951 -42 951 -42 951 -73 c 128,-1,59
EndSplineSet
Validated: 524321
EndChar

StartChar: uniF010
Encoding: 17 61456 16
Width: 950
LayerCount: 5
Fore
SplineSet
585 421 m 2,0,-1
 585 384 l 2,1,2
 584.947 376.995 584.947 376.995 580 371 c 0,3,4
 574.999 366 574.999 366 567 366 c 2,5,-1
 238 366 l 2,6,7
 231 366.008 231 366.008 225 371 c 0,8,9
 220 376.003 220 376.003 219 384 c 1,10,-1
 219 421 l 2,11,12
 219 428 219 428 225 433 c 0,13,14
 230 438 230 438 238 439 c 1,15,-1
 567 439 l 2,16,17
 574.012 439 574.012 439 580 433 c 0,18,19
 585 428 585 428 585 421 c 2,0,-1
658 402 m 128,-1,21
 658 507 658 507 583 583 c 0,22,23
 507.999 658 507.999 658 402 658 c 0,24,25
 297 658 297 658 221 583 c 0,26,27
 146 507.999 146 507.999 146 402 c 0,28,29
 146 297 146 297 221 221 c 0,30,31
 296 146 296 146 402 146 c 0,32,33
 507 146 507 146 583 221 c 1,34,20
 658 297 658 297 658 402 c 128,-1,21
951 -73 m 128,-1,36
 951 -104 951 -104 930 -125 c 0,37,38
 908 -147 908 -147 878 -146 c 1,39,40
 847 -146 847 -146 826 -125 c 2,41,-1
 631 71 l 1,42,43
 528.999 0 528.999 0 402 0 c 0,44,45
 320 0 320 0 246 32 c 0,46,47
 171 64 171 64 118 118 c 0,48,49
 64 172 64 172 32 246 c 0,50,51
 0 321 0 321 0 402 c 0,52,53
 0 484 0 484 32 558 c 0,54,55
 64 633 64 633 118 687 c 128,-1,56
 172 741 172 741 246 773 c 0,57,58
 321 805 321 805 402 805 c 0,59,60
 484 804.991 484 804.991 558 773 c 0,61,62
 633 740.995 633 740.995 687 687 c 128,-1,63
 741 633 741 633 773 558 c 128,-1,64
 805 483 805 483 805 402 c 0,65,66
 804.998 276 804.998 276 734 174 c 1,67,-1
 930 -22 l 2,68,35
 951 -42 951 -42 951 -73 c 128,-1,36
EndSplineSet
Validated: 524321
EndChar

StartChar: uniF011
Encoding: 18 61457 17
Width: 877
LayerCount: 5
Fore
SplineSet
878 366 m 0,0,1
 878.002 277 878.002 277 843 196 c 128,-1,2
 808 115 808 115 750 55 c 1,3,4
 692 -3.00002 692 -3.00002 609 -38 c 0,5,6
 528 -72.9999 528 -72.9999 439 -73 c 128,-1,7
 350 -73 350 -73 268 -38 c 0,8,9
 187 -3 187 -3 129 55 c 128,-1,10
 71 113 71 113 35 196 c 0,11,12
 0 277 0 277 0 366 c 0,13,14
 0 470 0 470 46 562 c 128,-1,15
 92 654 92 654 175 716 c 0,16,17
 200 734 200 734 230 730 c 128,-1,18
 260 726 260 726 278 701 c 0,19,20
 296 676.997 296 676.997 292 648 c 0,21,22
 287.999 618 287.999 618 263 599 c 0,23,24
 207 557 207 557 177 496 c 0,25,26
 146 435 146 435 146 366 c 0,27,28
 146 307 146 307 169 252 c 1,29,30
 193 198 193 198 232 159 c 0,31,32
 272 119 272 119 326 96 c 0,33,34
 380.001 72 380.001 72 439 73 c 0,35,36
 498 73.0001 498 73.0001 552 96 c 0,37,38
 606.001 120 606.001 120 646 159 c 0,39,40
 686 199 686 199 709 252 c 0,41,42
 733.004 306 733.004 306 731 366 c 1,43,44
 731 436 731 436 700 496 c 0,45,46
 669 557.003 669 557.003 614 599 c 0,47,48
 590 617.002 590 617.002 586 648 c 0,49,50
 582 678 582 678 600 701 c 1,51,52
 617 726.003 617 726.003 648 730 c 128,-1,53
 679 734.012 679 734.012 702 716 c 0,54,55
 785 654 785 654 831 562 c 0,56,57
 878 470 878 470 878 366 c 0,0,1
512 805 m 2,58,-1
 512 439 l 2,59,60
 511.996 409 511.996 409 490 387 c 128,-1,61
 468 365 468 365 439 366 c 1,62,63
 409 366 409 366 387 387 c 0,64,65
 365 409 365 409 366 439 c 1,66,-1
 366 805 l 2,67,68
 366 835 366 835 387 856 c 0,69,70
 409 878.008 409 878.008 439 878 c 128,-1,71
 469 878 469 878 490 856 c 1,72,73
 512 835 512 835 512 805 c 2,58,-1
EndSplineSet
Validated: 524321
EndChar

StartChar: uniF012
Encoding: 19 61458 18
Width: 1024
LayerCount: 5
Fore
SplineSet
146 55 m 2,0,-1
 146 -55 l 2,1,2
 146 -63 146 -63 141 -68 c 128,-1,3
 135.999 -73 135.999 -73 128 -73 c 2,4,-1
 18 -73 l 2,5,6
 10 -73.0006 10 -73.0006 5 -68 c 128,-1,7
 0 -63.0001 0 -63.0001 0 -55 c 2,8,-1
 0 55 l 2,9,10
 0 63.0001 0 63.0001 5 68 c 128,-1,11
 10 73.0007 10 73.0007 18 73 c 2,12,-1
 128 73 l 2,13,14
 136 73 136 73 141 68 c 128,-1,15
 146 63 146 63 146 55 c 2,0,-1
366 128 m 2,16,-1
 366 -55 l 2,17,18
 366 -63 366 -63 360 -68 c 0,19,20
 355 -73 355 -73 347 -73 c 2,21,-1
 238 -73 l 2,22,23
 230 -73.0006 230 -73.0006 224 -68 c 0,24,25
 218.994 -63.0001 218.994 -63.0001 219 -55 c 2,26,-1
 219 128 l 2,27,28
 219 136 219 136 224 141 c 128,-1,29
 229 146 229 146 238 146 c 2,30,-1
 347 146 l 2,31,32
 355.003 146 355.003 146 360 141 c 0,33,34
 366 135.999 366 135.999 366 128 c 2,16,-1
585 274 m 2,35,-1
 585 -55 l 2,36,37
 584.947 -63 584.947 -63 580 -68 c 128,-1,38
 574.999 -73 574.999 -73 567 -73 c 2,39,-1
 457 -73 l 2,40,41
 449 -73.0006 449 -73.0006 444 -68 c 128,-1,42
 439 -63.0001 439 -63.0001 439 -55 c 2,43,-1
 439 274 l 2,44,45
 439.019 282.002 439.019 282.002 444 288 c 0,46,47
 449.003 293.007 449.003 293.007 457 293 c 2,48,-1
 567 293 l 2,49,50
 575 293 575 293 580 288 c 0,51,52
 585 282 585 282 585 274 c 2,35,-1
805 494 m 2,53,-1
 805 -55 l 2,54,55
 804.926 -63 804.926 -63 800 -68 c 128,-1,56
 795.014 -73 795.014 -73 786 -73 c 2,57,-1
 677 -73 l 2,58,59
 668.978 -73.0006 668.978 -73.0006 664 -68 c 128,-1,60
 659 -63.0001 659 -63.0001 658 -55 c 1,61,-1
 658 494 l 2,62,63
 658 502.004 658 502.004 664 507 c 0,64,65
 669 512.012 669 512.012 677 512 c 2,66,-1
 786 512 l 2,67,68
 794 512 794 512 800 507 c 0,69,70
 805 502 805 502 805 494 c 2,53,-1
1024 786 m 2,71,-1
 1024 -55 l 2,72,73
 1023.95 -63 1023.95 -63 1019 -68 c 128,-1,74
 1013.97 -73 1013.97 -73 1006 -73 c 2,75,-1
 896 -73 l 2,76,77
 887.985 -73.0006 887.985 -73.0006 883 -68 c 128,-1,78
 877.968 -63.0001 877.968 -63.0001 878 -55 c 2,79,-1
 878 786 l 2,80,81
 878 794 878 794 883 800 c 0,82,83
 888 805 888 805 896 805 c 2,84,-1
 1006 805 l 2,85,86
 1014 804.926 1014 804.926 1019 800 c 0,87,88
 1024 793.982 1024 793.982 1024 786 c 2,71,-1
EndSplineSet
Validated: 524289
EndChar

StartChar: uniF013
Encoding: 20 61459 19
Width: 877
LayerCount: 5
Fore
SplineSet
585 366 m 128,-1,1
 585 426 585 426 543 469 c 0,2,3
 500 512 500 512 439 512 c 0,4,5
 379 511.998 379 511.998 336 469 c 128,-1,6
 293 426 293 426 293 366 c 128,-1,7
 293 306 293 306 336 262 c 0,8,9
 379 219 379 219 439 219 c 128,-1,10
 499 219 499 219 543 262 c 1,11,0
 585 306 585 306 585 366 c 128,-1,1
878 428 m 2,12,-1
 878 301 l 2,13,14
 878.028 293.999 878.028 293.999 873 288 c 0,15,16
 869 281.995 869 281.995 862 281 c 2,17,-1
 756 264 l 1,18,19
 744.996 233 744.996 233 734 213 c 1,20,21
 754 184 754 184 795 134 c 0,22,23
 801 127 801 127 801 120 c 128,-1,24
 800.927 113 800.927 113 796 106 c 0,25,26
 781 84 781 84 739 45 c 1,27,28
 698 4 698 4 685 4 c 0,29,30
 678 4 678 4 671 9 c 2,31,-1
 592 71 l 1,32,33
 565.998 58 565.998 58 540 49 c 1,34,35
 531.002 -29 531.002 -29 523 -57 c 0,36,37
 519 -72.9999 519 -72.9999 503 -73 c 2,38,-1
 376 -73 l 2,39,40
 368 -73 368 -73 361 -69 c 1,41,42
 355 -64.0001 355 -64.0001 355 -56 c 1,43,-1
 339 49 l 1,44,45
 311 58 311 58 288 71 c 1,46,-1
 207 9 l 2,47,48
 200.999 4 200.999 4 193 4 c 128,-1,49
 185 4 185 4 178 10 c 0,50,51
 106 76 106 76 84 106 c 0,52,53
 80 112 80 112 80 120 c 0,54,55
 80 127 80 127 85 132 c 1,56,57
 93.0001 144 93.0001 144 114 171 c 0,58,59
 134 197 134 197 144 211 c 1,60,61
 129 240 129 240 121 267 c 1,62,-1
 16 283 l 2,63,64
 9 284 9 284 4 290 c 0,65,66
 0 296 0 296 0 303 c 2,67,-1
 0 430 l 2,68,69
 0 437 0 437 4 443 c 128,-1,70
 8 449.015 8 449.015 15 451 c 2,71,-1
 122 467 l 1,72,73
 130 494 130 494 144 519 c 1,74,75
 121 552.001 121 552.001 83 598 c 0,76,77
 77 605.002 77 605.002 77 612 c 0,78,79
 77.0004 618 77.0004 618 82 625 c 0,80,81
 97 645 97 645 138 686 c 128,-1,82
 179 727 179 727 193 727 c 0,83,84
 200 726.945 200 726.945 208 722 c 1,85,-1
 287 660 l 1,86,87
 313 673.013 313 673.013 338 682 c 1,88,89
 347.002 760.002 347.002 760.002 355 788 c 0,90,91
 359 804.01 359 804.01 376 805 c 2,92,-1
 503 805 l 2,93,94
 511 804.926 511 804.926 516 800 c 0,95,96
 522.005 794.981 522.005 794.981 523 787 c 2,97,-1
 539 682 l 1,98,99
 567 672.985 567 672.985 590 662 c 1,100,-1
 672 722 l 1,101,102
 677 727 677 727 685 727 c 0,103,104
 692.012 726.945 692.012 726.945 699 722 c 1,105,106
 773 653.997 773 653.997 794 625 c 0,107,108
 798.046 621 798.046 621 798 612 c 0,109,110
 798 605 798 605 794 599 c 0,111,112
 786 587 786 587 764 561 c 1,113,114
 743.996 534.997 743.996 534.997 733 520 c 1,115,116
 748 491 748 491 757 465 c 1,117,-1
 861 449 l 2,118,119
 868 447.994 868 447.994 873 441 c 0,120,121
 878 435.001 878 435.001 878 428 c 2,12,-1
EndSplineSet
Validated: 524289
EndChar

StartChar: uniF014
Encoding: 21 61460 20
Width: 803
LayerCount: 5
Fore
SplineSet
293 457 m 2,0,-1
 293 128 l 2,1,2
 293 120 293 120 288 115 c 128,-1,3
 283 110 283 110 274 110 c 2,4,-1
 238 110 l 2,5,6
 230 110.001 230 110.001 224 115 c 0,7,8
 218.994 120 218.994 120 219 128 c 2,9,-1
 219 457 l 2,10,11
 219 465.01 219 465.01 224 470 c 128,-1,12
 229 475.014 229 475.014 238 475 c 2,13,-1
 274 475 l 2,14,15
 282.002 475 282.002 475 288 470 c 0,16,17
 293.007 465 293.007 465 293 457 c 2,0,-1
439 457 m 2,18,-1
 439 128 l 2,19,20
 439 120 439 120 434 115 c 128,-1,21
 429 110 429 110 421 110 c 2,22,-1
 384 110 l 2,23,24
 376 110.001 376 110.001 371 115 c 128,-1,25
 366 120 366 120 366 128 c 2,26,-1
 366 457 l 2,27,28
 366.008 465.01 366.008 465.01 371 470 c 128,-1,29
 376.003 475.014 376.003 475.014 384 475 c 2,30,-1
 421 475 l 2,31,32
 429.002 475 429.002 475 434 470 c 128,-1,33
 439.006 465 439.006 465 439 457 c 2,18,-1
585 457 m 2,34,-1
 585 128 l 2,35,36
 584.947 120 584.947 120 580 115 c 128,-1,37
 574.999 110 574.999 110 567 110 c 2,38,-1
 530 110 l 2,39,40
 521.99 110.001 521.99 110.001 517 115 c 128,-1,41
 512 120 512 120 512 128 c 2,42,-1
 512 457 l 2,43,44
 512 465.01 512 465.01 517 470 c 128,-1,45
 522 475.014 522 475.014 530 475 c 2,46,-1
 567 475 l 2,47,48
 575 475 575 475 580 470 c 128,-1,49
 585 465 585 465 585 457 c 2,34,-1
658 43 m 2,50,-1
 658 585 l 1,51,-1
 146 585 l 1,52,-1
 146 43 l 2,53,54
 146 31 146 31 151 20 c 0,55,56
 155 10 155 10 159 5 c 128,-1,57
 163 0 163 0 165 0 c 2,58,-1
 640 0 l 2,59,60
 642 0 642 0 646 5 c 128,-1,61
 650.02 10 650.02 10 654 20 c 0,62,63
 658.026 31 658.026 31 658 43 c 2,50,-1
274 658 m 1,64,-1
 530 658 l 1,65,-1
 503 725 l 1,66,67
 499 730 499 730 494 731 c 1,68,-1
 312 731 l 1,69,70
 306.001 730 306.001 730 302 725 c 1,71,-1
 274 658 l 1,64,-1
805 640 m 2,72,-1
 805 603 l 2,73,74
 804.926 594.986 804.926 594.986 800 590 c 128,-1,75
 795.014 584.987 795.014 584.987 786 585 c 2,76,-1
 731 585 l 1,77,-1
 731 43 l 2,78,79
 730.995 -4 730.995 -4 705 -39 c 0,80,81
 677.998 -74 677.998 -74 640 -73 c 1,82,-1
 165 -73 l 2,83,84
 127 -73 127 -73 100 -40 c 0,85,86
 73 -6 73 -6 73 41 c 2,87,-1
 73 585 l 1,88,-1
 18 585 l 2,89,90
 10 585 10 585 5 590 c 128,-1,91
 0 595 0 595 0 603 c 2,92,-1
 0 640 l 2,93,94
 0 648 0 648 5 653 c 128,-1,95
 10 658 10 658 18 658 c 2,96,-1
 195 658 l 1,97,-1
 234 754 l 2,98,99
 242 776 242 776 265 790 c 0,100,101
 288.002 805 288.002 805 311 805 c 2,102,-1
 494 805 l 2,103,104
 517.003 805 517.003 805 539 790 c 0,105,106
 562 775 562 775 569 754 c 1,107,-1
 609 658 l 1,108,-1
 786 658 l 2,109,110
 794 658.002 794 658.002 800 653 c 0,111,112
 805 647.985 805 647.985 805 640 c 2,72,-1
EndSplineSet
Validated: 524321
EndChar

StartChar: uniF015
Encoding: 22 61461 21
Width: 950
LayerCount: 5
Fore
SplineSet
805 311 m 2,0,-1
 805 37 l 2,1,2
 804.992 22 804.992 22 794 11 c 128,-1,3
 782.991 0 782.991 0 768 0 c 2,4,-1
 549 0 l 1,5,-1
 549 219 l 1,6,-1
 402 219 l 1,7,-1
 402 0 l 1,8,-1
 183 0 l 2,9,10
 168 0 168 0 157 11 c 128,-1,11
 146 22 146 22 146 37 c 2,12,-1
 146 311 l 1,13,-1
 146 312 l 1,14,-1
 146 314 l 1,15,-1
 475 585 l 1,16,-1
 804 314 l 2,17,18
 804.982 313 804.982 313 805 311 c 2,0,-1
932 350 m 2,19,-1
 897 308 l 2,20,21
 893 303 893 303 885 302 c 1,22,-1
 883 302 l 2,23,24
 876 302 876 302 870 306 c 2,25,-1
 475 636 l 1,26,-1
 80 306 l 1,27,28
 72.9998 301.991 72.9998 301.991 67 302 c 0,29,30
 60 303 60 303 54 308 c 1,31,-1
 18 350 l 2,32,33
 14 356 14 356 15 364 c 128,-1,34
 16 372 16 372 22 376 c 2,35,-1
 432 718 l 2,36,37
 450 733 450 733 475 733 c 0,38,39
 501.001 733 501.001 733 519 718 c 2,40,-1
 658 602 l 1,41,-1
 658 713 l 2,42,43
 658 721 658 721 664 726 c 0,44,45
 669 731 669 731 677 731 c 2,46,-1
 786 731 l 2,47,48
 794 730.991 794 730.991 800 726 c 0,49,50
 805 720.991 805 720.991 805 713 c 2,51,-1
 805 480 l 1,52,-1
 930 376 l 2,53,54
 936 372 936 372 936 364 c 128,-1,55
 936 356 936 356 932 350 c 2,19,-1
EndSplineSet
Validated: 524289
EndChar

StartChar: uniF016
Encoding: 23 61462 22
Width: 731
LayerCount: 5
Fore
SplineSet
73 0 m 1,0,-1
 658 0 l 1,1,-1
 658 439 l 1,2,-1
 421 439 l 2,3,4
 398 439 398 439 382 455 c 128,-1,5
 365.995 471 365.995 471 366 494 c 2,6,-1
 366 731 l 1,7,-1
 73 731 l 1,8,-1
 73 0 l 1,0,-1
439 512 m 1,9,-1
 609 512 l 1,10,-1
 439 683 l 1,11,-1
 439 512 l 1,9,-1
731 439 m 2,12,-1
 731 -18 l 2,13,14
 731 -41 731 -41 716 -57 c 0,15,16
 700 -72.9999 700 -72.9999 677 -73 c 2,17,-1
 55 -73 l 2,18,19
 32 -73 32 -73 16 -57 c 128,-1,20
 0 -41 0 -41 0 -18 c 2,21,-1
 0 750 l 2,22,23
 0 773 0 773 16 788 c 0,24,25
 32 804.01 32 804.01 55 805 c 2,26,-1
 366 805 l 2,27,28
 389.002 804.992 389.002 804.992 416 794 c 0,29,30
 444 782.995 444 782.995 460 766 c 2,31,-1
 692 532 l 2,32,33
 708.009 516 708.009 516 720 489 c 0,34,35
 731 462 731 462 731 439 c 2,12,-1
EndSplineSet
Validated: 524321
EndChar

StartChar: uniF017
Encoding: 24 61463 23
Width: 877
LayerCount: 5
Fore
SplineSet
622 347 m 2,0,-1
 622 311 l 2,1,2
 622 303.996 622 303.996 616 298 c 0,3,4
 610.99 293 610.99 293 603 293 c 2,5,-1
 384 293 l 2,6,7
 376.995 293.003 376.995 293.003 371 298 c 0,8,9
 366 303.003 366 303.003 366 311 c 2,10,-1
 366 567 l 2,11,12
 366.008 574.012 366.008 574.012 371 580 c 0,13,14
 376.003 585 376.003 585 384 585 c 2,15,-1
 421 585 l 2,16,17
 428 584.947 428 584.947 433 580 c 128,-1,18
 438 574.999 438 574.999 439 567 c 1,19,-1
 439 366 l 1,20,-1
 603 366 l 2,21,22
 610.016 366 610.016 366 616 360 c 128,-1,23
 622 353.996 622 353.996 622 347 c 2,0,-1
731 366 m 128,-1,25
 731 425.001 731 425.001 709 479 c 1,26,27
 685 533 685 533 646 572 c 0,28,29
 606 612 606 612 552 635 c 0,30,31
 498 659 498 659 439 658 c 0,32,33
 380 657.992 380 657.992 326 635 c 0,34,35
 272 611 272 611 232 572 c 0,36,37
 192 532 192 532 169 479 c 0,38,39
 145 425 145 425 146 366 c 0,40,41
 146 307 146 307 169 252 c 1,42,43
 193 198 193 198 232 159 c 0,44,45
 272 119 272 119 326 96 c 0,46,47
 380.001 72 380.001 72 439 73 c 0,48,49
 498 73.0001 498 73.0001 552 96 c 0,50,51
 606.001 120 606.001 120 646 159 c 0,52,53
 686 199 686 199 709 252 c 1,54,24
 731.009 307 731.009 307 731 366 c 128,-1,25
878 366 m 128,-1,56
 877.993 246 877.993 246 819 145 c 0,57,58
 761 45 761 45 659 -14 c 0,59,60
 559 -72 559 -72 439 -73 c 0,61,62
 319 -73 319 -73 218 -14 c 0,63,64
 118 44 118 44 58 145 c 1,65,66
 0 245 0 245 0 366 c 0,67,68
 0 486 0 486 58 586 c 128,-1,69
 116 686 116 686 218 745 c 0,70,71
 318 803 318 803 439 805 c 1,72,73
 559 805 559 805 659 745 c 1,74,75
 759.002 687 759.002 687 819 586 c 0,76,55
 878 486 878 486 878 366 c 128,-1,56
EndSplineSet
Validated: 524321
EndChar

StartChar: uniF018
Encoding: 25 61464 24
Width: 1096
LayerCount: 5
Fore
SplineSet
635 308 m 1,0,-1
 635 311 l 1,1,-1
 622 494 l 2,2,3
 621 501 621 501 614 507 c 0,4,5
 608 512.012 608 512.012 602 512 c 2,6,-1
 496 512 l 2,7,8
 488.993 512 488.993 512 482 507 c 0,9,10
 476 502 476 502 476 494 c 2,11,-1
 462 311 l 1,12,-1
 462 308 l 2,13,14
 461.008 300.998 461.008 300.998 467 297 c 0,15,16
 472 292.995 472 292.995 479 293 c 2,17,-1
 618 293 l 2,18,19
 625.01 293 625.01 293 631 297 c 0,20,21
 636 301 636 301 635 308 c 1,0,-1
1069 42 m 0,22,23
 1069 0 1069 0 1042 0 c 2,24,-1
 640 0 l 2,25,26
 647 0 647 0 652 5 c 128,-1,27
 657 10 657 10 657 18 c 2,28,-1
 646 165 l 2,29,30
 645 172 645 172 639 177 c 128,-1,31
 633 182 633 182 627 183 c 1,32,-1
 471 183 l 2,33,34
 463.998 183 463.998 183 458 177 c 0,35,36
 452 172 452 172 452 165 c 2,37,-1
 440 18 l 2,38,39
 439.018 11 439.018 11 444 5 c 0,40,41
 449.003 0 449.003 0 457 0 c 2,42,-1
 55 0 l 2,43,44
 28 0 28 0 29 42 c 0,45,46
 29 73 29 73 43 108 c 2,47,-1
 282 705 l 2,48,49
 286 716 286 716 297 723 c 1,50,51
 307 731 307 731 318 731 c 2,52,-1
 512 731 l 2,53,54
 504.993 730.991 504.993 730.991 499 726 c 128,-1,55
 493 720.991 493 720.991 493 713 c 2,56,-1
 484 603 l 2,57,58
 483.03 594.986 483.03 594.986 488 590 c 128,-1,59
 493.002 584.987 493.002 584.987 501 585 c 2,60,-1
 596 585 l 2,61,62
 603 585 603 585 608 590 c 128,-1,63
 613 595 613 595 613 603 c 2,64,-1
 604 713 l 2,65,66
 603 720.022 603 720.022 598 726 c 1,67,68
 592 731 592 731 585 731 c 2,69,-1
 779 731 l 2,70,71
 790 731.008 790 731.008 801 723 c 0,72,73
 811.022 715 811.022 715 815 705 c 2,74,-1
 1054 108 l 2,75,76
 1069 73 1069 73 1069 42 c 0,22,23
EndSplineSet
Validated: 524321
EndChar

StartChar: uniF019
Encoding: 26 61465 25
Width: 950
LayerCount: 5
Fore
SplineSet
765 417 m 0,0,1
 774 393 774 393 757 377 c 2,2,-1
 501 121 l 2,3,4
 490.998 110 490.998 110 475 110 c 0,5,6
 459.998 110.001 459.998 110.001 450 121 c 2,7,-1
 194 377 l 2,8,9
 177 393 177 393 185 417 c 1,10,11
 194 440.001 194 440.001 219 439 c 1,12,-1
 366 439 l 1,13,-1
 366 695 l 2,14,15
 366.008 710 366.008 710 377 721 c 128,-1,16
 388.001 732 388.001 732 402 731 c 1,17,-1
 549 731 l 2,18,19
 564.002 731 564.002 731 574 721 c 0,20,21
 585 710 585 710 585 695 c 2,22,-1
 585 439 l 1,23,-1
 731 439 l 1,24,25
 756.006 440 756.006 440 765 417 c 0,0,1
933 293 m 2,26,27
 941 293 941 293 946 288 c 128,-1,28
 951 283 951 283 951 274 c 2,29,-1
 951 -55 l 2,30,31
 950.929 -63 950.929 -63 946 -68 c 128,-1,32
 940.986 -73 940.986 -73 933 -73 c 2,33,-1
 18 -73 l 2,34,35
 10 -73.0006 10 -73.0006 5 -68 c 128,-1,36
 0 -63.0001 0 -63.0001 0 -55 c 2,37,-1
 0 274 l 2,38,39
 0 282.002 0 282.002 5 288 c 0,40,41
 10 293.007 10 293.007 18 293 c 2,42,-1
 128 293 l 2,43,44
 136 293 136 293 141 288 c 128,-1,45
 146 283 146 283 146 274 c 2,46,-1
 146 73 l 1,47,-1
 805 73 l 1,48,-1
 805 274 l 2,49,50
 805 282.002 805 282.002 810 288 c 0,51,52
 815 293.007 815 293.007 823 293 c 2,53,-1
 933 293 l 2,26,27
EndSplineSet
Validated: 524321
EndChar

StartChar: uniF01A
Encoding: 27 61466 26
Width: 877
LayerCount: 5
Fore
SplineSet
640 347 m 0,0,1
 640 340.001 640 340.001 634 334 c 2,2,-1
 452 152 l 2,3,4
 447 147 447 147 439 146 c 0,5,6
 431 146 431 146 426 152 c 2,7,-1
 243 334 l 2,8,9
 237.998 339.008 237.998 339.008 238 347 c 0,10,11
 238 354 238 354 243 360 c 0,12,13
 248 365 248 365 256 366 c 1,14,-1
 366 366 l 1,15,-1
 366 567 l 2,16,17
 366.008 574.012 366.008 574.012 371 580 c 0,18,19
 376.003 585 376.003 585 384 585 c 2,20,-1
 494 585 l 2,21,22
 501 584.947 501 584.947 507 580 c 0,23,24
 512.012 574.999 512.012 574.999 512 567 c 2,25,-1
 512 366 l 1,26,-1
 622 366 l 2,27,28
 630 366 630 366 635 360 c 0,29,30
 640 355 640 355 640 347 c 0,0,1
731 366 m 128,-1,32
 731 425.001 731 425.001 709 479 c 1,33,34
 685 533 685 533 646 572 c 0,35,36
 606 612 606 612 552 635 c 0,37,38
 498 659 498 659 439 658 c 0,39,40
 380 657.992 380 657.992 326 635 c 0,41,42
 272 611 272 611 232 572 c 0,43,44
 192 532 192 532 169 479 c 0,45,46
 145 425 145 425 146 366 c 0,47,48
 146 307 146 307 169 252 c 1,49,50
 193 198 193 198 232 159 c 0,51,52
 272 119 272 119 326 96 c 0,53,54
 380.001 72 380.001 72 439 73 c 0,55,56
 498 73.0001 498 73.0001 552 96 c 0,57,58
 606.001 120 606.001 120 646 159 c 0,59,60
 686 199 686 199 709 252 c 1,61,31
 731.009 307 731.009 307 731 366 c 128,-1,32
878 366 m 128,-1,63
 877.993 246 877.993 246 819 145 c 0,64,65
 761 45 761 45 659 -14 c 0,66,67
 559 -72 559 -72 439 -73 c 0,68,69
 319 -73 319 -73 218 -14 c 0,70,71
 118 44 118 44 58 145 c 1,72,73
 0 245 0 245 0 366 c 0,74,75
 0 486 0 486 58 586 c 128,-1,76
 116 686 116 686 218 745 c 0,77,78
 318 803 318 803 439 805 c 1,79,80
 559 805 559 805 659 745 c 1,81,82
 759.002 687 759.002 687 819 586 c 0,83,62
 878 486 878 486 878 366 c 128,-1,63
EndSplineSet
Validated: 524321
EndChar

StartChar: uniF01B
Encoding: 28 61467 27
Width: 877
LayerCount: 5
Fore
SplineSet
640 384 m 0,0,1
 639.985 376.995 639.985 376.995 635 371 c 0,2,3
 629.982 366 629.982 366 622 366 c 2,4,-1
 512 366 l 1,5,-1
 512 165 l 2,6,7
 512 158 512 158 507 152 c 0,8,9
 502 147 502 147 494 146 c 1,10,-1
 384 146 l 2,11,12
 376.995 146 376.995 146 371 152 c 0,13,14
 366 157 366 157 366 165 c 2,15,-1
 366 366 l 1,16,-1
 256 366 l 2,17,18
 247.999 366.008 247.999 366.008 243 371 c 128,-1,19
 237.998 376.003 237.998 376.003 238 384 c 0,20,21
 238 391 238 391 244 397 c 2,22,-1
 426 580 l 2,23,24
 431.005 585 431.005 585 439 585 c 128,-1,25
 447.01 584.947 447.01 584.947 452 580 c 2,26,-1
 635 397 l 2,27,28
 640 392 640 392 640 384 c 0,0,1
731 366 m 128,-1,30
 731 425.001 731 425.001 709 479 c 1,31,32
 685 533 685 533 646 572 c 0,33,34
 606 612 606 612 552 635 c 0,35,36
 498 659 498 659 439 658 c 0,37,38
 380 657.992 380 657.992 326 635 c 0,39,40
 272 611 272 611 232 572 c 0,41,42
 192 532 192 532 169 479 c 0,43,44
 145 425 145 425 146 366 c 0,45,46
 146 307 146 307 169 252 c 1,47,48
 193 198 193 198 232 159 c 0,49,50
 272 119 272 119 326 96 c 0,51,52
 380.001 72 380.001 72 439 73 c 0,53,54
 498 73.0001 498 73.0001 552 96 c 0,55,56
 606.001 120 606.001 120 646 159 c 0,57,58
 686 199 686 199 709 252 c 1,59,29
 731.009 307 731.009 307 731 366 c 128,-1,30
878 366 m 128,-1,61
 877.993 246 877.993 246 819 145 c 0,62,63
 761 45 761 45 659 -14 c 0,64,65
 559 -72 559 -72 439 -73 c 0,66,67
 319 -73 319 -73 218 -14 c 0,68,69
 118 44 118 44 58 145 c 1,70,71
 0 245 0 245 0 366 c 0,72,73
 0 486 0 486 58 586 c 128,-1,74
 116 686 116 686 218 745 c 0,75,76
 318 803 318 803 439 805 c 1,77,78
 559 805 559 805 659 745 c 1,79,80
 759.002 687 759.002 687 819 586 c 0,81,60
 878 486 878 486 878 366 c 128,-1,61
EndSplineSet
Validated: 524321
EndChar

StartChar: uniF01C
Encoding: 29 61468 28
Width: 877
LayerCount: 5
Fore
SplineSet
585 329 m 1,0,-1
 765 329 l 1,1,2
 764 331.008 764 331.008 764 334 c 0,3,4
 763 337 763 337 762 338 c 2,5,-1
 641 622 l 1,6,-1
 237 622 l 1,7,-1
 116 338 l 2,8,9
 114.998 337 114.998 337 114 334 c 128,-1,10
 112.997 331 112.997 331 113 329 c 1,11,-1
 293 329 l 1,12,-1
 347 219 l 1,13,-1
 530 219 l 1,14,-1
 585 329 l 1,0,-1
878 312 m 2,15,-1
 878 37 l 2,16,17
 877.967 22 877.967 22 867 11 c 128,-1,18
 855.994 0 855.994 0 841 0 c 2,19,-1
 37 0 l 2,20,21
 22 0 22 0 11 11 c 128,-1,22
 0 22 0 22 0 37 c 2,23,-1
 0 312 l 2,24,25
 0 348 0 348 14 382 c 2,26,-1
 151 697 l 2,27,28
 157 711 157 711 171 722 c 1,29,30
 186 731 186 731 201 731 c 2,31,-1
 677 731 l 2,32,33
 692 731 692 731 707 722 c 128,-1,34
 722 713 722 713 727 697 c 1,35,-1
 863 382 l 2,36,37
 878 347.999 878 347.999 878 312 c 2,15,-1
EndSplineSet
Validated: 524289
EndChar

StartChar: uniF01D
Encoding: 30 61469 29
Width: 877
LayerCount: 5
Fore
SplineSet
658 366 m 128,-1,1
 658 343.997 658 343.997 639 334 c 2,2,-1
 347 169 l 2,3,4
 339 165 339 165 329 165 c 0,5,6
 320 165 320 165 311 170 c 0,7,8
 293 180 293 180 293 201 c 2,9,-1
 293 530 l 2,10,11
 293 552.004 293 552.004 311 562 c 1,12,13
 328 573 328 573 347 562 c 2,14,-1
 639 397 l 1,15,0
 658.01 387.998 658.01 387.998 658 366 c 128,-1,1
731 366 m 128,-1,17
 731 425.001 731 425.001 709 479 c 1,18,19
 685 533 685 533 646 572 c 0,20,21
 606 612 606 612 552 635 c 0,22,23
 498 659 498 659 439 658 c 0,24,25
 380 657.992 380 657.992 326 635 c 0,26,27
 272 611 272 611 232 572 c 0,28,29
 192 532 192 532 169 479 c 0,30,31
 145 425 145 425 146 366 c 0,32,33
 146 307 146 307 169 252 c 1,34,35
 193 198 193 198 232 159 c 0,36,37
 272 119 272 119 326 96 c 0,38,39
 380.001 72 380.001 72 439 73 c 0,40,41
 498 73.0001 498 73.0001 552 96 c 0,42,43
 606.001 120 606.001 120 646 159 c 0,44,45
 686 199 686 199 709 252 c 1,46,16
 731.009 307 731.009 307 731 366 c 128,-1,17
878 366 m 128,-1,48
 877.993 246 877.993 246 819 145 c 0,49,50
 761 45 761 45 659 -14 c 0,51,52
 559 -72 559 -72 439 -73 c 0,53,54
 319 -73 319 -73 218 -14 c 0,55,56
 118 44 118 44 58 145 c 1,57,58
 0 245 0 245 0 366 c 0,59,60
 0 486 0 486 58 586 c 128,-1,61
 116 686 116 686 218 745 c 0,62,63
 318 803 318 803 439 805 c 1,64,65
 559 805 559 805 659 745 c 1,66,67
 759.002 687 759.002 687 819 586 c 0,68,47
 878 486 878 486 878 366 c 128,-1,48
EndSplineSet
Validated: 524321
EndChar

StartChar: uniF01E
Encoding: 31 61470 30
Width: 877
LayerCount: 5
Fore
SplineSet
878 731 m 2,0,-1
 878 475 l 2,1,2
 877.967 459.998 877.967 459.998 867 450 c 0,3,4
 855.994 439 855.994 439 841 439 c 2,5,-1
 585 439 l 2,6,7
 561 439.002 561 439.002 552 462 c 128,-1,8
 543.011 485 543.011 485 559 501 c 2,9,-1
 638 580 l 1,10,11
 553 658 553 658 439 658 c 0,12,13
 380 657.992 380 657.992 326 635 c 0,14,15
 272 611 272 611 232 572 c 0,16,17
 192 532 192 532 169 479 c 0,18,19
 145 425 145 425 146 366 c 0,20,21
 146 307 146 307 169 252 c 1,22,23
 193 198 193 198 232 159 c 0,24,25
 272 119 272 119 326 96 c 0,26,27
 380.001 72 380.001 72 439 73 c 1,28,29
 535 73 535 73 612 130 c 128,-1,30
 689 187 689 187 718 280 c 0,31,32
 722.003 293 722.003 293 735 293 c 2,33,-1
 849 293 l 2,34,35
 858 292.993 858 292.993 863 286 c 0,36,37
 869.029 278.999 869.029 278.999 867 270 c 0,38,39
 844 170 844 170 783 92 c 0,40,41
 720.999 14 720.999 14 631 -30 c 0,42,43
 541 -73 541 -73 439 -73 c 0,44,45
 350 -73 350 -73 268 -38 c 0,46,47
 187 -3 187 -3 129 55 c 128,-1,48
 71 113 71 113 35 196 c 0,49,50
 0 277 0 277 0 366 c 128,-1,51
 0 455 0 455 35 536 c 128,-1,52
 70 617 70 617 129 676 c 0,53,54
 187 734.002 187 734.002 268 770 c 0,55,56
 349 805 349 805 439 805 c 0,57,58
 523 804.991 523 804.991 601 773 c 0,59,60
 680.001 741 680.001 741 741 683 c 1,61,-1
 815 757 l 2,62,63
 831.005 774 831.005 774 855 765 c 1,64,65
 878 755 878 755 878 731 c 2,0,-1
EndSplineSet
Validated: 524321
EndChar

StartChar: uniF021
Encoding: 32 61473 31
Width: 877
LayerCount: 5
Fore
SplineSet
863 274 m 2,0,-1
 863 270 l 1,1,2
 826 116 826 116 710 22 c 0,3,4
 593 -73 593 -73 436 -73 c 0,5,6
 353 -73 353 -73 275 -42 c 0,7,8
 197 -10 197 -10 136 48 c 1,9,-1
 62 -26 l 2,10,11
 51 -37 51 -37 37 -37 c 0,12,13
 22 -37 22 -37 11 -26 c 128,-1,14
 0 -15 0 -15 0 0 c 2,15,-1
 0 256 l 2,16,17
 0 271.002 0 271.002 11 282 c 128,-1,18
 22 293.003 22 293.003 37 293 c 2,19,-1
 293 293 l 2,20,21
 308 293 308 293 318 282 c 0,22,23
 329.005 271 329.005 271 329 256 c 128,-1,24
 329 241 329 241 318 230 c 2,25,-1
 240 152 l 1,26,27
 281 114 281 114 332 94 c 128,-1,28
 383.001 74 383.001 74 439 73 c 1,29,30
 516.001 73 516.001 73 582 111 c 1,31,32
 649.001 148 649.001 148 688 213 c 0,33,34
 694 222 694 222 718 280 c 1,35,36
 722.003 293 722.003 293 735 293 c 2,37,-1
 845 293 l 2,38,39
 852.003 293 852.003 293 858 287 c 0,40,41
 863 280.996 863 280.996 863 274 c 2,0,-1
878 731 m 2,42,-1
 878 475 l 2,43,44
 877.967 459.998 877.967 459.998 867 450 c 0,45,46
 855.994 439 855.994 439 841 439 c 2,47,-1
 585 439 l 2,48,49
 569.995 439.002 569.995 439.002 559 450 c 128,-1,50
 547.969 461.006 547.969 461.006 549 475 c 1,51,52
 549.011 489.999 549.011 489.999 559 501 c 2,53,-1
 638 580 l 1,54,55
 553 658 553 658 439 658 c 0,56,57
 362 658 362 658 296 622 c 0,58,59
 229 585 229 585 189 519 c 0,60,61
 183 509.999 183 509.999 160 452 c 1,62,63
 156 438.994 156 438.994 142 439 c 2,64,-1
 29 439 l 2,65,66
 22 439.019 22 439.019 15 444 c 1,67,68
 10 449.003 10 449.003 10 457 c 2,69,-1
 10 461 l 1,70,71
 47 615 47 615 165 710 c 0,72,73
 282 805 282 805 439 805 c 0,74,75
 522.001 804.991 522.001 804.991 601 773 c 128,-1,76
 680.001 741 680.001 741 741 683 c 1,77,-1
 815 757 l 2,78,79
 826 768 826 768 841 768 c 128,-1,80
 856 767.973 856 767.973 867 757 c 128,-1,81
 878 746.003 878 746.003 878 731 c 2,42,-1
EndSplineSet
Validated: 524289
EndChar

StartChar: uniF022
Encoding: 33 61474 32
Width: 1024
LayerCount: 5
Fore
SplineSet
219 201 m 2,0,-1
 219 165 l 2,1,2
 218.999 158 218.999 158 214 152 c 0,3,4
 208.999 147 208.999 147 201 146 c 1,5,-1
 165 146 l 2,6,7
 158 146 158 146 152 152 c 0,8,9
 147 157 147 157 146 165 c 1,10,-1
 146 201 l 2,11,12
 146 208.002 146 208.002 152 214 c 0,13,14
 157 219 157 219 165 219 c 2,15,-1
 201 219 l 2,16,17
 208.002 218.999 208.002 218.999 214 214 c 1,18,19
 219 208 219 208 219 201 c 2,0,-1
219 347 m 2,20,-1
 219 311 l 2,21,22
 218.999 303.996 218.999 303.996 214 298 c 0,23,24
 208.999 293 208.999 293 201 293 c 2,25,-1
 165 293 l 2,26,27
 158 293.003 158 293.003 152 298 c 0,28,29
 147 303.003 147 303.003 146 311 c 1,30,-1
 146 347 l 2,31,32
 146 354 146 354 152 360 c 0,33,34
 157 365 157 365 165 366 c 1,35,-1
 201 366 l 2,36,37
 208.002 366 208.002 366 214 360 c 0,38,39
 219 353.996 219 353.996 219 347 c 2,20,-1
219 494 m 2,40,-1
 219 457 l 2,41,42
 218.999 450 218.999 450 214 444 c 0,43,44
 208.999 439 208.999 439 201 439 c 2,45,-1
 165 439 l 2,46,47
 158 439.019 158 439.019 152 444 c 0,48,49
 147 449.003 147 449.003 146 457 c 1,50,-1
 146 494 l 2,51,52
 146 501 146 501 152 507 c 0,53,54
 157 512.012 157 512.012 165 512 c 2,55,-1
 201 512 l 2,56,57
 208.002 512 208.002 512 214 507 c 1,58,59
 219 500.999 219 500.999 219 494 c 2,40,-1
878 201 m 2,60,-1
 878 165 l 2,61,62
 878 158 878 158 872 152 c 0,63,64
 866.985 147 866.985 147 859 146 c 1,65,-1
 311 146 l 2,66,67
 303.996 146 303.996 146 298 152 c 0,68,69
 293 157 293 157 293 165 c 2,70,-1
 293 201 l 2,71,72
 293.003 208.002 293.003 208.002 298 214 c 0,73,74
 303.003 219 303.003 219 311 219 c 2,75,-1
 859 219 l 2,76,77
 866.023 218.999 866.023 218.999 872 214 c 0,78,79
 878 208 878 208 878 201 c 2,60,-1
878 347 m 2,80,-1
 878 311 l 2,81,82
 878 303.996 878 303.996 872 298 c 0,83,84
 866.985 293 866.985 293 859 293 c 2,85,-1
 311 293 l 2,86,87
 303.996 293.003 303.996 293.003 298 298 c 0,88,89
 293 303.003 293 303.003 293 311 c 2,90,-1
 293 347 l 2,91,92
 293.003 354 293.003 354 298 360 c 0,93,94
 303.003 365 303.003 365 311 366 c 1,95,-1
 859 366 l 2,96,97
 866.023 366 866.023 366 872 360 c 128,-1,98
 878 353.996 878 353.996 878 347 c 2,80,-1
878 494 m 2,99,-1
 878 457 l 2,100,101
 878 450 878 450 872 444 c 0,102,103
 866.985 439 866.985 439 859 439 c 2,104,-1
 311 439 l 2,105,106
 303.996 439.019 303.996 439.019 298 444 c 0,107,108
 293 449.003 293 449.003 293 457 c 2,109,-1
 293 494 l 2,110,111
 293.003 501 293.003 501 298 507 c 0,112,113
 303.003 512.012 303.003 512.012 311 512 c 2,114,-1
 859 512 l 2,115,116
 866.023 512 866.023 512 872 507 c 0,117,118
 878 500.999 878 500.999 878 494 c 2,99,-1
951 91 m 2,119,-1
 951 567 l 2,120,121
 951 574.012 951 574.012 945 580 c 0,122,123
 940 585 940 585 933 585 c 2,124,-1
 91 585 l 2,125,126
 84 584.947 84 584.947 79 580 c 128,-1,127
 74 574.999 74 574.999 73 567 c 1,128,-1
 73 91 l 2,129,130
 73 84 73 84 79 79 c 0,131,132
 84 74 84 74 91 73 c 1,133,-1
 933 73 l 2,134,135
 940 73 940 73 945 79 c 1,136,137
 951 84 951 84 951 91 c 2,119,-1
1024 713 m 2,138,-1
 1024 91 l 2,139,140
 1024 53 1024 53 997 27 c 0,141,142
 970 0 970 0 933 0 c 2,143,-1
 91 0 l 2,144,145
 53 0 53 0 27 27 c 0,146,147
 0 54 0 54 0 91 c 2,148,-1
 0 713 l 2,149,150
 0 751 0 751 27 777 c 0,151,152
 54 804.009 54 804.009 91 805 c 2,153,-1
 933 805 l 2,154,155
 971 805 971 805 997 777 c 1,156,157
 1024 750.991 1024 750.991 1024 713 c 2,138,-1
EndSplineSet
Validated: 524289
EndChar

StartChar: uniF023
Encoding: 34 61475 33
Width: 657
LayerCount: 5
Fore
SplineSet
402 293 m 0,0,1
 402 324 402 324 381 344 c 0,2,3
 358.999 366 358.999 366 329 366 c 0,4,5
 298 365.998 298 365.998 278 344 c 1,6,7
 256 322 256 322 256 293 c 0,8,9
 256 271 256 271 267 254 c 128,-1,10
 278.001 237 278.001 237 296 227 c 1,11,-1
 257 96 l 2,12,13
 254 88 254 88 259 81 c 0,14,15
 265 73.9995 265 73.9995 274 73 c 2,16,-1
 384 73 l 2,17,18
 393 72.9999 393 72.9999 399 81 c 0,19,20
 405.005 88 405.005 88 401 96 c 1,21,-1
 362 227 l 1,22,23
 380.002 236 380.002 236 391 254 c 0,24,25
 402.008 271 402.008 271 402 293 c 0,0,1
183 439 m 1,26,-1
 475 439 l 1,27,-1
 475 549 l 2,28,29
 475 609.001 475 609.001 432 652 c 128,-1,30
 388.999 695.006 388.999 695.006 329 695 c 128,-1,31
 269 695 269 695 225 652 c 0,32,33
 182 609 182 609 183 549 c 1,34,-1
 183 439 l 1,26,-1
658 384 m 2,35,-1
 658 55 l 2,36,37
 658 32 658 32 642 16 c 128,-1,38
 626 0 626 0 603 0 c 2,39,-1
 55 0 l 2,40,41
 32 0 32 0 16 16 c 128,-1,42
 0 32 0 32 0 55 c 2,43,-1
 0 384 l 2,44,45
 0 407 0 407 16 423 c 128,-1,46
 32 439 32 439 55 439 c 2,47,-1
 73 439 l 1,48,-1
 73 549 l 2,49,50
 73 654 73 654 148 729 c 0,51,52
 224 805.002 224 805.002 329 805 c 128,-1,53
 434 805 434 805 510 729 c 128,-1,54
 586 653 586 653 585 549 c 1,55,-1
 585 439 l 1,56,-1
 603 439 l 2,57,58
 626 439.001 626 439.001 642 423 c 128,-1,59
 658.016 407 658.016 407 658 384 c 2,35,-1
EndSplineSet
Validated: 524321
EndChar

StartChar: uniF024
Encoding: 35 61476 34
Width: 1024
LayerCount: 5
Fore
SplineSet
183 731 m 0,0,1
 183 689.996 183 689.996 146 669 c 1,2,-1
 146 -55 l 2,3,4
 146 -62 146 -62 141 -68 c 0,5,6
 135.999 -73 135.999 -73 128 -73 c 2,7,-1
 91 -73 l 2,8,9
 84 -73.0006 84 -73.0006 79 -68 c 128,-1,10
 74 -63.0001 74 -63.0001 73 -55 c 1,11,-1
 73 669 l 1,12,13
 36 691.003 36 691.003 37 731 c 0,14,15
 37 762.004 37 762.004 58 783 c 0,16,17
 80 805.006 80 805.006 110 805 c 0,18,19
 141 805 141 805 162 783 c 0,20,21
 183 762 183 762 183 731 c 0,0,1
1024 695 m 2,22,-1
 1024 259 l 2,23,24
 1024 244.999 1024 244.999 1017 237 c 128,-1,25
 1010 228.999 1010 228.999 994 221 c 0,26,27
 871 154 871 154 783 155 c 0,28,29
 747.991 155 747.991 155 713 168 c 1,30,31
 676.998 180 676.998 180 651 195 c 0,32,33
 624 210 624 210 585 222 c 0,34,35
 545 234 545 234 504 234 c 0,36,37
 394 234 394 234 239 152 c 0,38,39
 230 147 230 147 219 146 c 1,40,41
 204 146 204 146 194 157 c 0,42,43
 182.999 168 182.999 168 183 183 c 2,44,-1
 183 607 l 2,45,46
 183 625.003 183 625.003 201 638 c 0,47,48
 213 646 213 646 246 663 c 0,49,50
 381 732 381 732 486 731 c 0,51,52
 547 731 547 731 600 715 c 128,-1,53
 653 699 653 699 726 665 c 0,54,55
 748.004 654 748.004 654 776 653 c 1,56,57
 807.004 653.007 807.004 653.007 843 666 c 0,58,59
 879 678 879 678 906 692 c 0,60,61
 933 707.007 933 707.007 956 720 c 1,62,63
 980.004 732 980.004 732 987 731 c 1,64,65
 1002 731 1002 731 1013 721 c 0,66,67
 1024 710 1024 710 1024 695 c 2,22,-1
EndSplineSet
Validated: 524321
EndChar

StartChar: uniF025
Encoding: 36 61477 35
Width: 950
LayerCount: 5
Fore
SplineSet
951 372 m 0,0,1
 950.986 277 950.986 277 916 193 c 1,2,-1
 905 164 l 1,3,-1
 800 145 l 1,4,5
 788 98 788 98 748 68 c 1,6,7
 709 37 709 37 658 37 c 1,8,-1
 658 18 l 2,9,10
 658.002 10 658.002 10 653 5 c 128,-1,11
 647.985 0 647.985 0 640 0 c 2,12,-1
 603 0 l 2,13,14
 594.986 0 594.986 0 590 5 c 128,-1,15
 584.987 10 584.987 10 585 18 c 2,16,-1
 585 347 l 2,17,18
 585 355.003 585 355.003 590 360 c 128,-1,19
 595 365 595 365 603 366 c 1,20,-1
 640 366 l 2,21,22
 648 366 648 366 653 360 c 0,23,24
 658 355 658 355 658 347 c 2,25,-1
 658 329 l 1,26,27
 699 329 699 329 732 309 c 0,28,29
 766.004 289 766.004 289 785 254 c 1,30,-1
 824 261 l 1,31,32
 840.01 315 840.01 315 841 372 c 0,33,34
 840.996 457 840.996 457 791 530 c 1,35,36
 740.999 605 740.999 605 655 650 c 0,37,38
 570 695 570 695 475 695 c 128,-1,39
 380 695 380 695 295 650 c 128,-1,40
 210 605 210 605 160 530 c 128,-1,41
 110 455 110 455 110 372 c 0,42,43
 110 316 110 316 126 261 c 1,44,-1
 165 254 l 1,45,46
 184 288 184 288 218 309 c 0,47,48
 252 329 252 329 293 329 c 1,49,-1
 293 347 l 2,50,51
 293.003 355.003 293.003 355.003 298 360 c 128,-1,52
 303.003 365 303.003 365 311 366 c 1,53,-1
 347 366 l 2,54,55
 355.003 366 355.003 366 360 360 c 0,56,57
 365 355 365 355 366 347 c 1,58,-1
 366 18 l 2,59,60
 366 10 366 10 360 5 c 0,61,62
 355 0 355 0 347 0 c 2,63,-1
 311 0 l 2,64,65
 303 0 303 0 298 5 c 128,-1,66
 293 10 293 10 293 18 c 2,67,-1
 293 37 l 1,68,69
 243 37 243 37 203 68 c 0,70,71
 164 99 164 99 152 145 c 1,72,-1
 46 164 l 1,73,-1
 34 193 l 1,74,75
 0 278 0 278 0 372 c 0,76,77
 0 458 0 458 38 538 c 128,-1,78
 76 618 76 618 140 676 c 0,79,80
 203 734.002 203 734.002 293 770 c 0,81,82
 381 805 381 805 475 805 c 0,83,84
 570 804.991 570 804.991 658 770 c 128,-1,85
 746.001 734.998 746.001 734.998 810 676 c 0,86,87
 873 618 873 618 912 538 c 128,-1,88
 951 458 951 458 951 372 c 0,0,1
EndSplineSet
Validated: 524289
EndChar

StartChar: uniF026
Encoding: 37 61478 36
Width: 438
LayerCount: 5
Fore
SplineSet
439 677 m 2,0,-1
 439 55 l 2,1,2
 439 40 439 40 428 29 c 128,-1,3
 417 18 417 18 402 18 c 128,-1,4
 386.998 18 386.998 18 377 29 c 2,5,-1
 186 219 l 1,6,-1
 37 219 l 2,7,8
 22 219 22 219 11 230 c 128,-1,9
 0 241 0 241 0 256 c 2,10,-1
 0 475 l 2,11,12
 0 489.999 0 489.999 11 501 c 128,-1,13
 22 512.006 22 512.006 37 512 c 2,14,-1
 186 512 l 1,15,-1
 377 702 l 2,16,17
 388.001 713 388.001 713 402 713 c 0,18,19
 417.002 712.984 417.002 712.984 428 702 c 0,20,21
 439.004 692 439.004 692 439 677 c 2,0,-1
EndSplineSet
Validated: 524289
EndChar

StartChar: uniF027
Encoding: 38 61479 37
Width: 657
LayerCount: 5
Fore
SplineSet
439 677 m 2,0,-1
 439 55 l 2,1,2
 439 40 439 40 428 29 c 128,-1,3
 417 18 417 18 402 18 c 128,-1,4
 386.998 18 386.998 18 377 29 c 2,5,-1
 186 219 l 1,6,-1
 37 219 l 2,7,8
 22 219 22 219 11 230 c 128,-1,9
 0 241 0 241 0 256 c 2,10,-1
 0 475 l 2,11,12
 0 489.999 0 489.999 11 501 c 128,-1,13
 22 512.006 22 512.006 37 512 c 2,14,-1
 186 512 l 1,15,-1
 377 702 l 2,16,17
 388.001 713 388.001 713 402 713 c 0,18,19
 417.002 712.984 417.002 712.984 428 702 c 0,20,21
 439.004 692 439.004 692 439 677 c 2,0,-1
658 366 m 128,-1,23
 658 323 658 323 634 285 c 0,24,25
 609 247 609 247 569 231 c 0,26,27
 563.003 228 563.003 228 555 228 c 0,28,29
 539.995 228 539.995 228 529 240 c 1,30,31
 517.987 250.001 517.987 250.001 519 265 c 0,32,33
 519 277 519 277 525 286 c 1,34,35
 532 294.001 532 294.001 543 300 c 0,36,37
 552.002 306 552.002 306 562 313 c 0,38,39
 571 320 571 320 579 333 c 0,40,41
 586 346 586 346 585 366 c 0,42,43
 585 385 585 385 579 398 c 0,44,45
 572 411 572 411 562 419 c 0,46,47
 553 426 553 426 543 432 c 0,48,49
 534 438.002 534 438.002 525 446 c 1,50,51
 518 454.003 518 454.003 519 466 c 0,52,53
 519.006 481 519.006 481 529 493 c 1,54,55
 540 503 540 503 555 503 c 0,56,57
 563 503 563 503 569 500 c 0,58,59
 609.002 485 609.002 485 634 446 c 0,60,22
 658 408.999 658 408.999 658 366 c 128,-1,23
EndSplineSet
Validated: 524321
EndChar

StartChar: uniF028
Encoding: 39 61480 38
Width: 950
LayerCount: 5
Fore
SplineSet
439 677 m 2,0,-1
 439 55 l 2,1,2
 439 40 439 40 428 29 c 128,-1,3
 417 18 417 18 402 18 c 128,-1,4
 386.998 18 386.998 18 377 29 c 2,5,-1
 186 219 l 1,6,-1
 37 219 l 2,7,8
 22 219 22 219 11 230 c 128,-1,9
 0 241 0 241 0 256 c 2,10,-1
 0 475 l 2,11,12
 0 489.999 0 489.999 11 501 c 128,-1,13
 22 512.006 22 512.006 37 512 c 2,14,-1
 186 512 l 1,15,-1
 377 702 l 2,16,17
 388.001 713 388.001 713 402 713 c 0,18,19
 417.002 712.984 417.002 712.984 428 702 c 0,20,21
 439.004 692 439.004 692 439 677 c 2,0,-1
658 366 m 128,-1,23
 658 323 658 323 634 285 c 0,24,25
 609 247 609 247 569 231 c 0,26,27
 563.003 228 563.003 228 555 228 c 0,28,29
 539.995 228 539.995 228 529 240 c 1,30,31
 517.987 250.001 517.987 250.001 519 265 c 0,32,33
 519 277 519 277 525 286 c 1,34,35
 532 294.001 532 294.001 543 300 c 0,36,37
 552.002 306 552.002 306 562 313 c 0,38,39
 571 320 571 320 579 333 c 0,40,41
 586 346 586 346 585 366 c 0,42,43
 585 385 585 385 579 398 c 0,44,45
 572 411 572 411 562 419 c 0,46,47
 553 426 553 426 543 432 c 0,48,49
 534 438.002 534 438.002 525 446 c 1,50,51
 518 454.003 518 454.003 519 466 c 0,52,53
 519.006 481 519.006 481 529 493 c 1,54,55
 540 503 540 503 555 503 c 0,56,57
 563 503 563 503 569 500 c 0,58,59
 609.002 485 609.002 485 634 446 c 0,60,22
 658 408.999 658 408.999 658 366 c 128,-1,23
805 366 m 128,-1,62
 805 279 805 279 756 204 c 0,63,64
 707.999 130 707.999 130 628 96 c 0,65,66
 621 93 621 93 613 94 c 1,67,68
 597.996 94 597.996 94 587 104 c 0,69,70
 576 115 576 115 575 130 c 1,71,72
 575 153 575 153 598 164 c 0,73,74
 630 180 630 180 642 189 c 0,75,76
 684 220 684 220 708 266 c 128,-1,77
 732 312 732 312 731 366 c 0,78,79
 730.995 418 730.995 418 708 465 c 1,80,81
 684 511 684 511 642 543 c 0,82,83
 630.997 551 630.997 551 598 567 c 0,84,85
 574.993 578 574.993 578 575 601 c 0,86,87
 575 616 575 616 587 627 c 0,88,89
 598 638 598 638 612 638 c 0,90,91
 619.005 638 619.005 638 628 635 c 0,92,93
 708 601 708 601 756 527 c 0,94,61
 805.005 453 805.005 453 805 366 c 128,-1,62
951 366 m 128,-1,96
 951 235 951 235 879 124 c 1,97,98
 806 14 806 14 685 -38 c 0,99,100
 678 -41 678 -41 671 -41 c 0,101,102
 656 -41 656 -41 644 -30 c 0,103,104
 632.985 -19 632.985 -19 634 -4 c 1,105,106
 634.007 16 634.007 16 656 30 c 0,107,108
 660.009 32.0001 660.009 32.0001 669 36 c 128,-1,109
 678.027 40 678.027 40 682 42 c 0,110,111
 709.003 56 709.003 56 728 71 c 0,112,113
 799 123 799 123 839 201 c 128,-1,114
 879 279 879 279 878 366 c 0,115,116
 878 453.001 878 453.001 839 530 c 0,117,118
 799 608.001 799 608.001 728 660 c 0,119,120
 707.998 675 707.998 675 682 690 c 0,121,122
 678 692 678 692 669 695 c 0,123,124
 660 699 660 699 656 701 c 0,125,126
 632.993 714.003 632.993 714.003 634 735 c 0,127,128
 634.014 750 634.014 750 644 761 c 0,129,130
 655 772 655 772 671 772 c 0,131,132
 678.004 772 678.004 772 685 769 c 0,133,134
 806 717 806 717 879 607 c 0,135,95
 951 496.999 951 496.999 951 366 c 128,-1,96
EndSplineSet
Validated: 524321
EndChar

StartChar: uniF029
Encoding: 40 61481 39
Width: 803
LayerCount: 5
Fore
SplineSet
219 219 m 1,0,-1
 219 146 l 1,1,-1
 146 146 l 1,2,-1
 146 219 l 1,3,-1
 219 219 l 1,0,-1
219 658 m 1,4,-1
 219 585 l 1,5,-1
 146 585 l 1,6,-1
 146 658 l 1,7,-1
 219 658 l 1,4,-1
658 658 m 1,8,-1
 658 585 l 1,9,-1
 585 585 l 1,10,-1
 585 658 l 1,11,-1
 658 658 l 1,8,-1
73 74 m 1,12,-1
 293 74 l 1,13,-1
 293 293 l 1,14,-1
 73 293 l 1,15,-1
 73 74 l 1,12,-1
73 512 m 1,16,-1
 293 512 l 1,17,-1
 293 731 l 1,18,-1
 73 731 l 1,19,-1
 73 512 l 1,16,-1
512 512 m 1,20,-1
 731 512 l 1,21,-1
 731 731 l 1,22,-1
 512 731 l 1,23,-1
 512 512 l 1,20,-1
366 366 m 1,24,-1
 366 0 l 1,25,-1
 0 0 l 1,26,-1
 0 366 l 1,27,-1
 366 366 l 1,24,-1
658 73 m 1,28,-1
 658 0 l 1,29,-1
 585 0 l 1,30,-1
 585 73 l 1,31,-1
 658 73 l 1,28,-1
805 73 m 1,32,-1
 805 0 l 1,33,-1
 731 0 l 1,34,-1
 731 73 l 1,35,-1
 805 73 l 1,32,-1
805 366 m 1,36,-1
 805 146 l 1,37,-1
 585 146 l 1,38,-1
 585 219 l 1,39,-1
 512 219 l 1,40,-1
 512 0 l 1,41,-1
 439 0 l 1,42,-1
 439 366 l 1,43,-1
 658 366 l 1,44,-1
 658 293 l 1,45,-1
 731 293 l 1,46,-1
 731 366 l 1,47,-1
 805 366 l 1,36,-1
366 805 m 1,48,-1
 366 439 l 1,49,-1
 0 439 l 1,50,-1
 0 805 l 1,51,-1
 366 805 l 1,48,-1
805 805 m 1,52,-1
 805 439 l 1,53,-1
 439 439 l 1,54,-1
 439 805 l 1,55,-1
 805 805 l 1,52,-1
EndSplineSet
Validated: 1
EndChar

StartChar: uniF02A
Encoding: 41 61482 40
Width: 1024
LayerCount: 5
Fore
SplineSet
384 805 m 1,0,-1
 384 -73 l 1,1,-1
 347 -73 l 1,2,-1
 347 805 l 1,3,-1
 384 805 l 1,0,-1
805 805 m 1,4,-1
 805 -73 l 1,5,-1
 768 -73 l 1,6,-1
 768 805 l 1,7,-1
 805 805 l 1,4,-1
896 805 m 1,8,-1
 896 -73 l 1,9,-1
 859 -73 l 1,10,-1
 859 805 l 1,11,-1
 896 805 l 1,8,-1
329 805 m 1,12,-1
 329 -73 l 1,13,-1
 293 -73 l 1,14,-1
 293 805 l 1,15,-1
 329 805 l 1,12,-1
731 805 m 1,16,-1
 731 -73 l 1,17,-1
 585 -73 l 1,18,-1
 585 805 l 1,19,-1
 731 805 l 1,16,-1
512 805 m 1,20,-1
 512 -73 l 1,21,-1
 439 -73 l 1,22,-1
 439 805 l 1,23,-1
 512 805 l 1,20,-1
256 805 m 1,24,-1
 256 -73 l 1,25,-1
 183 -73 l 1,26,-1
 183 805 l 1,27,-1
 256 805 l 1,24,-1
1024 805 m 1,28,-1
 1024 -73 l 1,29,-1
 951 -73 l 1,30,-1
 951 805 l 1,31,-1
 1024 805 l 1,28,-1
146 805 m 1,32,-1
 146 -73 l 1,33,-1
 0 -73 l 1,34,-1
 0 805 l 1,35,-1
 146 805 l 1,32,-1
EndSplineSet
Validated: 1
EndChar

StartChar: uniF02B
Encoding: 42 61483 41
Width: 877
LayerCount: 5
Fore
SplineSet
256 622 m 128,-1,1
 256 652.999 256 652.999 234 674 c 0,2,3
 212 696 212 696 183 695 c 1,4,5
 152 695 152 695 131 674 c 0,6,7
 109 652 109 652 110 622 c 1,8,9
 110 591 110 591 131 570 c 0,10,11
 153 548 153 548 183 549 c 1,12,13
 214 549 214 549 234 570 c 1,14,0
 256.001 590.999 256.001 590.999 256 622 c 128,-1,1
865 293 m 0,15,16
 864.99 262 864.99 262 845 241 c 2,17,-1
 564 -40 l 2,18,19
 540.997 -62 540.997 -62 512 -61 c 1,20,21
 481 -61 481 -61 461 -40 c 2,22,-1
 52 369 l 2,23,24
 30 391 30 391 15 427 c 0,25,26
 0 464 0 464 0 494 c 2,27,-1
 0 731 l 2,28,29
 0 761.004 0 761.004 22 783 c 128,-1,30
 44 805.006 44 805.006 73 805 c 2,31,-1
 311 805 l 2,32,33
 342 805 342 805 378 790 c 0,34,35
 415 775 415 775 436 753 c 2,36,-1
 845 344 l 2,37,38
 865 323 865 323 865 293 c 0,15,16
EndSplineSet
Validated: 524321
EndChar

StartChar: uniF02C
Encoding: 43 61484 42
Width: 1096
LayerCount: 5
Fore
SplineSet
256 622 m 128,-1,1
 256 652.999 256 652.999 234 674 c 0,2,3
 212 696 212 696 183 695 c 1,4,5
 152 695 152 695 131 674 c 0,6,7
 109 652 109 652 110 622 c 1,8,9
 110 591 110 591 131 570 c 0,10,11
 153 548 153 548 183 549 c 1,12,13
 214 549 214 549 234 570 c 1,14,0
 256.001 590.999 256.001 590.999 256 622 c 128,-1,1
865 293 m 0,15,16
 864.99 262 864.99 262 845 241 c 2,17,-1
 564 -40 l 2,18,19
 540.997 -62 540.997 -62 512 -61 c 1,20,21
 481 -61 481 -61 461 -40 c 2,22,-1
 52 369 l 2,23,24
 30 391 30 391 15 427 c 0,25,26
 0 464 0 464 0 494 c 2,27,-1
 0 731 l 2,28,29
 0 761.004 0 761.004 22 783 c 128,-1,30
 44 805.006 44 805.006 73 805 c 2,31,-1
 311 805 l 2,32,33
 342 805 342 805 378 790 c 0,34,35
 415 775 415 775 436 753 c 2,36,-1
 845 344 l 2,37,38
 865 323 865 323 865 293 c 0,15,16
1085 293 m 0,39,40
 1085 262 1085 262 1064 241 c 2,41,-1
 783 -40 l 2,42,43
 759.997 -62 759.997 -62 731 -61 c 0,44,45
 710.996 -61 710.996 -61 697 -53 c 0,46,47
 684 -45 684 -45 668 -28 c 1,48,-1
 936 241 l 2,49,50
 958 263.001 958 263.001 957 293 c 0,51,52
 957 323 957 323 936 344 c 2,53,-1
 527 753 l 2,54,55
 504.999 775.008 504.999 775.008 469 790 c 0,56,57
 431.999 805 431.999 805 402 805 c 2,58,-1
 530 805 l 2,59,60
 561.001 805 561.001 805 597 790 c 0,61,62
 634.003 775 634.003 775 655 753 c 2,63,-1
 1064 344 l 2,64,65
 1085 323 1085 323 1085 293 c 0,39,40
EndSplineSet
Validated: 524321
EndChar

StartChar: uniF02D
Encoding: 44 61485 43
Width: 950
LayerCount: 5
Fore
SplineSet
937 604 m 0,0,1
 960 570.998 960 570.998 947 530 c 2,2,-1
 790 13 l 2,3,4
 779 -24 779 -24 746 -48 c 0,5,6
 713 -73 713 -73 676 -73 c 2,7,-1
 148 -73 l 2,8,9
 104 -73 104 -73 63 -43 c 0,10,11
 22 -12 22 -12 7 33 c 0,12,13
 -6 71 -6 71 6 105 c 0,14,15
 6 107 6 107 7 121 c 1,16,17
 9 134.001 9 134.001 9 141 c 0,18,19
 9.99996 145.001 9.99996 145.001 8 154 c 0,20,21
 6 162 6 162 6 165 c 0,22,23
 7 171 7 171 11 177 c 0,24,25
 14 183.001 14 183.001 20 190 c 0,26,27
 26 198 26 198 30 204 c 0,28,29
 43 226 43 226 55 256 c 0,30,31
 67 287 67 287 73 308 c 0,32,33
 75 314 75 314 73 326 c 0,34,35
 72 337.005 72 337.005 73 342 c 0,36,37
 75 348 75 348 82 357 c 0,38,39
 90.0003 366.005 90.0003 366.005 92 371 c 0,40,41
 104 391 104 391 116 424 c 0,42,43
 128 456 128 456 130 475 c 0,44,45
 130.984 480.001 130.984 480.001 129 494 c 0,46,47
 127 507 127 507 129 509 c 1,48,49
 131 516.019 131 516.019 141 526 c 2,50,-1
 155 540 l 1,51,52
 166 555 166 555 178 588 c 0,53,54
 191.001 622.001 191.001 622.001 195 643 c 0,55,56
 195.994 647.009 195.994 647.009 193 657 c 0,57,58
 190.995 667.009 190.995 667.009 191 673 c 0,59,60
 192 677.023 192 677.023 197 683 c 0,61,62
 201.001 689.01 201.001 689.01 207 696 c 128,-1,63
 213 703 213 703 216 708 c 0,64,65
 220.001 715.01 220.001 715.01 226 725 c 0,66,67
 231 735.01 231 735.01 234 745 c 1,68,69
 238.001 754 238.001 754 244 766 c 0,70,71
 249 777 249 777 255 784 c 128,-1,72
 261 791.017 261 791.017 270 798 c 0,73,74
 279 804 279 804 291 804 c 0,75,76
 302.002 804 302.002 804 317 801 c 1,77,-1
 317 800 l 1,78,79
 339 805 339 805 346 805 c 2,80,-1
 781 805 l 2,81,82
 823 805 823 805 846 772 c 0,83,84
 869 739.995 869 739.995 856 698 c 2,85,-1
 700 180 l 2,86,87
 680.002 112 680.002 112 659 93 c 0,88,89
 638.998 73.9999 638.998 73.9999 586 73 c 2,90,-1
 89 73 l 2,91,92
 74 73 74 73 68 65 c 0,93,94
 62 56 62 56 67 40 c 0,95,96
 80 0 80 0 150 0 c 2,97,-1
 677 0 l 2,98,99
 693.007 0 693.007 0 709 9 c 0,100,101
 724.003 18 724.003 18 728 33 c 2,102,-1
 900 597 l 2,103,104
 904 609 904 609 903 629 c 1,105,106
 925.007 620 925.007 620 937 604 c 0,0,1
329 603 m 2,107,108
 327 596 327 596 330 591 c 128,-1,109
 333.004 586 333.004 586 341 585 c 1,110,-1
 688 585 l 2,111,112
 695 585 695 585 703 591 c 0,113,114
 710.024 596 710.024 596 713 603 c 2,115,-1
 725 640 l 2,116,117
 727 647.018 727 647.018 723 653 c 0,118,119
 719.984 658 719.984 658 712 658 c 2,120,-1
 365 658 l 2,121,122
 358 658.002 358 658.002 350 653 c 0,123,124
 343 647.985 343 647.985 341 640 c 2,125,-1
 329 603 l 2,107,108
282 457 m 2,126,127
 280 450 280 450 283 444 c 0,128,129
 286.003 439 286.003 439 294 439 c 2,130,-1
 641 439 l 2,131,132
 648.009 439.019 648.009 439.019 655 444 c 128,-1,133
 662.012 449.003 662.012 449.003 666 457 c 1,134,-1
 677 494 l 2,135,136
 679 501 679 501 676 507 c 0,137,138
 672.97 512.012 672.97 512.012 665 512 c 2,139,-1
 317 512 l 2,140,141
 310 512 310 512 302 507 c 0,142,143
 295 502 295 502 293 494 c 2,144,-1
 282 457 l 2,126,127
EndSplineSet
Validated: 524321
EndChar

StartChar: uniF02E
Encoding: 45 61486 44
Width: 731
LayerCount: 5
Fore
SplineSet
666 805 m 2,0,1
 679 804.926 679 804.926 690 800 c 0,2,3
 708 793 708 793 720 776 c 0,4,5
 731 760 731 760 731 740 c 2,6,-1
 731 4 l 2,7,8
 730.975 -15 730.975 -15 720 -32 c 0,9,10
 709 -48 709 -48 690 -55 c 0,11,12
 679 -59 679 -59 666 -59 c 0,13,14
 638 -59 638 -59 617 -41 c 1,15,-1
 366 201 l 1,16,-1
 114 -41 l 2,17,18
 94 -59 94 -59 67 -60 c 0,19,20
 54 -60 54 -60 41 -55 c 0,21,22
 23 -48 23 -48 11 -32 c 0,23,24
 0 -16 0 -16 0 4 c 2,25,-1
 0 740 l 2,26,27
 0 759 0 759 11 776 c 0,28,29
 22 792 22 792 41 800 c 0,30,31
 53 805 53 805 67 805 c 2,32,-1
 666 805 l 2,0,1
EndSplineSet
Validated: 524289
EndChar

StartChar: uniF02F
Encoding: 46 61487 45
Width: 950
LayerCount: 5
Fore
SplineSet
219 0 m 1,0,-1
 731 0 l 1,1,-1
 731 146 l 1,2,-1
 219 146 l 1,3,-1
 219 0 l 1,0,-1
219 366 m 1,4,-1
 731 366 l 1,5,-1
 731 585 l 1,6,-1
 640 585 l 2,7,8
 617 585.008 617 585.008 601 601 c 128,-1,9
 585 617 585 617 585 640 c 2,10,-1
 585 731 l 1,11,-1
 219 731 l 1,12,-1
 219 366 l 1,4,-1
878 329 m 128,-1,14
 877.967 344.002 877.967 344.002 867 355 c 128,-1,15
 855.994 366.002 855.994 366.002 841 366 c 128,-1,16
 825.992 366 825.992 366 815 355 c 128,-1,17
 803.978 344 803.978 344 805 329 c 1,18,19
 805.016 314 805.016 314 815 303 c 0,20,21
 826 292 826 292 841 293 c 0,22,23
 856 293 856 293 867 303 c 0,24,13
 878 314.002 878 314.002 878 329 c 128,-1,14
951 329 m 2,25,-1
 951 91 l 2,26,27
 951 84 951 84 945 79 c 0,28,29
 940 74 940 74 933 73 c 1,30,-1
 805 73 l 1,31,-1
 805 -18 l 2,32,33
 804.989 -41 804.989 -41 788 -57 c 0,34,35
 772 -72.9999 772 -72.9999 750 -73 c 2,36,-1
 201 -73 l 2,37,38
 178 -73 178 -73 162 -57 c 128,-1,39
 146 -41 146 -41 146 -18 c 2,40,-1
 146 73 l 1,41,-1
 18 73 l 2,42,43
 11 73 11 73 5 79 c 0,44,45
 0 84 0 84 0 91 c 2,46,-1
 0 329 l 2,47,48
 0 374 0 374 33 407 c 128,-1,49
 66 440.002 66 440.002 110 439 c 1,50,-1
 146 439 l 1,51,-1
 146 750 l 2,52,53
 146 773 146 773 162 788 c 0,54,55
 178 804.01 178 804.01 201 805 c 2,56,-1
 585 805 l 2,57,58
 608 804.992 608 804.992 636 794 c 128,-1,59
 664.003 782.995 664.003 782.995 679 766 c 1,60,-1
 766 679 l 2,61,62
 782.005 663 782.005 663 794 636 c 1,63,64
 805 608 805 608 805 585 c 2,65,-1
 805 439 l 1,66,-1
 841 439 l 2,67,68
 886 439 886 439 919 407 c 1,69,70
 951 374 951 374 951 329 c 2,25,-1
EndSplineSet
Validated: 524321
EndChar

StartChar: uniF030
Encoding: 47 61488 46
Width: 1096
LayerCount: 5
Fore
SplineSet
549 494 m 128,-1,1
 617 493.999 617 493.999 665 445 c 0,2,3
 713 397 713 397 713 329 c 128,-1,4
 713 261 713 261 665 213 c 128,-1,5
 616.999 165 616.999 165 549 165 c 128,-1,6
 481 165 481 165 432 213 c 0,7,8
 384 261 384 261 384 329 c 128,-1,9
 384 397.001 384 397.001 432 445 c 0,10,0
 481 494 481 494 549 494 c 128,-1,1
951 731 m 2,11,12
 1011 731 1011 731 1055 688 c 0,13,14
 1098 645 1098 645 1097 585 c 1,15,-1
 1097 73 l 2,16,17
 1097 13 1097 13 1055 -31 c 1,18,19
 1012 -74 1012 -74 951 -73 c 1,20,-1
 146 -73 l 2,21,22
 86 -73 86 -73 43 -31 c 0,23,24
 0 12 0 12 0 73 c 2,25,-1
 0 585 l 2,26,27
 0 645.003 0 645.003 43 688 c 128,-1,28
 86 731.005 86 731.005 146 731 c 2,29,-1
 274 731 l 1,30,-1
 303 809 l 2,31,32
 314.001 837 314.001 837 343 857 c 128,-1,33
 372 877 372 877 402 878 c 1,34,-1
 695 878 l 2,35,36
 726.006 878 726.006 878 754 857 c 1,37,38
 783 837 783 837 794 809 c 2,39,-1
 823 731 l 1,40,-1
 951 731 l 2,11,12
549 73 m 128,-1,42
 654 73 654 73 729 148 c 128,-1,43
 804.002 223 804.002 223 805 329 c 0,44,45
 805 434 805 434 729 510 c 0,46,47
 654 585 654 585 549 585 c 128,-1,48
 443.999 585 443.999 585 368 510 c 0,49,50
 293 435 293 435 293 329 c 0,51,52
 293 224 293 224 368 148 c 1,53,41
 444 73 444 73 549 73 c 128,-1,42
EndSplineSet
Validated: 524321
EndChar

StartChar: uniF031
Encoding: 48 61489 47
Width: 950
LayerCount: 5
Fore
SplineSet
415 558 m 1,0,-1
 317 301 l 1,1,2
 359 300.001 359 300.001 404 300 c 0,3,4
 450 299.007 450 299.007 473 299 c 2,5,-1
 503 299 l 1,6,-1
 519 300 l 1,7,8
 500.999 354 500.999 354 467 437 c 1,9,10
 438 513 438 513 415 558 c 1,0,-1
12 -73 m 2,11,-1
 0 -73 l 1,12,-1
 1 -28 l 1,13,14
 13 -24 13 -24 47 -17 c 0,15,16
 98 -8 98 -8 110 0 c 1,17,18
 121 9 121 9 137 39 c 1,19,-1
 272 391 l 1,20,-1
 432 805 l 1,21,-1
 475 805 l 1,22,-1
 506 805 l 1,23,-1
 512 793 l 1,24,-1
 629 518 l 2,25,26
 687.002 380 687.002 380 700 348 c 0,27,28
 723 290 723 290 755 214 c 1,29,30
 770.008 181 770.008 181 792 121 c 0,31,32
 804.998 83 804.998 83 829 36 c 1,33,34
 841 8 841 8 849 3 c 1,35,36
 861.009 -8 861.009 -8 889 -10 c 1,37,38
 916.008 -13 916.008 -13 947 -26 c 1,39,40
 950.06 -49 950.06 -49 951 -58 c 0,41,42
 951 -65.9999 951 -65.9999 950 -73 c 1,43,44
 904 -73 904 -73 841 -69 c 1,45,46
 787.999 -64.0004 787.999 -64.0004 732 -63 c 0,47,48
 686.999 -63 686.999 -63 655 -66 c 1,49,-1
 541 -72 l 1,50,-1
 508 -73 l 1,51,52
 508.016 -47 508.016 -47 510 -28 c 1,53,-1
 585 -12 l 2,54,55
 617 -5 617 -5 624 1 c 0,56,57
 631.005 8 631.005 8 631 16 c 128,-1,58
 631 24 631 24 628 35 c 1,59,-1
 600 100 l 1,60,-1
 548 230 l 1,61,-1
 291 231 l 1,62,63
 275 194 275 194 231 75 c 0,64,65
 218 38 218 38 218 27 c 0,66,67
 218.001 10 218.001 10 228 2 c 0,68,69
 243 -10 243 -10 287 -16 c 0,70,71
 289 -16 289 -16 295 -17 c 128,-1,72
 301 -18 301 -18 311 -20 c 0,73,74
 322 -22 322 -22 335 -24 c 1,75,76
 336 -40 336 -40 336 -56 c 0,77,78
 336 -64.9999 336 -64.9999 334 -72 c 1,79,80
 296 -72 296 -72 135 -60 c 1,81,-1
 108 -66 l 1,82,83
 61 -72.9998 61 -72.9998 12 -73 c 2,11,-1
EndSplineSet
Validated: 524289
EndChar

StartChar: uniF032
Encoding: 49 61490 48
Width: 803
LayerCount: 5
Fore
SplineSet
317 8 m 1,0,1
 360 -10 360 -10 397 -9 c 1,2,3
 472 -9 472 -9 520 13 c 1,4,5
 568.002 37 568.002 37 590 78 c 0,6,7
 612.012 118 612.012 118 612 181 c 0,8,9
 611.989 247 611.989 247 589 285 c 0,10,11
 556 338 556 338 508 356 c 0,12,13
 462 374 462 374 367 375 c 0,14,15
 325 375 325 375 309 369 c 1,16,-1
 309 287 l 1,17,-1
 308 188 l 1,18,-1
 310 34 l 2,19,20
 310 24 310 24 317 8 c 1,0,1
309 435 m 1,21,22
 334 430.975 334 430.975 372 431 c 0,23,24
 472 431 472 431 522 468 c 0,25,26
 573 505.001 573 505.001 573 596 c 0,27,28
 573 659 573 659 524 702 c 0,29,30
 476 745.002 476 745.002 379 745 c 0,31,32
 349 745 349 745 304 738 c 1,33,34
 304.013 712.001 304.013 712.001 306 694 c 0,35,36
 310 624 310 624 309 535 c 2,37,-1
 308 479 l 2,38,39
 308 453.999 308 453.999 309 435 c 1,21,22
0 -73 m 1,40,-1
 1 -19 l 1,41,42
 27 -14 27 -14 40 -12 c 0,43,44
 84 -5 84 -5 111 5 c 1,45,46
 120 20 120 20 122 34 c 0,47,48
 127.001 72 127.001 72 127 145 c 2,49,-1
 126 429 l 1,50,51
 123 575 123 575 121 660 c 0,52,53
 120 710 120 710 115 722 c 0,54,55
 114 724 114 724 108 729 c 0,56,57
 98 736.031 98 736.031 69 737 c 0,58,59
 52 738.01 52 738.01 3 745 c 1,60,-1
 1 793 l 1,61,-1
 150 796 l 1,62,-1
 367 804 l 1,63,-1
 392 804 l 1,64,-1
 400 804 l 1,65,-1
 409 805 l 2,66,67
 410 805 410 805 421 804 c 1,68,-1
 444 804 l 1,69,-1
 486 804 l 2,70,71
 536 804 536 804 595 788 c 0,72,73
 620.001 781 620.001 781 650 766 c 0,74,75
 683 750 683 750 709 723 c 128,-1,76
 735 695.996 735 695.996 745 664 c 1,77,78
 756.996 631 756.996 631 758 594 c 1,79,80
 758 554 758 554 739 520 c 0,81,82
 721 487 721 487 685 461 c 0,83,84
 670 450 670 450 599 417 c 1,85,86
 700 393 700 393 752 333 c 128,-1,87
 804.005 273 804.005 273 805 199 c 0,88,89
 804.989 156 804.989 156 788 106 c 0,90,91
 776 70 776 70 748 40 c 0,92,93
 709.997 -1 709.997 -1 668 -23 c 1,94,95
 625.999 -43 625.999 -43 552 -56 c 0,96,97
 504.999 -64 504.999 -64 438 -62 c 2,98,-1
 326 -60 l 2,99,100
 278 -58.9999 278 -58.9999 156 -67 c 0,101,102
 136 -69 136 -69 0 -73 c 1,40,-1
EndSplineSet
Validated: 524321
EndChar

StartChar: uniF033
Encoding: 50 61491 49
Width: 584
LayerCount: 5
Fore
SplineSet
0 -72 m 1,0,-1
 9 -24 l 1,1,2
 11 -23 11 -23 53 -12 c 0,3,4
 96 -1 96 -1 120 10 c 1,5,6
 136.001 32 136.001 32 143 68 c 2,7,-1
 159 147 l 1,8,-1
 190 301 l 1,9,-1
 198 337 l 1,10,11
 201.999 363 201.999 363 208 385 c 1,12,13
 213 409 213 409 216 424 c 0,14,15
 220.003 439 220.003 439 223 451 c 0,16,17
 226 462.003 226 462.003 228 468 c 2,18,-1
 230 474 l 1,19,-1
 248 564 l 1,20,-1
 257 600 l 1,21,-1
 269 677 l 1,22,-1
 273 706 l 1,23,-1
 273 727 l 1,24,25
 249 739.012 249 739.012 191 743 c 0,26,27
 175 744.062 175 744.062 170 745 c 1,28,-1
 180 805 l 1,29,-1
 361 797 l 2,30,31
 384 796 384 796 403 796 c 0,32,33
 441 796 441 796 525 801 c 0,34,35
 543 802.046 543 802.046 564 803 c 0,36,37
 584 804.059 584 804.059 585 805 c 1,38,39
 584 793.993 584 793.993 582 783 c 0,40,41
 578 767 578 767 574 754 c 1,42,43
 541.997 743 541.997 743 512 736 c 0,44,45
 475 727 475 727 455 718 c 1,46,47
 448 700.998 448 700.998 440 668 c 1,48,49
 435 641.998 435 641.998 433 622 c 1,50,51
 407 508 407 508 395 446 c 2,52,-1
 360 268 l 1,53,-1
 339 178 l 1,54,-1
 314 44 l 1,55,-1
 307 18 l 2,56,57
 306.005 14 306.005 14 308 3 c 1,58,59
 345 -5 345 -5 376 -9 c 0,60,61
 396.001 -12 396.001 -12 414 -15 c 1,62,63
 413.005 -31 413.005 -31 410 -48 c 0,64,65
 406 -64.9999 406 -64.9999 404 -72 c 1,66,-1
 391 -72 l 2,67,68
 377.998 -72.9983 377.998 -72.9983 368 -73 c 0,69,70
 363 -73 363 -73 351 -72 c 1,71,72
 340 -70 340 -70 268 -61 c 1,73,-1
 156 -60 l 2,74,75
 132 -58.9999 132 -58.9999 56 -67 c 0,76,77
 13 -70.9997 13 -70.9997 0 -72 c 1,0,-1
EndSplineSet
Validated: 524321
EndChar

StartChar: uniF034
Encoding: 51 61492 50
Width: 1024
LayerCount: 5
Fore
SplineSet
46 804 m 1,0,-1
 77 788 l 1,1,2
 88 785 88 785 198 785 c 2,3,-1
 272 785 l 1,4,-1
 283 787 l 1,5,-1
 348 788 l 1,6,-1
 471 787 l 1,7,-1
 639 787 l 1,8,-1
 658 786 l 2,9,10
 666 785 666 785 674 791 c 1,11,12
 682 795 682 795 686 800 c 2,13,-1
 690 804 l 1,14,-1
 715 805 l 2,15,16
 723 805 723 805 730 804 c 1,17,-1
 730 744 l 1,18,-1
 731 669 l 1,19,-1
 731 612 l 1,20,-1
 731 579 l 2,21,22
 731 560.992 731 560.992 728 550 c 1,23,24
 704.995 541.975 704.995 541.975 690 540 c 1,25,26
 675.994 565 675.994 565 658 612 c 0,27,28
 654 625 654 625 650 648 c 0,29,30
 646 670.003 646 670.003 643 686 c 0,31,32
 641 701.003 641 701.003 640 702 c 0,33,34
 633 710 633 710 625 713 c 0,35,36
 621 714.078 621 714.078 600 715 c 0,37,38
 579.998 715 579.998 715 541 714 c 128,-1,39
 502 713 502 713 478 713 c 0,40,41
 459 713.01 459 713.01 439 711 c 1,42,43
 432.986 656 432.986 656 435 633 c 1,44,-1
 435 546 l 1,45,-1
 435 356 l 1,46,-1
 437 151 l 1,47,-1
 436 67 l 2,48,49
 435 40 435 40 442 18 c 1,50,51
 470 4 470 4 494 0 c 0,52,53
 495 0 495 0 504 -3 c 128,-1,54
 513.006 -6 513.006 -6 529 -10 c 128,-1,55
 545.009 -14 545.009 -14 554 -17 c 0,56,57
 571 -21 571 -21 583 -28 c 1,58,59
 586 -54 586 -54 585 -56 c 1,60,61
 585 -62 585 -62 584 -73 c 1,62,63
 575.984 -74 575.984 -74 564 -73 c 1,64,65
 501.999 -73.0006 501.999 -73.0006 457 -68 c 0,66,67
 416 -64 416 -64 322 -62 c 1,68,69
 272 -62 272 -62 188 -71 c 0,70,71
 160 -73 160 -73 148 -73 c 1,72,73
 147 -61 147 -61 146 -58 c 1,74,-1
 146 -43 l 1,75,-1
 146 -38 l 1,76,77
 158 -20 158 -20 191 -10 c 0,78,79
 271 12 271 12 283 18 c 1,80,81
 288 30 288 30 289 50 c 0,82,83
 293 160 293 160 293 298 c 1,84,-1
 290 543 l 2,85,86
 289 579.003 289 579.003 290 610 c 1,87,-1
 290 669 l 2,88,89
 289.973 696 289.973 696 289 701 c 0,90,91
 287.984 707 287.984 707 285 710 c 128,-1,92
 282.002 713 282.002 713 278 713 c 0,93,94
 256 716.029 256 716.029 193 717 c 0,95,96
 168 716.959 168 716.959 135 709 c 128,-1,97
 102 700.992 102 700.992 94 695 c 0,98,99
 86.9997 689.99 86.9997 689.99 81 676 c 0,100,101
 76 663 76 663 69 633 c 0,102,103
 61.9999 604 61.9999 604 55 585 c 0,104,105
 52 574 52 574 44 567 c 128,-1,106
 36 560 36 560 32 559 c 1,107,108
 6 574 6 574 0 585 c 1,109,-1
 0 755 l 1,110,-1
 0 804 l 1,111,-1
 46 804 l 1,0,-1
996 73 m 2,112,113
 1014 73 1014 73 1021 62 c 1,114,115
 1025.95 52 1025.95 52 1015 37 c 2,116,-1
 942 -55 l 2,117,118
 930.994 -70 930.994 -70 914 -71 c 0,119,120
 898 -71 898 -71 887 -55 c 1,121,-1
 814 37 l 2,122,123
 803 52 803 52 808 62 c 128,-1,124
 813 72 813 72 831 73 c 1,125,-1
 878 73 l 1,126,-1
 878 658 l 1,127,-1
 831 658 l 2,128,129
 812.984 658 812.984 658 808 669 c 0,130,131
 803 679.001 803 679.001 814 694 c 2,132,-1
 887 786 l 2,133,134
 898 801.008 898 801.008 914 802 c 0,135,136
 930.015 802 930.015 802 942 786 c 2,137,-1
 1015 694 l 2,138,139
 1026 679 1026 679 1021 669 c 128,-1,140
 1015.99 659 1015.99 659 996 658 c 1,141,-1
 951 658 l 1,142,-1
 951 73 l 1,143,-1
 996 73 l 2,112,113
EndSplineSet
Validated: 524321
EndChar

StartChar: uniF035
Encoding: 52 61493 51
Width: 877
LayerCount: 5
Fore
SplineSet
46 804 m 1,0,-1
 77 788 l 1,1,2
 88 785 88 785 198 785 c 2,3,-1
 272 785 l 1,4,-1
 283 787 l 1,5,-1
 348 788 l 1,6,-1
 603 787 l 1,7,-1
 785 787 l 1,8,-1
 805 786 l 2,9,10
 813 785 813 785 820 791 c 1,11,12
 828 795 828 795 833 800 c 2,13,-1
 837 804 l 1,14,-1
 860 805 l 2,15,16
 868 805 868 805 877 804 c 1,17,-1
 877 744 l 1,18,-1
 878 669 l 1,19,-1
 878 612 l 1,20,-1
 878 579 l 2,21,22
 878 560.992 878 560.992 874 550 c 1,23,24
 850.998 541.975 850.998 541.975 836 540 c 1,25,26
 821.99 565 821.99 565 805 612 c 0,27,28
 801 625 801 625 797 648 c 0,29,30
 793 670.003 793 670.003 790 686 c 0,31,32
 787.917 701.003 787.917 701.003 786 702 c 0,33,34
 779 710 779 710 771 713 c 0,35,36
 767 714.078 767 714.078 737 715 c 0,37,38
 707 715 707 715 658 714 c 0,39,40
 607.999 713 607.999 713 585 713 c 0,41,42
 532 713.01 532 713.01 513 711 c 1,43,44
 507 656 507 656 508 633 c 2,45,-1
 509 546 l 1,46,-1
 509 575 l 1,47,-1
 510 371 l 1,48,-1
 510 287 l 1,49,50
 509 260 509 260 516 238 c 1,51,52
 544 224 544 224 567 219 c 0,53,54
 568.007 219 568.007 219 578 216 c 0,55,56
 587 213 587 213 602 209 c 0,57,58
 617.999 205 617.999 205 627 203 c 0,59,60
 644 199 644 199 655 193 c 1,61,62
 658 167 658 167 658 164 c 0,63,64
 657.94 158 657.94 158 656 146 c 1,65,66
 647.991 145 647.991 145 637 146 c 1,67,68
 574.998 146 574.998 146 530 152 c 1,69,70
 489 156.002 489 156.002 394 157 c 0,71,72
 347 157 347 157 261 150 c 0,73,74
 235 147 235 147 221 146 c 1,75,76
 220 158 220 158 220 161 c 2,77,-1
 219 176 l 1,78,-1
 219 181 l 1,79,80
 231 199 231 199 264 209 c 0,81,82
 344 231 344 231 355 238 c 1,83,84
 360.009 250 360.009 250 362 269 c 1,85,86
 365 347 365 347 366 517 c 1,87,-1
 362 543 l 1,88,89
 361.967 695 361.967 695 361 701 c 128,-1,90
 360 707 360 707 358 710 c 0,91,92
 355 713 355 713 350 713 c 0,93,94
 327.999 716.029 327.999 716.029 265 717 c 0,95,96
 236 716.959 236 716.959 169 709 c 0,97,98
 101 700.992 101 700.992 94 695 c 0,99,100
 86.9997 689.99 86.9997 689.99 81 676 c 0,101,102
 76 663 76 663 69 633 c 0,103,104
 61.9999 604 61.9999 604 55 585 c 0,105,106
 52 574 52 574 44 567 c 128,-1,107
 36 560 36 560 32 559 c 1,108,109
 6 574 6 574 0 585 c 1,110,-1
 0 755 l 1,111,-1
 0 804 l 1,112,-1
 46 804 l 1,0,-1
860 65 m 2,113,114
 875 54 875 54 874 37 c 0,115,116
 873.98 21 873.98 21 860 8 c 1,117,-1
 767 -63 l 2,118,119
 752 -74 752 -74 742 -70 c 0,120,121
 732 -65.0001 732 -65.0001 731 -46 c 1,122,-1
 731 0 l 1,123,-1
 146 0 l 1,124,-1
 146 -46 l 2,125,126
 146 -64 146 -64 136 -70 c 0,127,128
 126 -75 126 -75 111 -63 c 2,129,-1
 17 8 l 2,130,131
 2 19 2 19 3 37 c 0,132,133
 3 53 3 53 17 65 c 1,134,-1
 111 136 l 2,135,136
 126 147 126 147 136 143 c 0,137,138
 146.001 138 146.001 138 146 119 c 2,139,-1
 146 73 l 1,140,-1
 731 73 l 1,141,-1
 731 119 l 2,142,143
 731 137 731 137 742 143 c 0,144,145
 752.004 148 752.004 148 767 136 c 2,146,-1
 860 65 l 2,113,114
EndSplineSet
Validated: 524321
EndChar

StartChar: uniF036
Encoding: 53 61494 52
Width: 1024
LayerCount: 5
Fore
SplineSet
1024 110 m 2,0,-1
 1024 37 l 2,1,2
 1023.96 22 1023.96 22 1013 11 c 128,-1,3
 1002 0 1002 0 987 0 c 2,4,-1
 37 0 l 2,5,6
 22 0 22 0 11 11 c 128,-1,7
 0 22 0 22 0 37 c 2,8,-1
 0 110 l 2,9,10
 0 125 0 125 11 135 c 0,11,12
 22 146 22 146 37 146 c 2,13,-1
 987 146 l 2,14,15
 1002 145.998 1002 145.998 1013 135 c 0,16,17
 1024 125 1024 125 1024 110 c 2,0,-1
805 329 m 2,18,-1
 805 256 l 2,19,20
 804.992 241 804.992 241 794 230 c 128,-1,21
 782.991 218.999 782.991 218.999 768 219 c 2,22,-1
 37 219 l 2,23,24
 22 219 22 219 11 230 c 128,-1,25
 0 241 0 241 0 256 c 2,26,-1
 0 329 l 2,27,28
 0 344.002 0 344.002 11 355 c 128,-1,29
 22 366.002 22 366.002 37 366 c 2,30,-1
 768 366 l 2,31,32
 783 366 783 366 794 355 c 128,-1,33
 805 344 805 344 805 329 c 2,18,-1
951 549 m 2,34,-1
 951 475 l 2,35,36
 950.983 459.998 950.983 459.998 940 450 c 0,37,38
 928.995 439 928.995 439 914 439 c 2,39,-1
 37 439 l 2,40,41
 22 439.002 22 439.002 11 450 c 128,-1,42
 0 461.006 0 461.006 0 475 c 2,43,-1
 0 549 l 2,44,45
 0 564.002 0 564.002 11 574 c 0,46,47
 22 585 22 585 37 585 c 2,48,-1
 914 585 l 2,49,50
 929 584.987 929 584.987 940 574 c 0,51,52
 951 564 951 564 951 549 c 2,34,-1
731 768 m 2,53,-1
 731 695 l 2,54,55
 731 680.001 731 680.001 721 669 c 0,56,57
 710 657.985 710 657.985 695 658 c 2,58,-1
 37 658 l 2,59,60
 22 658 22 658 11 669 c 128,-1,61
 0 680 0 680 0 695 c 2,62,-1
 0 768 l 2,63,64
 0 783 0 783 11 794 c 128,-1,65
 22 805 22 805 37 805 c 2,66,-1
 695 805 l 2,67,68
 710 804.992 710 804.992 721 794 c 0,69,70
 731.009 782.991 731.009 782.991 731 768 c 2,53,-1
EndSplineSet
Validated: 524289
EndChar

StartChar: uniF037
Encoding: 54 61495 53
Width: 1024
LayerCount: 5
Fore
SplineSet
1024 110 m 2,0,-1
 1024 37 l 2,1,2
 1023.96 22 1023.96 22 1013 11 c 128,-1,3
 1002 0 1002 0 987 0 c 2,4,-1
 37 0 l 2,5,6
 22 0 22 0 11 11 c 128,-1,7
 0 22 0 22 0 37 c 2,8,-1
 0 110 l 2,9,10
 0 125 0 125 11 135 c 0,11,12
 22 146 22 146 37 146 c 2,13,-1
 987 146 l 2,14,15
 1002 145.998 1002 145.998 1013 135 c 0,16,17
 1024 125 1024 125 1024 110 c 2,0,-1
805 329 m 2,18,-1
 805 256 l 2,19,20
 804.992 241 804.992 241 794 230 c 128,-1,21
 782.991 218.999 782.991 218.999 768 219 c 2,22,-1
 256 219 l 2,23,24
 241 219 241 219 230 230 c 128,-1,25
 218.999 241 218.999 241 219 256 c 2,26,-1
 219 329 l 2,27,28
 219 344.002 219 344.002 230 355 c 128,-1,29
 241 366.002 241 366.002 256 366 c 2,30,-1
 768 366 l 2,31,32
 783 366 783 366 794 355 c 128,-1,33
 805 344 805 344 805 329 c 2,18,-1
951 549 m 2,34,-1
 951 475 l 2,35,36
 950.983 459.998 950.983 459.998 940 450 c 0,37,38
 928.995 439 928.995 439 914 439 c 2,39,-1
 110 439 l 2,40,41
 95 439.002 95 439.002 84 450 c 128,-1,42
 73 461.006 73 461.006 73 475 c 2,43,-1
 73 549 l 2,44,45
 73 564.002 73 564.002 84 574 c 0,46,47
 95.0002 585 95.0002 585 110 585 c 2,48,-1
 914 585 l 2,49,50
 929 584.987 929 584.987 940 574 c 0,51,52
 951 564 951 564 951 549 c 2,34,-1
731 768 m 2,53,-1
 731 695 l 2,54,55
 731 680.001 731 680.001 721 669 c 0,56,57
 710 657.985 710 657.985 695 658 c 2,58,-1
 329 658 l 2,59,60
 314 658 314 658 303 669 c 128,-1,61
 292 680 292 680 293 695 c 1,62,-1
 293 768 l 2,63,64
 293 783 293 783 303 794 c 0,65,66
 314.002 805 314.002 805 329 805 c 2,67,-1
 695 805 l 2,68,69
 710 804.992 710 804.992 721 794 c 0,70,71
 731.009 782.991 731.009 782.991 731 768 c 2,53,-1
EndSplineSet
Validated: 524289
EndChar

StartChar: uniF038
Encoding: 55 61496 54
Width: 1024
LayerCount: 5
Fore
SplineSet
1024 110 m 2,0,-1
 1024 37 l 2,1,2
 1023.96 22 1023.96 22 1013 11 c 128,-1,3
 1002 0 1002 0 987 0 c 2,4,-1
 37 0 l 2,5,6
 22 0 22 0 11 11 c 128,-1,7
 0 22 0 22 0 37 c 2,8,-1
 0 110 l 2,9,10
 0 125 0 125 11 135 c 0,11,12
 22 146 22 146 37 146 c 2,13,-1
 987 146 l 2,14,15
 1002 145.998 1002 145.998 1013 135 c 0,16,17
 1024 125 1024 125 1024 110 c 2,0,-1
1024 329 m 2,18,-1
 1024 256 l 2,19,20
 1023.96 241 1023.96 241 1013 230 c 128,-1,21
 1002 218.999 1002 218.999 987 219 c 2,22,-1
 256 219 l 2,23,24
 241 219 241 219 230 230 c 128,-1,25
 218.999 241 218.999 241 219 256 c 2,26,-1
 219 329 l 2,27,28
 219 344.002 219 344.002 230 355 c 128,-1,29
 241 366.002 241 366.002 256 366 c 2,30,-1
 987 366 l 2,31,32
 1002 366 1002 366 1013 355 c 128,-1,33
 1024 344 1024 344 1024 329 c 2,18,-1
1024 549 m 2,34,-1
 1024 475 l 2,35,36
 1023.96 459.998 1023.96 459.998 1013 450 c 0,37,38
 1002 439 1002 439 987 439 c 2,39,-1
 110 439 l 2,40,41
 95 439.002 95 439.002 84 450 c 128,-1,42
 73 461.006 73 461.006 73 475 c 2,43,-1
 73 549 l 2,44,45
 73 564.002 73 564.002 84 574 c 0,46,47
 95.0002 585 95.0002 585 110 585 c 2,48,-1
 987 585 l 2,49,50
 1002 584.987 1002 584.987 1013 574 c 0,51,52
 1024 564 1024 564 1024 549 c 2,34,-1
1024 768 m 2,53,-1
 1024 695 l 2,54,55
 1023.96 680.001 1023.96 680.001 1013 669 c 128,-1,56
 1002 657.985 1002 657.985 987 658 c 2,57,-1
 329 658 l 2,58,59
 314 658 314 658 303 669 c 128,-1,60
 292 680 292 680 293 695 c 1,61,-1
 293 768 l 2,62,63
 293 783 293 783 303 794 c 0,64,65
 314.002 805 314.002 805 329 805 c 2,66,-1
 987 805 l 2,67,68
 1002 804.992 1002 804.992 1013 794 c 128,-1,69
 1024 782.991 1024 782.991 1024 768 c 2,53,-1
EndSplineSet
Validated: 524289
EndChar

StartChar: uniF039
Encoding: 56 61497 55
Width: 1024
LayerCount: 5
Fore
SplineSet
1024 110 m 2,0,-1
 1024 37 l 2,1,2
 1023.96 22 1023.96 22 1013 11 c 128,-1,3
 1002 0 1002 0 987 0 c 2,4,-1
 37 0 l 2,5,6
 22 0 22 0 11 11 c 128,-1,7
 0 22 0 22 0 37 c 2,8,-1
 0 110 l 2,9,10
 0 125 0 125 11 135 c 0,11,12
 22 146 22 146 37 146 c 2,13,-1
 987 146 l 2,14,15
 1002 145.998 1002 145.998 1013 135 c 0,16,17
 1024 125 1024 125 1024 110 c 2,0,-1
1024 329 m 2,18,-1
 1024 256 l 2,19,20
 1023.96 241 1023.96 241 1013 230 c 128,-1,21
 1002 218.999 1002 218.999 987 219 c 2,22,-1
 37 219 l 2,23,24
 22 219 22 219 11 230 c 128,-1,25
 0 241 0 241 0 256 c 2,26,-1
 0 329 l 2,27,28
 0 344.002 0 344.002 11 355 c 128,-1,29
 22 366.002 22 366.002 37 366 c 2,30,-1
 987 366 l 2,31,32
 1002 366 1002 366 1013 355 c 128,-1,33
 1024 344 1024 344 1024 329 c 2,18,-1
1024 549 m 2,34,-1
 1024 475 l 2,35,36
 1023.96 459.998 1023.96 459.998 1013 450 c 0,37,38
 1002 439 1002 439 987 439 c 2,39,-1
 37 439 l 2,40,41
 22 439.002 22 439.002 11 450 c 128,-1,42
 0 461.006 0 461.006 0 475 c 2,43,-1
 0 549 l 2,44,45
 0 564.002 0 564.002 11 574 c 0,46,47
 22 585 22 585 37 585 c 2,48,-1
 987 585 l 2,49,50
 1002 584.987 1002 584.987 1013 574 c 0,51,52
 1024 564 1024 564 1024 549 c 2,34,-1
1024 768 m 2,53,-1
 1024 695 l 2,54,55
 1023.96 680.001 1023.96 680.001 1013 669 c 128,-1,56
 1002 657.985 1002 657.985 987 658 c 2,57,-1
 37 658 l 2,58,59
 22 658 22 658 11 669 c 128,-1,60
 0 680 0 680 0 695 c 2,61,-1
 0 768 l 2,62,63
 0 783 0 783 11 794 c 128,-1,64
 22 805 22 805 37 805 c 2,65,-1
 987 805 l 2,66,67
 1002 804.992 1002 804.992 1013 794 c 128,-1,68
 1024 782.991 1024 782.991 1024 768 c 2,53,-1
EndSplineSet
Validated: 524289
EndChar

StartChar: uniF03A
Encoding: 57 61498 56
Width: 1024
LayerCount: 5
Fore
SplineSet
146 128 m 2,0,-1
 146 18 l 2,1,2
 146 11 146 11 141 5 c 0,3,4
 135.999 0 135.999 0 128 0 c 2,5,-1
 18 0 l 2,6,7
 11 0 11 0 5 5 c 0,8,9
 0 10 0 10 0 18 c 2,10,-1
 0 128 l 2,11,12
 0 135.001 0 135.001 5 141 c 0,13,14
 10 146 10 146 18 146 c 2,15,-1
 128 146 l 2,16,17
 135.001 146 135.001 146 141 141 c 1,18,19
 146 135 146 135 146 128 c 2,0,-1
146 347 m 2,20,-1
 146 238 l 2,21,22
 146 231 146 231 141 225 c 0,23,24
 135.999 220 135.999 220 128 219 c 1,25,-1
 18 219 l 2,26,27
 11 219 11 219 5 225 c 0,28,29
 0 230 0 230 0 238 c 2,30,-1
 0 347 l 2,31,32
 0 354 0 354 5 360 c 0,33,34
 10 365 10 365 18 366 c 1,35,-1
 128 366 l 2,36,37
 135.001 366 135.001 366 141 360 c 0,38,39
 146 353.996 146 353.996 146 347 c 2,20,-1
146 567 m 2,40,-1
 146 457 l 2,41,42
 146 450 146 450 141 444 c 0,43,44
 135.999 439 135.999 439 128 439 c 2,45,-1
 18 439 l 2,46,47
 11 439.019 11 439.019 5 444 c 0,48,49
 0 449.003 0 449.003 0 457 c 2,50,-1
 0 567 l 2,51,52
 0 574.012 0 574.012 5 580 c 0,53,54
 10 585 10 585 18 585 c 2,55,-1
 128 585 l 2,56,57
 135.001 584.947 135.001 584.947 141 580 c 1,58,59
 146 574 146 574 146 567 c 2,40,-1
1024 128 m 2,60,-1
 1024 18 l 2,61,62
 1023.95 11 1023.95 11 1019 5 c 0,63,64
 1013.97 0 1013.97 0 1006 0 c 2,65,-1
 238 0 l 2,66,67
 231 0 231 0 225 5 c 0,68,69
 220 10 220 10 219 18 c 1,70,-1
 219 128 l 2,71,72
 219 135.001 219 135.001 225 141 c 0,73,74
 230 146 230 146 238 146 c 2,75,-1
 1006 146 l 2,76,77
 1013.01 146 1013.01 146 1019 141 c 1,78,79
 1024 135 1024 135 1024 128 c 2,60,-1
146 786 m 2,80,-1
 146 677 l 2,81,82
 146 670 146 670 141 664 c 0,83,84
 135.999 659 135.999 659 128 658 c 1,85,-1
 18 658 l 2,86,87
 11 658 11 658 5 664 c 0,88,89
 0 669 0 669 0 677 c 2,90,-1
 0 786 l 2,91,92
 0 793.009 0 793.009 5 799 c 0,93,94
 10 804 10 804 18 805 c 1,95,-1
 128 805 l 2,96,97
 135.001 805 135.001 805 141 799 c 0,98,99
 146 793 146 793 146 786 c 2,80,-1
1024 347 m 2,100,-1
 1024 238 l 2,101,102
 1023.95 231 1023.95 231 1019 225 c 0,103,104
 1013.97 220 1013.97 220 1006 219 c 1,105,-1
 238 219 l 2,106,107
 231 219 231 219 225 225 c 0,108,109
 220 230 220 230 219 238 c 1,110,-1
 219 347 l 2,111,112
 219 354 219 354 225 360 c 0,113,114
 230 365 230 365 238 366 c 1,115,-1
 1006 366 l 2,116,117
 1013.01 366 1013.01 366 1019 360 c 0,118,119
 1024 353.996 1024 353.996 1024 347 c 2,100,-1
1024 567 m 2,120,-1
 1024 457 l 2,121,122
 1023.95 450 1023.95 450 1019 444 c 0,123,124
 1013.97 439 1013.97 439 1006 439 c 2,125,-1
 238 439 l 2,126,127
 231 439.019 231 439.019 225 444 c 0,128,129
 220 449.003 220 449.003 219 457 c 1,130,-1
 219 567 l 2,131,132
 219 574.012 219 574.012 225 580 c 0,133,134
 230 585 230 585 238 585 c 2,135,-1
 1006 585 l 2,136,137
 1013.01 584.947 1013.01 584.947 1019 580 c 1,138,139
 1024 574 1024 574 1024 567 c 2,120,-1
1024 786 m 2,140,-1
 1024 677 l 2,141,142
 1023.95 670 1023.95 670 1019 664 c 0,143,144
 1013.97 659 1013.97 659 1006 658 c 1,145,-1
 238 658 l 2,146,147
 231 658 231 658 225 664 c 0,148,149
 220 669 220 669 219 677 c 1,150,-1
 219 786 l 2,151,152
 219 793.009 219 793.009 225 799 c 0,153,154
 230 804 230 804 238 805 c 1,155,-1
 1006 805 l 2,156,157
 1013.01 805 1013.01 805 1019 799 c 0,158,159
 1024 793 1024 793 1024 786 c 2,140,-1
EndSplineSet
Validated: 524289
EndChar

StartChar: uniF03B
Encoding: 58 61499 57
Width: 1024
LayerCount: 5
Fore
SplineSet
219 567 m 2,0,-1
 219 238 l 2,1,2
 218.999 231 218.999 231 214 225 c 0,3,4
 208.999 220 208.999 220 201 219 c 0,5,6
 192.999 219 192.999 219 188 224 c 2,7,-1
 24 389 l 2,8,9
 19 394.005 19 394.005 18 402 c 0,10,11
 18 410.001 18 410.001 24 416 c 2,12,-1
 188 580 l 2,13,14
 193 585 193 585 201 585 c 0,15,16
 208.002 584.947 208.002 584.947 214 580 c 1,17,18
 219 574 219 574 219 567 c 2,0,-1
1024 128 m 2,19,-1
 1024 18 l 2,20,21
 1023.95 11 1023.95 11 1019 5 c 0,22,23
 1013.97 0 1013.97 0 1006 0 c 2,24,-1
 18 0 l 2,25,26
 11 0 11 0 5 5 c 0,27,28
 0 10 0 10 0 18 c 2,29,-1
 0 128 l 2,30,31
 0 135.001 0 135.001 5 141 c 0,32,33
 10 146 10 146 18 146 c 2,34,-1
 1006 146 l 2,35,36
 1013.01 146 1013.01 146 1019 141 c 1,37,38
 1024 135 1024 135 1024 128 c 2,19,-1
1024 347 m 2,39,-1
 1024 238 l 2,40,41
 1023.95 231 1023.95 231 1019 225 c 0,42,43
 1013.97 220 1013.97 220 1006 219 c 1,44,-1
 384 219 l 2,45,46
 376.995 219 376.995 219 371 225 c 0,47,48
 366 230 366 230 366 238 c 2,49,-1
 366 347 l 2,50,51
 366.008 354 366.008 354 371 360 c 0,52,53
 376.003 365 376.003 365 384 366 c 1,54,-1
 1006 366 l 2,55,56
 1013.01 366 1013.01 366 1019 360 c 0,57,58
 1024 353.996 1024 353.996 1024 347 c 2,39,-1
1024 567 m 2,59,-1
 1024 457 l 2,60,61
 1023.95 450 1023.95 450 1019 444 c 0,62,63
 1013.97 439 1013.97 439 1006 439 c 2,64,-1
 384 439 l 2,65,66
 376.995 439.019 376.995 439.019 371 444 c 0,67,68
 366 449.003 366 449.003 366 457 c 2,69,-1
 366 567 l 2,70,71
 366.008 574.012 366.008 574.012 371 580 c 0,72,73
 376.003 585 376.003 585 384 585 c 2,74,-1
 1006 585 l 2,75,76
 1013.01 584.947 1013.01 584.947 1019 580 c 1,77,78
 1024 574 1024 574 1024 567 c 2,59,-1
1024 786 m 2,79,-1
 1024 677 l 2,80,81
 1023.95 670 1023.95 670 1019 664 c 0,82,83
 1013.97 659 1013.97 659 1006 658 c 1,84,-1
 18 658 l 2,85,86
 11 658 11 658 5 664 c 0,87,88
 0 669 0 669 0 677 c 2,89,-1
 0 786 l 2,90,91
 0 793.009 0 793.009 5 799 c 0,92,93
 10 804 10 804 18 805 c 1,94,-1
 1006 805 l 2,95,96
 1013.01 805 1013.01 805 1019 799 c 0,97,98
 1024 793 1024 793 1024 786 c 2,79,-1
EndSplineSet
Validated: 524289
EndChar

StartChar: uniF03C
Encoding: 59 61500 58
Width: 1024
LayerCount: 5
Fore
SplineSet
201 402 m 128,-1,1
 200.995 394 200.995 394 196 389 c 2,2,-1
 32 224 l 2,3,4
 27 218.994 27 218.994 18 219 c 0,5,6
 11 219 11 219 5 225 c 0,7,8
 0 230 0 230 0 238 c 2,9,-1
 0 567 l 2,10,11
 0 574.012 0 574.012 5 580 c 0,12,13
 10 585 10 585 18 585 c 128,-1,14
 26 584.947 26 584.947 32 580 c 2,15,-1
 196 416 l 2,16,0
 201 410 201 410 201 402 c 128,-1,1
1024 128 m 2,17,-1
 1024 18 l 2,18,19
 1023.95 11 1023.95 11 1019 5 c 0,20,21
 1013.97 0 1013.97 0 1006 0 c 2,22,-1
 18 0 l 2,23,24
 11 0 11 0 5 5 c 0,25,26
 0 10 0 10 0 18 c 2,27,-1
 0 128 l 2,28,29
 0 135.001 0 135.001 5 141 c 0,30,31
 10 146 10 146 18 146 c 2,32,-1
 1006 146 l 2,33,34
 1013.01 146 1013.01 146 1019 141 c 1,35,36
 1024 135 1024 135 1024 128 c 2,17,-1
1024 347 m 2,37,-1
 1024 238 l 2,38,39
 1023.95 231 1023.95 231 1019 225 c 0,40,41
 1013.97 220 1013.97 220 1006 219 c 1,42,-1
 384 219 l 2,43,44
 376.995 219 376.995 219 371 225 c 0,45,46
 366 230 366 230 366 238 c 2,47,-1
 366 347 l 2,48,49
 366.008 354 366.008 354 371 360 c 0,50,51
 376.003 365 376.003 365 384 366 c 1,52,-1
 1006 366 l 2,53,54
 1013.01 366 1013.01 366 1019 360 c 0,55,56
 1024 353.996 1024 353.996 1024 347 c 2,37,-1
1024 567 m 2,57,-1
 1024 457 l 2,58,59
 1023.95 450 1023.95 450 1019 444 c 0,60,61
 1013.97 439 1013.97 439 1006 439 c 2,62,-1
 384 439 l 2,63,64
 376.995 439.019 376.995 439.019 371 444 c 0,65,66
 366 449.003 366 449.003 366 457 c 2,67,-1
 366 567 l 2,68,69
 366.008 574.012 366.008 574.012 371 580 c 0,70,71
 376.003 585 376.003 585 384 585 c 2,72,-1
 1006 585 l 2,73,74
 1013.01 584.947 1013.01 584.947 1019 580 c 1,75,76
 1024 574 1024 574 1024 567 c 2,57,-1
1024 786 m 2,77,-1
 1024 677 l 2,78,79
 1023.95 670 1023.95 670 1019 664 c 0,80,81
 1013.97 659 1013.97 659 1006 658 c 1,82,-1
 18 658 l 2,83,84
 11 658 11 658 5 664 c 0,85,86
 0 669 0 669 0 677 c 2,87,-1
 0 786 l 2,88,89
 0 793.009 0 793.009 5 799 c 0,90,91
 10 804 10 804 18 805 c 1,92,-1
 1006 805 l 2,93,94
 1013.01 805 1013.01 805 1019 799 c 0,95,96
 1024 793 1024 793 1024 786 c 2,77,-1
EndSplineSet
Validated: 524289
EndChar

StartChar: uniF03D
Encoding: 60 61501 59
Width: 1096
LayerCount: 5
Fore
SplineSet
1085 730 m 128,-1,1
 1096 726 1096 726 1097 713 c 1,2,-1
 1097 18 l 2,3,4
 1097 6 1097 6 1085 1 c 0,5,6
 1081 1.19209e-07 1081 1.19209e-07 1079 0 c 0,7,8
 1071.94 0 1071.94 0 1066 5 c 2,9,-1
 731 340 l 1,10,-1
 731 165 l 2,11,12
 731 97 731 97 683 48 c 0,13,14
 634.998 0 634.998 0 567 0 c 2,15,-1
 165 0 l 2,16,17
 97 0 97 0 48 48 c 0,18,19
 0 96 0 96 0 165 c 2,20,-1
 0 567 l 2,21,22
 0 635 0 635 48 683 c 128,-1,23
 96 731 96 731 165 731 c 2,24,-1
 567 731 l 2,25,26
 635 731 635 731 683 683 c 128,-1,27
 731 634.998 731 634.998 731 567 c 2,28,-1
 731 391 l 1,29,-1
 1066 726 l 2,30,0
 1074.06 734 1074.06 734 1085 730 c 128,-1,1
EndSplineSet
Validated: 524289
EndChar

StartChar: uniF03E
Encoding: 61 61502 60
Width: 1096
LayerCount: 5
Fore
SplineSet
366 549 m 128,-1,1
 366 503 366 503 334 471 c 128,-1,2
 302 439 302 439 256 439 c 128,-1,3
 210 439.002 210 439.002 178 471 c 128,-1,4
 146 503 146 503 146 549 c 128,-1,5
 146 595 146 595 178 627 c 128,-1,6
 210 659 210 659 256 658 c 0,7,8
 302 658 302 658 334 627 c 0,9,0
 366 595 366 595 366 549 c 128,-1,1
951 329 m 1,10,-1
 951 73 l 1,11,-1
 146 73 l 1,12,-1
 146 183 l 1,13,-1
 329 366 l 1,14,-1
 421 274 l 1,15,-1
 713 567 l 1,16,-1
 951 329 l 1,10,-1
1006 731 m 2,17,-1
 91 731 l 2,18,19
 84 730.991 84 730.991 79 726 c 128,-1,20
 74 720.991 74 720.991 73 713 c 1,21,-1
 73 18 l 2,22,23
 73 11 73 11 79 5 c 0,24,25
 84 0 84 0 91 0 c 2,26,-1
 1006 0 l 2,27,28
 1013.01 0 1013.01 0 1019 5 c 0,29,30
 1024 10 1024 10 1024 18 c 2,31,-1
 1024 713 l 2,32,33
 1023.95 720.022 1023.95 720.022 1019 726 c 1,34,35
 1013 731 1013 731 1006 731 c 2,17,-1
1097 713 m 2,36,-1
 1097 18 l 2,37,38
 1097 -20 1097 -20 1070 -46 c 0,39,40
 1043 -73 1043 -73 1006 -73 c 2,41,-1
 91 -73 l 2,42,43
 53 -73 53 -73 27 -46 c 0,44,45
 0 -19 0 -19 0 18 c 2,46,-1
 0 713 l 2,47,48
 0 751 0 751 27 777 c 0,49,50
 54 804.009 54 804.009 91 805 c 2,51,-1
 1006 805 l 2,52,53
 1044.02 805 1044.02 805 1070 777 c 1,54,55
 1097 750.991 1097 750.991 1097 713 c 2,36,-1
EndSplineSet
Validated: 524321
EndChar

StartChar: uniF040
Encoding: 62 61504 61
Width: 877
LayerCount: 5
Fore
SplineSet
208 0 m 1,0,-1
 259 52 l 1,1,-1
 125 186 l 1,2,-1
 73 134 l 1,3,-1
 73 73 l 1,4,-1
 146 73 l 1,5,-1
 146 0 l 1,6,-1
 208 0 l 1,0,-1
506 530 m 0,7,8
 506 542.006 506 542.006 494 543 c 0,9,10
 487.989 543 487.989 543 484 539 c 2,11,-1
 174 229 l 2,12,13
 170 225 170 225 170 219 c 0,14,15
 170 207 170 207 183 207 c 0,16,17
 189.001 207.004 189.001 207.004 193 211 c 2,18,-1
 503 520 l 2,19,20
 506 524.006 506 524.006 506 530 c 0,7,8
475 640 m 1,21,-1
 713 402 l 1,22,-1
 238 -73 l 1,23,-1
 0 -73 l 1,24,-1
 0 165 l 1,25,-1
 475 640 l 1,21,-1
865 585 m 0,26,27
 864.99 554 864.99 554 845 534 c 2,28,-1
 750 439 l 1,29,-1
 512 677 l 1,30,-1
 607 771 l 1,31,32
 627 793.006 627 793.006 658 793 c 128,-1,33
 689.002 793 689.002 793 711 771 c 2,34,-1
 845 637 l 1,35,36
 865 615 865 615 865 585 c 0,26,27
EndSplineSet
Validated: 524321
EndChar

StartChar: uniF041
Encoding: 63 61505 62
Width: 584
LayerCount: 5
Fore
SplineSet
439 512 m 128,-1,1
 438.997 572.002 438.997 572.002 396 615 c 128,-1,2
 353 657.999 353 657.999 293 658 c 128,-1,3
 233 658 233 658 189 615 c 0,4,5
 146 572 146 572 146 512 c 128,-1,6
 146 451.999 146 451.999 189 409 c 128,-1,7
 232 365.999 232 365.999 293 366 c 0,8,9
 353 366 353 366 396 409 c 128,-1,0
 439 452 439 452 439 512 c 128,-1,1
585 512 m 0,10,11
 585 450 585 450 566 410 c 2,12,-1
 358 -33 l 2,13,14
 349 -51 349 -51 331 -62 c 128,-1,15
 313 -73 313 -73 293 -73 c 128,-1,16
 273 -73.0003 273 -73.0003 254 -62 c 0,17,18
 236 -51 236 -51 227 -33 c 2,19,-1
 18 410 l 2,20,21
 0 450 0 450 0 512 c 0,22,23
 0 633 0 633 86 719 c 128,-1,24
 172 805 172 805 293 805 c 128,-1,25
 414 805 414 805 500 719 c 0,26,27
 585.002 633 585.002 633 585 512 c 0,10,11
EndSplineSet
Validated: 524321
EndChar

StartChar: uniF042
Encoding: 64 61506 63
Width: 877
LayerCount: 5
Fore
SplineSet
439 805 m 128,-1,1
 559 805 559 805 659 745 c 1,2,3
 759.002 687 759.002 687 819 586 c 1,4,5
 877.003 486 877.003 486 878 366 c 1,6,7
 877.993 246 877.993 246 819 145 c 0,8,9
 761 45 761 45 659 -14 c 0,10,11
 559 -72 559 -72 439 -73 c 0,12,13
 319 -73 319 -73 218 -14 c 0,14,15
 118 44 118 44 58 145 c 1,16,17
 0 245 0 245 0 366 c 0,18,19
 0 486 0 486 58 586 c 128,-1,20
 116 686 116 686 218 745 c 1,21,0
 319 805 319 805 439 805 c 128,-1,1
146 366 m 128,-1,23
 146 307 146 307 169 252 c 1,24,25
 193 198 193 198 232 159 c 0,26,27
 272 119 272 119 326 96 c 0,28,29
 380.001 72 380.001 72 439 73 c 1,30,-1
 439 658 l 1,31,32
 380 657.992 380 657.992 326 635 c 0,33,34
 272 611 272 611 232 572 c 0,35,36
 192 532 192 532 169 479 c 0,37,22
 146 425 146 425 146 366 c 128,-1,23
EndSplineSet
Validated: 524321
EndChar

StartChar: uniF043
Encoding: 65 61507 64
Width: 584
LayerCount: 5
Fore
SplineSet
293 219 m 0,0,1
 293 239 293 239 282 259 c 0,2,3
 280.995 260 280.995 260 272 271 c 1,4,5
 264 283.001 264 283.001 258 294 c 0,6,7
 251.999 303 251.999 303 244 318 c 128,-1,8
 235.999 333.001 235.999 333.001 231 347 c 1,9,10
 229 356 229 356 219 356 c 0,11,12
 210 356 210 356 208 347 c 0,13,14
 204 333.999 204 333.999 196 318 c 0,15,16
 188 303 188 303 181 294 c 0,17,18
 174.998 285 174.998 285 167 271 c 0,19,20
 159 259 159 259 158 259 c 0,21,22
 147 241 147 241 146 219 c 1,23,24
 146 188 146 188 168 168 c 1,25,26
 190 146 190 146 219 146 c 0,27,28
 250 146 250 146 271 168 c 1,29,30
 293 188 293 188 293 219 c 0,0,1
585 293 m 0,31,32
 585 172 585 172 500 86 c 0,33,34
 414 0 414 0 293 0 c 128,-1,35
 172 0 172 0 86 86 c 128,-1,36
 0 172 0 172 0 293 c 0,37,38
 0 376 0 376 46 450 c 0,39,40
 49 455.003 49 455.003 82 502 c 0,41,42
 115 548.001 115 548.001 139 588 c 1,43,44
 165 628.002 165 628.002 197 689 c 0,45,46
 229 751 229 751 244 805 c 0,47,48
 249 822 249 822 263 831 c 128,-1,49
 277 840.021 277 840.021 293 841 c 0,50,51
 308.001 841 308.001 841 322 831 c 0,52,53
 336.002 822.007 336.002 822.007 341 805 c 0,54,55
 357 751.998 357 751.998 388 689 c 1,56,57
 420 626.998 420 626.998 445 588 c 0,58,59
 471 548 471 548 503 502 c 0,60,61
 536 455.999 536 455.999 539 450 c 0,62,63
 585.005 378 585.005 378 585 293 c 0,31,32
EndSplineSet
Validated: 524321
EndChar

StartChar: uniF044
Encoding: 66 61508 65
Width: 1024
LayerCount: 5
Fore
SplineSet
508 201 m 1,0,-1
 573 267 l 1,1,-1
 486 354 l 1,2,-1
 421 288 l 1,3,-1
 421 256 l 1,4,-1
 475 256 l 1,5,-1
 475 201 l 1,6,-1
 508 201 l 1,0,-1
759 612 m 128,-1,8
 750 621 750 621 740 612 c 2,9,-1
 540 412 l 2,10,11
 531 402.997 531 402.997 540 393 c 0,12,13
 549 384 549 384 558 393 c 2,14,-1
 759 594 l 2,15,7
 768 603 768 603 759 612 c 128,-1,8
805 273 m 2,16,-1
 805 165 l 2,17,18
 805 97 805 97 757 48 c 0,19,20
 709 0 709 0 640 0 c 2,21,-1
 165 0 l 2,22,23
 97 0 97 0 48 48 c 0,24,25
 0 96 0 96 0 165 c 2,26,-1
 0 640 l 2,27,28
 0 708 0 708 48 757 c 0,29,30
 96 805 96 805 165 805 c 2,31,-1
 640 805 l 2,32,33
 676.001 805.003 676.001 805.003 707 791 c 0,34,35
 715 787 715 787 717 777 c 0,36,37
 719 768 719 768 712 761 c 2,38,-1
 684 732 l 2,39,40
 676 723.945 676 723.945 666 728 c 1,41,42
 653 731 653 731 640 731 c 2,43,-1
 165 731 l 2,44,45
 127 730.995 127 730.995 100 705 c 0,46,47
 73 677.998 73 677.998 73 640 c 2,48,-1
 73 165 l 2,49,50
 73 127 73 127 100 100 c 128,-1,51
 127 73 127 73 165 73 c 2,52,-1
 640 73 l 2,53,54
 678 73 678 73 705 100 c 128,-1,55
 732 127 732 127 731 165 c 1,56,-1
 731 237 l 2,57,58
 731 244 731 244 736 249 c 2,59,-1
 773 286 l 2,60,61
 781 294.018 781 294.018 794 290 c 1,62,63
 805 285 805 285 805 273 c 2,16,-1
750 695 m 1,64,-1
 914 530 l 1,65,-1
 530 146 l 1,66,-1
 366 146 l 1,67,-1
 366 311 l 1,68,-1
 750 695 l 1,64,-1
1004 620 m 2,69,-1
 951 567 l 1,70,-1
 786 731 l 1,71,-1
 839 784 l 2,72,73
 855 800.018 855 800.018 878 800 c 128,-1,74
 901 800 901 800 916 784 c 2,75,-1
 1004 697 l 2,76,77
 1020.01 681 1020.01 681 1020 658 c 0,78,79
 1020 636 1020 636 1004 620 c 2,69,-1
EndSplineSet
Validated: 524321
EndChar

StartChar: uniF045
Encoding: 67 61509 66
Width: 950
LayerCount: 5
Fore
SplineSet
805 312 m 2,0,-1
 805 165 l 2,1,2
 805 97 805 97 757 48 c 0,3,4
 709 0 709 0 640 0 c 2,5,-1
 165 0 l 2,6,7
 97 0 97 0 48 48 c 0,8,9
 0 96 0 96 0 165 c 2,10,-1
 0 640 l 2,11,12
 0 708 0 708 48 757 c 0,13,14
 96 805 96 805 165 805 c 2,15,-1
 310 805 l 2,16,17
 317 805 317 805 324 799 c 0,18,19
 329.013 793.985 329.013 793.985 329 786 c 0,20,21
 328.999 771 328.999 771 313 768 c 1,22,23
 269 753 269 753 238 734 c 1,24,25
 232 732 232 732 228 731 c 1,26,-1
 165 731 l 2,27,28
 127 730.995 127 730.995 100 705 c 0,29,30
 73 677.998 73 677.998 73 640 c 2,31,-1
 73 165 l 2,32,33
 73 127 73 127 100 100 c 128,-1,34
 127 73 127 73 165 73 c 2,35,-1
 640 73 l 2,36,37
 678 73 678 73 705 100 c 128,-1,38
 732 127 732 127 731 165 c 1,39,-1
 731 287 l 2,40,41
 731.012 298.004 731.012 298.004 741 303 c 0,42,43
 757.004 310 757.004 310 772 325 c 0,44,45
 781 334 781 334 793 329 c 0,46,47
 805 323 805 323 805 312 c 2,0,-1
940 596 m 2,48,-1
 721 377 l 2,49,50
 711 366 711 366 695 366 c 0,51,52
 688 366 688 366 681 369 c 0,53,54
 657.997 378 657.997 378 658 402 c 2,55,-1
 658 512 l 1,56,-1
 567 512 l 2,57,58
 383 512 383 512 316 437 c 1,59,60
 248 359 248 359 274 167 c 0,61,62
 275.998 154 275.998 154 263 147 c 1,63,64
 258.998 146 258.998 146 256 146 c 0,65,66
 247 146 247 146 241 154 c 128,-1,67
 235 162 235 162 229 171 c 128,-1,68
 223 180 223 180 207 211 c 0,69,70
 191 241 191 241 178 267 c 1,71,72
 166 295 166 295 157 333 c 0,73,74
 147 371 147 371 146 402 c 0,75,76
 146 430 146 430 148 455 c 0,77,78
 150 479 150 479 157 506 c 1,79,80
 163 534.001 163 534.001 172 556 c 0,81,82
 182 579 182 579 199 602 c 1,83,84
 215 626.002 215 626.002 239 645 c 0,85,86
 262 663 262 663 292 680 c 1,87,88
 324 696.004 324 696.004 364 708 c 0,89,90
 404 719 404 719 455 725 c 0,91,92
 507 731 507 731 567 731 c 2,93,-1
 658 731 l 1,94,-1
 658 841 l 2,95,96
 658 865 658 865 681 874 c 0,97,98
 688.013 877 688.013 877 695 878 c 1,99,100
 710 877.967 710 877.967 721 867 c 2,101,-1
 940 647 l 2,102,103
 951 635.995 951 635.995 951 622 c 0,104,105
 950.983 606.994 950.983 606.994 940 596 c 2,48,-1
EndSplineSet
Validated: 524321
EndChar

StartChar: uniF046
Encoding: 68 61510 67
Width: 950
LayerCount: 5
Fore
SplineSet
805 346 m 2,0,-1
 805 165 l 2,1,2
 805 97 805 97 757 48 c 0,3,4
 709 0 709 0 640 0 c 2,5,-1
 165 0 l 2,6,7
 97 0 97 0 48 48 c 0,8,9
 0 96 0 96 0 165 c 2,10,-1
 0 640 l 2,11,12
 0 708 0 708 48 757 c 0,13,14
 96 805 96 805 165 805 c 2,15,-1
 640 805 l 2,16,17
 676.001 805.003 676.001 805.003 707 791 c 0,18,19
 715 787 715 787 717 777 c 0,20,21
 719 768 719 768 712 761 c 2,22,-1
 684 732 l 2,23,24
 678 725.981 678 725.981 671 727 c 0,25,26
 669.019 726.985 669.019 726.985 666 728 c 0,27,28
 653 731 653 731 640 731 c 2,29,-1
 165 731 l 2,30,31
 127 730.995 127 730.995 100 705 c 0,32,33
 73 677.998 73 677.998 73 640 c 2,34,-1
 73 165 l 2,35,36
 73 127 73 127 100 100 c 128,-1,37
 127 73 127 73 165 73 c 2,38,-1
 640 73 l 2,39,40
 678 73 678 73 705 100 c 128,-1,41
 732 127 732 127 731 165 c 1,42,-1
 731 309 l 2,43,44
 731 316 731 316 736 323 c 1,45,-1
 773 358 l 2,46,47
 779.006 364 779.006 364 786 365 c 0,48,49
 789 365 789 365 794 362 c 1,50,51
 805 358 805 358 805 346 c 2,0,-1
937 626 m 2,52,-1
 471 161 l 2,53,54
 457.999 148 457.999 148 439 146 c 1,55,56
 421 146 421 146 407 161 c 2,57,-1
 161 407 l 2,58,59
 148 420 148 420 146 439 c 1,60,61
 146 457 146 457 161 471 c 1,62,-1
 223 535 l 2,63,64
 236 548.01 236 548.01 256 548 c 0,65,66
 274 548 274 548 289 535 c 1,67,-1
 439 384 l 1,68,-1
 809 754 l 2,69,70
 822.004 767.017 822.004 767.017 841 767 c 0,71,72
 859 767 859 767 873 754 c 2,73,-1
 937 691 l 2,74,75
 949.997 678 949.997 678 950 658 c 0,76,77
 950 639 950 639 937 626 c 2,52,-1
EndSplineSet
Validated: 524321
EndChar

StartChar: uniF047
Encoding: 69 61511 68
Width: 1024
LayerCount: 5
Fore
SplineSet
1024 366 m 128,-1,1
 1023.96 351 1023.96 351 1013 340 c 2,2,-1
 867 194 l 2,3,4
 855.994 182.999 855.994 182.999 841 183 c 128,-1,5
 825.992 183 825.992 183 815 194 c 128,-1,6
 803.978 205 803.978 205 805 219 c 1,7,-1
 805 293 l 1,8,-1
 585 293 l 1,9,-1
 585 73 l 1,10,-1
 658 73 l 2,11,12
 673 73 673 73 684 62 c 128,-1,13
 695 51 695 51 695 37 c 0,14,15
 694.987 22 694.987 22 684 11 c 2,16,-1
 538 -135 l 2,17,18
 526.994 -145.998 526.994 -145.998 512 -146 c 128,-1,19
 497 -146 497 -146 486 -135 c 2,20,-1
 340 11 l 2,21,22
 329 22 329 22 329 37 c 128,-1,23
 329.001 52 329.001 52 340 62 c 0,24,25
 351.003 73.0003 351.003 73.0003 366 73 c 2,26,-1
 439 73 l 1,27,-1
 439 293 l 1,28,-1
 219 293 l 1,29,-1
 219 219 l 2,30,31
 219 204 219 204 209 194 c 0,32,33
 198 182.999 198 182.999 183 183 c 128,-1,34
 168 183 168 183 157 194 c 2,35,-1
 11 340 l 2,36,37
 0 351.003 0 351.003 0 366 c 128,-1,38
 0 381 0 381 11 391 c 2,39,-1
 157 538 l 2,40,41
 168 549 168 549 183 549 c 128,-1,42
 198 548.995 198 548.995 209 538 c 128,-1,43
 220 526.994 220 526.994 219 512 c 1,44,-1
 219 439 l 1,45,-1
 439 439 l 1,46,-1
 439 658 l 1,47,-1
 366 658 l 2,48,49
 351 658 351 658 340 669 c 128,-1,50
 329 680 329 680 329 695 c 128,-1,51
 329.001 710 329.001 710 340 721 c 2,52,-1
 486 867 l 2,53,54
 497.001 878 497.001 878 512 878 c 128,-1,55
 527 877.967 527 877.967 538 867 c 2,56,-1
 684 721 l 2,57,58
 695 710 695 710 695 695 c 128,-1,59
 694.987 680.001 694.987 680.001 684 669 c 128,-1,60
 672.993 657.985 672.993 657.985 658 658 c 2,61,-1
 585 658 l 1,62,-1
 585 439 l 1,63,-1
 805 439 l 1,64,-1
 805 512 l 2,65,66
 805.016 527 805.016 527 815 538 c 0,67,68
 826 549 826 549 841 549 c 128,-1,69
 856 548.995 856 548.995 867 538 c 2,70,-1
 1013 391 l 2,71,0
 1024 380.997 1024 380.997 1024 366 c 128,-1,1
EndSplineSet
Validated: 524289
EndChar

StartChar: uniF048
Encoding: 70 61512 69
Width: 584
LayerCount: 5
Fore
SplineSet
559 797 m 2,0,1
 570 808 570 808 578 805 c 0,2,3
 585.036 802 585.036 802 585 786 c 2,4,-1
 585 -55 l 2,5,6
 585 -70 585 -70 578 -73 c 128,-1,7
 571 -76 571 -76 559 -66 c 1,8,-1
 154 340 l 2,9,10
 149 345.002 149 345.002 146 351 c 1,11,-1
 146 -37 l 2,12,13
 145.998 -52 145.998 -52 135 -62 c 0,14,15
 124 -73 124 -73 110 -73 c 2,16,-1
 37 -73 l 2,17,18
 22 -73.0003 22 -73.0003 11 -62 c 128,-1,19
 0 -51 0 -51 0 -37 c 2,20,-1
 0 768 l 2,21,22
 0 783 0 783 11 794 c 128,-1,23
 22 805 22 805 37 805 c 2,24,-1
 110 805 l 2,25,26
 125 804.992 125 804.992 135 794 c 0,27,28
 146 782.991 146 782.991 146 768 c 2,29,-1
 146 381 l 1,30,31
 148 387 148 387 154 391 c 1,32,-1
 559 797 l 2,0,1
EndSplineSet
Validated: 524289
EndChar

StartChar: uniF049
Encoding: 71 61513 70
Width: 1024
LayerCount: 5
Fore
SplineSet
998 797 m 2,0,1
 1009 808 1009 808 1017 805 c 0,2,3
 1024.05 802 1024.05 802 1024 786 c 2,4,-1
 1024 -55 l 2,5,6
 1024 -70 1024 -70 1017 -73 c 128,-1,7
 1010 -76 1010 -76 998 -66 c 1,8,-1
 593 340 l 2,9,10
 587.966 345.002 587.966 345.002 585 351 c 1,11,-1
 585 -55 l 2,12,13
 585 -70 585 -70 578 -73 c 128,-1,14
 571 -76 571 -76 559 -66 c 1,15,-1
 154 340 l 2,16,17
 149 345.002 149 345.002 146 351 c 1,18,-1
 146 -37 l 2,19,20
 145.998 -52 145.998 -52 135 -62 c 0,21,22
 124 -73 124 -73 110 -73 c 2,23,-1
 37 -73 l 2,24,25
 22 -73.0003 22 -73.0003 11 -62 c 128,-1,26
 0 -51 0 -51 0 -37 c 2,27,-1
 0 768 l 2,28,29
 0 783 0 783 11 794 c 128,-1,30
 22 805 22 805 37 805 c 2,31,-1
 110 805 l 2,32,33
 125 804.992 125 804.992 135 794 c 0,34,35
 146 782.991 146 782.991 146 768 c 2,36,-1
 146 381 l 1,37,38
 148 387 148 387 154 391 c 1,39,-1
 559 797 l 2,40,41
 570 808 570 808 578 805 c 0,42,43
 585.036 802 585.036 802 585 786 c 2,44,-1
 585 381 l 1,45,46
 587 387 587 387 593 391 c 1,47,-1
 998 797 l 2,0,1
EndSplineSet
Validated: 524289
EndChar

StartChar: uniF04A
Encoding: 72 61514 71
Width: 950
LayerCount: 5
Fore
SplineSet
925 797 m 2,0,1
 936 808 936 808 943 805 c 128,-1,2
 950.054 802 950.054 802 951 786 c 2,3,-1
 951 -55 l 2,4,5
 950.973 -70 950.973 -70 943 -73 c 0,6,7
 936 -76 936 -76 925 -66 c 2,8,-1
 519 340 l 2,9,10
 515 345.002 515 345.002 512 351 c 1,11,-1
 512 -55 l 2,12,13
 511.988 -70 511.988 -70 505 -73 c 128,-1,14
 497.996 -76 497.996 -76 486 -66 c 1,15,-1
 81 340 l 2,16,17
 70 351.003 70 351.003 70 366 c 128,-1,18
 70.0002 381 70.0002 381 81 391 c 2,19,-1
 486 797 l 2,20,21
 497.009 808 497.009 808 505 805 c 0,22,23
 512 802 512 802 512 786 c 2,24,-1
 512 381 l 1,25,26
 515.012 387 515.012 387 519 391 c 2,27,-1
 925 797 l 2,0,1
EndSplineSet
Validated: 524289
EndChar

StartChar: uniF04B
Encoding: 73 61515 72
Width: 803
LayerCount: 5
Fore
SplineSet
791 348 m 2,0,-1
 32 -74 l 2,1,2
 19 -80.9989 19 -80.9989 9 -76 c 1,3,4
 0 -70 0 -70 0 -55 c 2,5,-1
 0 786 l 2,6,7
 0 801 0 801 9 807 c 128,-1,8
 18 813.015 18 813.015 32 805 c 2,9,-1
 791 383 l 2,10,11
 804.02 375.997 804.02 375.997 804 366 c 0,12,13
 804 355 804 355 791 348 c 2,0,-1
EndSplineSet
Validated: 524289
EndChar

StartChar: uniF04C
Encoding: 74 61516 73
Width: 877
LayerCount: 5
Fore
SplineSet
878 768 m 2,0,-1
 878 -37 l 2,1,2
 877.967 -52 877.967 -52 867 -62 c 0,3,4
 855.994 -73 855.994 -73 841 -73 c 2,5,-1
 549 -73 l 2,6,7
 533.997 -73.0003 533.997 -73.0003 523 -62 c 128,-1,8
 512 -51 512 -51 512 -37 c 2,9,-1
 512 768 l 2,10,11
 512 783 512 783 523 794 c 128,-1,12
 534 805 534 805 549 805 c 2,13,-1
 841 805 l 2,14,15
 856 804.992 856 804.992 867 794 c 128,-1,16
 878 782.991 878 782.991 878 768 c 2,0,-1
366 768 m 2,17,-1
 366 -37 l 2,18,19
 366 -52 366 -52 355 -62 c 0,20,21
 344 -73 344 -73 329 -73 c 2,22,-1
 37 -73 l 2,23,24
 22 -73.0003 22 -73.0003 11 -62 c 128,-1,25
 0 -51 0 -51 0 -37 c 2,26,-1
 0 768 l 2,27,28
 0 783 0 783 11 794 c 128,-1,29
 22 805 22 805 37 805 c 2,30,-1
 329 805 l 2,31,32
 344.002 804.992 344.002 804.992 355 794 c 128,-1,33
 366.002 782.991 366.002 782.991 366 768 c 2,17,-1
EndSplineSet
Validated: 524289
EndChar

StartChar: uniF04D
Encoding: 75 61517 74
Width: 877
LayerCount: 5
Fore
SplineSet
878 768 m 2,0,-1
 878 -37 l 2,1,2
 877.967 -52 877.967 -52 867 -62 c 0,3,4
 855.994 -73 855.994 -73 841 -73 c 2,5,-1
 37 -73 l 2,6,7
 22 -73.0003 22 -73.0003 11 -62 c 128,-1,8
 0 -51 0 -51 0 -37 c 2,9,-1
 0 768 l 2,10,11
 0 783 0 783 11 794 c 128,-1,12
 22 805 22 805 37 805 c 2,13,-1
 841 805 l 2,14,15
 856 804.992 856 804.992 867 794 c 128,-1,16
 878 782.991 878 782.991 878 768 c 2,0,-1
EndSplineSet
Validated: 524289
EndChar

StartChar: uniF04E
Encoding: 76 61518 75
Width: 950
LayerCount: 5
Fore
SplineSet
26 -66 m 2,0,1
 15 -77 15 -77 7 -73 c 0,2,3
 0 -70 0 -70 0 -55 c 2,4,-1
 0 786 l 2,5,6
 0 801.008 0 801.008 7 805 c 0,7,8
 14 807.984 14 807.984 26 797 c 2,9,-1
 431 391 l 2,10,11
 435 387 435 387 439 381 c 1,12,-1
 439 786 l 2,13,14
 439 801.008 439 801.008 446 805 c 0,15,16
 453 807.984 453 807.984 465 797 c 2,17,-1
 870 391 l 2,18,19
 881 380 881 380 881 366 c 0,20,21
 880.98 351 880.98 351 870 340 c 2,22,-1
 465 -66 l 2,23,24
 454 -77 454 -77 446 -73 c 0,25,26
 438.994 -70 438.994 -70 439 -55 c 2,27,-1
 439 351 l 1,28,29
 436 345 436 345 431 340 c 2,30,-1
 26 -66 l 2,0,1
EndSplineSet
Validated: 524289
EndChar

StartChar: uniF050
Encoding: 77 61520 76
Width: 1024
LayerCount: 5
Fore
SplineSet
26 -66 m 2,0,1
 15 -77 15 -77 7 -73 c 0,2,3
 0 -70 0 -70 0 -55 c 2,4,-1
 0 786 l 2,5,6
 0 801.008 0 801.008 7 805 c 0,7,8
 14 807.984 14 807.984 26 797 c 2,9,-1
 431 391 l 2,10,11
 435 387 435 387 439 381 c 1,12,-1
 439 786 l 2,13,14
 439 801.008 439 801.008 446 805 c 0,15,16
 453 807.984 453 807.984 465 797 c 2,17,-1
 870 391 l 2,18,19
 874.055 387 874.055 387 878 381 c 1,20,-1
 878 768 l 2,21,22
 878 783 878 783 889 794 c 128,-1,23
 900 805 900 805 914 805 c 2,24,-1
 987 805 l 2,25,26
 1002 804.992 1002 804.992 1013 794 c 128,-1,27
 1024 782.991 1024 782.991 1024 768 c 2,28,-1
 1024 -37 l 2,29,30
 1023.96 -52 1023.96 -52 1013 -62 c 0,31,32
 1002 -73 1002 -73 987 -73 c 2,33,-1
 914 -73 l 2,34,35
 899 -73.0003 899 -73.0003 889 -62 c 0,36,37
 877.968 -51 877.968 -51 878 -37 c 2,38,-1
 878 351 l 1,39,40
 875.004 345 875.004 345 870 340 c 2,41,-1
 465 -66 l 2,42,43
 454 -77 454 -77 446 -73 c 0,44,45
 438.994 -70 438.994 -70 439 -55 c 2,46,-1
 439 351 l 1,47,48
 436 345 436 345 431 340 c 2,49,-1
 26 -66 l 2,0,1
EndSplineSet
Validated: 524289
EndChar

StartChar: uniF051
Encoding: 78 61521 77
Width: 584
LayerCount: 5
Fore
SplineSet
26 -66 m 2,0,1
 15 -77 15 -77 7 -73 c 0,2,3
 0 -70 0 -70 0 -55 c 2,4,-1
 0 786 l 2,5,6
 0 801.008 0 801.008 7 805 c 0,7,8
 14 807.984 14 807.984 26 797 c 2,9,-1
 431 391 l 2,10,11
 435 387 435 387 439 381 c 1,12,-1
 439 768 l 2,13,14
 439.002 783 439.002 783 450 794 c 128,-1,15
 461.006 805 461.006 805 475 805 c 2,16,-1
 549 805 l 2,17,18
 564.002 804.992 564.002 804.992 574 794 c 0,19,20
 585 782.991 585 782.991 585 768 c 2,21,-1
 585 -37 l 2,22,23
 584.987 -52 584.987 -52 574 -62 c 0,24,25
 562.997 -73 562.997 -73 549 -73 c 2,26,-1
 475 -73 l 2,27,28
 459.998 -73.0003 459.998 -73.0003 450 -62 c 0,29,30
 439 -51 439 -51 439 -37 c 2,31,-1
 439 351 l 1,32,33
 436 345 436 345 431 340 c 2,34,-1
 26 -66 l 2,0,1
EndSplineSet
Validated: 524289
EndChar

StartChar: uniF052
Encoding: 79 61522 78
Width: 878
LayerCount: 5
Fore
SplineSet
8 318 m 2,0,-1
 414 724 l 2,1,2
 425 735 425 735 439 735 c 0,3,4
 454 734.984 454 734.984 465 724 c 2,5,-1
 870 318 l 2,6,7
 881 307 881 307 879 300 c 0,8,9
 876 292.997 876 292.997 860 293 c 2,10,-1
 18 293 l 2,11,12
 3 293 3 293 1 300 c 1,13,14
 -3 307 -3 307 8 318 c 2,0,-1
842 0 m 2,15,-1
 37 0 l 2,16,17
 22 0 22 0 11 11 c 128,-1,18
 0 22 0 22 1 37 c 1,19,-1
 1 183 l 2,20,21
 1 198 1 198 11 209 c 0,22,23
 22 220 22 220 37 219 c 1,24,-1
 842 219 l 2,25,26
 857.002 219 857.002 219 867 209 c 0,27,28
 878 198 878 198 879 183 c 1,29,-1
 879 37 l 2,30,31
 879 22 879 22 867 11 c 1,32,33
 857 0 857 0 842 0 c 2,15,-1
EndSplineSet
Validated: 524289
EndChar

StartChar: uniF053
Encoding: 80 61523 79
Width: 657
LayerCount: 5
Fore
SplineSet
424 -22 m 2,0,-1
 51 351 l 2,1,2
 29 373 29 373 31 402 c 1,3,4
 31 433 31 433 51 455 c 1,5,-1
 424 826 l 2,6,7
 446 848.012 446 848.012 476 848 c 0,8,9
 507 848 507 848 527 826 c 1,10,-1
 570 783 l 2,11,12
 592.004 761 592.004 761 592 732 c 0,13,14
 592 701 592 701 570 680 c 2,15,-1
 293 402 l 1,16,-1
 570 125 l 2,17,18
 592.004 103 592.004 103 592 73 c 0,19,20
 592 42 592 42 570 22 c 1,21,-1
 527 -22 l 2,22,23
 505 -44 505 -44 476 -42 c 1,24,25
 445.998 -44.0001 445.998 -44.0001 424 -22 c 2,0,-1
EndSplineSet
Validated: 524321
EndChar

StartChar: uniF054
Encoding: 81 61524 80
Width: 657
LayerCount: 5
Fore
SplineSet
628 402 m 0,0,1
 628 372 628 372 607 350 c 2,2,-1
 234 -22 l 2,3,4
 212 -44 212 -44 183 -43 c 1,5,6
 152 -43 152 -43 131 -22 c 2,7,-1
 88 22 l 2,8,9
 66 45 66 45 67 73 c 1,10,11
 67 104 67 104 88 125 c 2,12,-1
 366 402 l 1,13,-1
 88 680 l 2,14,15
 66 703 66 703 67 731 c 1,16,17
 67 762.004 67 762.004 88 783 c 2,18,-1
 131 825 l 1,19,20
 151 847.026 151 847.026 183 848 c 0,21,22
 214 847.991 214 847.991 234 825 c 1,23,-1
 607 454 l 2,24,25
 628 432.999 628 432.999 628 402 c 0,0,1
EndSplineSet
Validated: 524321
EndChar

StartChar: uniF055
Encoding: 82 61525 81
Width: 877
LayerCount: 5
Fore
SplineSet
695 329 m 2,0,-1
 695 402 l 2,1,2
 694.987 417.002 694.987 417.002 684 428 c 128,-1,3
 672.993 439.004 672.993 439.004 658 439 c 2,4,-1
 512 439 l 1,5,-1
 512 585 l 2,6,7
 512 600 512 600 501 611 c 128,-1,8
 490 622 490 622 475 622 c 2,9,-1
 402 622 l 2,10,11
 386.998 621.977 386.998 621.977 377 611 c 0,12,13
 366 599.996 366 599.996 366 585 c 2,14,-1
 366 439 l 1,15,-1
 219 439 l 2,16,17
 204 439 204 439 194 428 c 0,18,19
 182.999 417 182.999 417 183 402 c 2,20,-1
 183 329 l 2,21,22
 183 314 183 314 194 303 c 128,-1,23
 205 292 205 292 219 293 c 1,24,-1
 366 293 l 1,25,-1
 366 146 l 2,26,27
 366.008 131 366.008 131 377 121 c 0,28,29
 388.001 110 388.001 110 402 110 c 2,30,-1
 475 110 l 2,31,32
 489.999 110.001 489.999 110.001 501 121 c 128,-1,33
 512.006 132 512.006 132 512 146 c 2,34,-1
 512 293 l 1,35,-1
 658 293 l 2,36,37
 673 293 673 293 684 303 c 0,38,39
 695 314.002 695 314.002 695 329 c 2,0,-1
878 366 m 128,-1,41
 877.993 246 877.993 246 819 145 c 0,42,43
 761 45 761 45 659 -14 c 0,44,45
 559 -72 559 -72 439 -73 c 0,46,47
 319 -73 319 -73 218 -14 c 0,48,49
 118 44 118 44 58 145 c 1,50,51
 0 245 0 245 0 366 c 0,52,53
 0 486 0 486 58 586 c 128,-1,54
 116 686 116 686 218 745 c 0,55,56
 318 803 318 803 439 805 c 1,57,58
 559 805 559 805 659 745 c 1,59,60
 759.002 687 759.002 687 819 586 c 0,61,40
 878 486 878 486 878 366 c 128,-1,41
EndSplineSet
Validated: 524289
EndChar

StartChar: uniF056
Encoding: 83 61526 82
Width: 877
LayerCount: 5
Fore
SplineSet
695 329 m 2,0,-1
 695 402 l 2,1,2
 694.987 417.002 694.987 417.002 684 428 c 128,-1,3
 672.993 439.004 672.993 439.004 658 439 c 2,4,-1
 219 439 l 2,5,6
 204 439 204 439 194 428 c 0,7,8
 182.999 417 182.999 417 183 402 c 2,9,-1
 183 329 l 2,10,11
 183 314 183 314 194 303 c 128,-1,12
 205 292 205 292 219 293 c 1,13,-1
 658 293 l 2,14,15
 673 293 673 293 684 303 c 0,16,17
 695 314.002 695 314.002 695 329 c 2,0,-1
878 366 m 128,-1,19
 877.993 246 877.993 246 819 145 c 0,20,21
 761 45 761 45 659 -14 c 0,22,23
 559 -72 559 -72 439 -73 c 0,24,25
 319 -73 319 -73 218 -14 c 0,26,27
 118 44 118 44 58 145 c 1,28,29
 0 245 0 245 0 366 c 0,30,31
 0 486 0 486 58 586 c 128,-1,32
 116 686 116 686 218 745 c 0,33,34
 318 803 318 803 439 805 c 1,35,36
 559 805 559 805 659 745 c 1,37,38
 759.002 687 759.002 687 819 586 c 0,39,18
 878 486 878 486 878 366 c 128,-1,19
EndSplineSet
Validated: 524289
EndChar

StartChar: uniF057
Encoding: 84 61527 83
Width: 877
LayerCount: 5
Fore
SplineSet
656 237 m 128,-1,1
 656 252.001 656 252.001 646 262 c 2,2,-1
 543 366 l 1,3,-1
 646 469 l 2,4,5
 657 480.004 657 480.004 656 495 c 0,6,7
 656 510 656 510 646 521 c 2,8,-1
 594 572 l 2,9,10
 583.001 583 583.001 583 568 584 c 0,11,12
 553 584 553 584 543 572 c 1,13,-1
 439 469 l 1,14,-1
 336 572 l 2,15,16
 325 583 325 583 309 584 c 0,17,18
 294 584 294 584 284 572 c 1,19,-1
 232 521 l 2,20,21
 220.999 509.997 220.999 509.997 221 495 c 128,-1,22
 221 480 221 480 232 469 c 2,23,-1
 336 366 l 1,24,-1
 232 262 l 2,25,26
 220.999 250.999 220.999 250.999 221 237 c 0,27,28
 221 222 221 222 232 210 c 2,29,-1
 284 159 l 2,30,31
 295.001 148 295.001 148 309 148 c 0,32,33
 324 148 324 148 336 159 c 2,34,-1
 439 262 l 1,35,-1
 543 159 l 2,36,37
 554 148 554 148 568 148 c 0,38,39
 583 148 583 148 594 159 c 2,40,-1
 646 210 l 1,41,0
 656.016 222 656.016 222 656 237 c 128,-1,1
878 366 m 128,-1,43
 877.993 246 877.993 246 819 145 c 0,44,45
 761 45 761 45 659 -14 c 0,46,47
 559 -72 559 -72 439 -73 c 0,48,49
 319 -73 319 -73 218 -14 c 0,50,51
 118 44 118 44 58 145 c 1,52,53
 0 245 0 245 0 366 c 0,54,55
 0 486 0 486 58 586 c 128,-1,56
 116 686 116 686 218 745 c 0,57,58
 318 803 318 803 439 805 c 1,59,60
 559 805 559 805 659 745 c 1,61,62
 759.002 687 759.002 687 819 586 c 0,63,42
 878 486 878 486 878 366 c 128,-1,43
EndSplineSet
Validated: 524289
EndChar

StartChar: uniF058
Encoding: 85 61528 84
Width: 877
LayerCount: 5
Fore
SplineSet
734 459 m 0,0,1
 733.975 475 733.975 475 723 484 c 1,2,-1
 672 536 l 2,3,4
 660.996 547 660.996 547 646 547 c 128,-1,5
 630.998 546.986 630.998 546.986 620 536 c 2,6,-1
 387 303 l 1,7,-1
 258 432 l 2,8,9
 247 443.003 247 443.003 232 443 c 128,-1,10
 217 443 217 443 206 432 c 2,11,-1
 155 381 l 2,12,13
 145 370.999 145 370.999 144 355 c 0,14,15
 144 340 144 340 155 329 c 2,16,-1
 361 122 l 2,17,18
 372 111 372 111 387 112 c 0,19,20
 402.001 112 402.001 112 413 122 c 2,21,-1
 723 432 l 2,22,23
 734 444 734 444 734 459 c 0,0,1
878 366 m 128,-1,25
 877.993 246 877.993 246 819 145 c 0,26,27
 761 45 761 45 659 -14 c 0,28,29
 559 -72 559 -72 439 -73 c 0,30,31
 319 -73 319 -73 218 -14 c 0,32,33
 118 44 118 44 58 145 c 1,34,35
 0 245 0 245 0 366 c 0,36,37
 0 486 0 486 58 586 c 128,-1,38
 116 686 116 686 218 745 c 0,39,40
 318 803 318 803 439 805 c 1,41,42
 559 805 559 805 659 745 c 1,43,44
 759.002 687 759.002 687 819 586 c 0,45,24
 878 486 878 486 878 366 c 128,-1,25
EndSplineSet
Validated: 524289
EndChar

StartChar: uniF059
Encoding: 86 61529 85
Width: 877
LayerCount: 5
Fore
SplineSet
512 91 m 2,0,-1
 512 201 l 2,1,2
 512 208.002 512 208.002 507 214 c 0,3,4
 502 219 502 219 494 219 c 2,5,-1
 384 219 l 2,6,7
 376.995 218.999 376.995 218.999 371 214 c 0,8,9
 366 208.999 366 208.999 366 201 c 2,10,-1
 366 91 l 2,11,12
 366.008 84 366.008 84 371 79 c 128,-1,13
 376.003 74 376.003 74 384 73 c 1,14,-1
 494 73 l 2,15,16
 501 73 501 73 507 79 c 0,17,18
 512.012 84 512.012 84 512 91 c 2,0,-1
658 475 m 0,19,20
 658 530.001 658 530.001 625 573 c 0,21,22
 591 616.001 591 616.001 543 637 c 1,23,24
 493.999 657 493.999 657 439 658 c 0,25,26
 385 658 385 658 336 637 c 0,27,28
 286.999 616.997 286.999 616.997 253 573 c 0,29,30
 219 530 219 530 219 475 c 2,31,-1
 219 469 l 1,32,-1
 219 462 l 1,33,-1
 220 455 l 1,34,-1
 222 449 l 1,35,-1
 225 444 l 1,36,-1
 229 440 l 1,37,-1
 238 439 l 1,38,-1
 347 439 l 2,39,40
 355.003 439.019 355.003 439.019 360 444 c 128,-1,41
 365 449.003 365 449.003 366 457 c 0,42,43
 366 464 366 464 372 472 c 0,44,45
 383.004 488.999 383.004 488.999 400 501 c 1,46,47
 418 512.006 418 512.006 439 512 c 0,48,49
 462 512 462 512 486 500 c 0,50,51
 512 488 512 488 511 467 c 0,52,53
 511 449 511 449 497 434 c 1,54,55
 481.997 420 481.997 420 460 409 c 128,-1,56
 438 398 438 398 418 385 c 1,57,58
 395.999 371.999 395.999 371.999 381 348 c 128,-1,59
 366 323.999 366 323.999 366 293 c 2,60,-1
 366 287 l 1,61,-1
 366 279 l 1,62,-1
 367 272 l 1,63,-1
 368 265 l 1,64,-1
 372 261 l 1,65,-1
 376 257 l 1,66,-1
 384 256 l 1,67,-1
 494 256 l 2,68,69
 503.004 256 503.004 256 508 262 c 0,70,71
 512 268.002 512 268.002 512 276 c 1,72,73
 513.023 284.001 513.023 284.001 520 295 c 128,-1,74
 527 306 527 306 541 313 c 0,75,76
 575.003 331 575.003 331 582 336 c 0,77,78
 618.002 362.001 618.002 362.001 637 397 c 1,79,80
 658 433 658 433 658 475 c 0,19,20
878 366 m 128,-1,82
 877.993 246 877.993 246 819 145 c 0,83,84
 761 45 761 45 659 -14 c 0,85,86
 559 -72 559 -72 439 -73 c 0,87,88
 319 -73 319 -73 218 -14 c 0,89,90
 118 44 118 44 58 145 c 1,91,92
 0 245 0 245 0 366 c 0,93,94
 0 486 0 486 58 586 c 128,-1,95
 116 686 116 686 218 745 c 0,96,97
 318 803 318 803 439 805 c 1,98,99
 559 805 559 805 659 745 c 1,100,101
 759.002 687 759.002 687 819 586 c 0,102,81
 878 486 878 486 878 366 c 128,-1,82
EndSplineSet
Validated: 524321
EndChar

StartChar: uniF05A
Encoding: 87 61530 86
Width: 877
LayerCount: 5
Fore
SplineSet
585 91 m 2,0,-1
 585 128 l 2,1,2
 584.947 136 584.947 136 580 141 c 128,-1,3
 574.999 146 574.999 146 567 146 c 2,4,-1
 512 146 l 1,5,-1
 512 421 l 2,6,7
 512 429.002 512 429.002 507 434 c 128,-1,8
 502 439.006 502 439.006 494 439 c 2,9,-1
 311 439 l 2,10,11
 303 439 303 439 298 434 c 128,-1,12
 293 429 293 429 293 421 c 2,13,-1
 293 384 l 2,14,15
 293.003 376 293.003 376 298 371 c 128,-1,16
 303.003 366 303.003 366 311 366 c 2,17,-1
 366 366 l 1,18,-1
 366 146 l 1,19,-1
 311 146 l 2,20,21
 303 146 303 146 298 141 c 128,-1,22
 293 135.999 293 135.999 293 128 c 2,23,-1
 293 91 l 2,24,25
 293.003 83 293.003 83 298 78 c 128,-1,26
 303.003 73 303.003 73 311 73 c 2,27,-1
 567 73 l 2,28,29
 575 73.0002 575 73.0002 580 78 c 128,-1,30
 585 83.0005 585 83.0005 585 91 c 2,0,-1
512 530 m 2,31,-1
 512 640 l 2,32,33
 512 648 512 648 507 653 c 128,-1,34
 502 658 502 658 494 658 c 2,35,-1
 384 658 l 2,36,37
 376 658.002 376 658.002 371 653 c 128,-1,38
 366 647.985 366 647.985 366 640 c 2,39,-1
 366 530 l 2,40,41
 366.008 521.99 366.008 521.99 371 517 c 128,-1,42
 376.003 512 376.003 512 384 512 c 2,43,-1
 494 512 l 2,44,45
 502.004 512 502.004 512 507 517 c 128,-1,46
 512.012 522 512.012 522 512 530 c 2,31,-1
878 366 m 128,-1,48
 877.993 246 877.993 246 819 145 c 0,49,50
 761 45 761 45 659 -14 c 0,51,52
 559 -72 559 -72 439 -73 c 0,53,54
 319 -73 319 -73 218 -14 c 0,55,56
 118 44 118 44 58 145 c 1,57,58
 0 245 0 245 0 366 c 0,59,60
 0 486 0 486 58 586 c 128,-1,61
 116 686 116 686 218 745 c 0,62,63
 318 803 318 803 439 805 c 1,64,65
 559 805 559 805 659 745 c 1,66,67
 759.002 687 759.002 687 819 586 c 0,68,47
 878 486 878 486 878 366 c 128,-1,48
EndSplineSet
Validated: 524289
EndChar

StartChar: uniF05B
Encoding: 88 61531 87
Width: 877
LayerCount: 5
Fore
SplineSet
684 293 m 1,0,-1
 622 293 l 2,1,2
 606.994 293 606.994 293 596 303 c 0,3,4
 584.994 314.002 584.994 314.002 585 329 c 2,5,-1
 585 402 l 2,6,7
 585 417.002 585 417.002 596 428 c 128,-1,8
 607 439.004 607 439.004 622 439 c 2,9,-1
 684 439 l 1,10,11
 666 500 666 500 620 547 c 0,12,13
 574 592.999 574 592.999 512 611 c 1,14,-1
 512 549 l 2,15,16
 512 533.997 512 533.997 501 523 c 128,-1,17
 490 512 490 512 475 512 c 2,18,-1
 402 512 l 2,19,20
 386.998 512 386.998 512 377 523 c 0,21,22
 366 534 366 534 366 549 c 2,23,-1
 366 611 l 1,24,25
 305 593 305 593 258 547 c 0,26,27
 212 501 212 501 194 439 c 1,28,-1
 256 439 l 2,29,30
 271.002 439 271.002 439 282 428 c 128,-1,31
 293.003 417 293.003 417 293 402 c 2,32,-1
 293 329 l 2,33,34
 293 314 293 314 282 303 c 128,-1,35
 271 292 271 292 256 293 c 1,36,-1
 194 293 l 1,37,38
 212 232 212 232 258 185 c 0,39,40
 304 139 304 139 366 121 c 1,41,-1
 366 183 l 2,42,43
 366.008 198 366.008 198 377 209 c 128,-1,44
 388.001 220 388.001 220 402 219 c 1,45,-1
 475 219 l 2,46,47
 489.999 219 489.999 219 501 209 c 0,48,49
 512.006 198 512.006 198 512 183 c 2,50,-1
 512 121 l 1,51,52
 573 139 573 139 620 185 c 1,53,54
 666.001 232 666.001 232 684 293 c 1,0,-1
878 402 m 2,55,-1
 878 329 l 2,56,57
 877.967 314 877.967 314 867 303 c 128,-1,58
 855.994 292 855.994 292 841 293 c 1,59,-1
 760 293 l 1,60,61
 738 201 738 201 671 133 c 0,62,63
 603 65 603 65 512 45 c 1,64,-1
 512 -37 l 2,65,66
 512 -52 512 -52 501 -62 c 0,67,68
 490 -73 490 -73 475 -73 c 2,69,-1
 402 -73 l 2,70,71
 386.998 -73.0003 386.998 -73.0003 377 -62 c 0,72,73
 366 -51 366 -51 366 -37 c 2,74,-1
 366 45 l 1,75,76
 274 67 274 67 207 133 c 0,77,78
 139 201 139 201 119 293 c 1,79,-1
 37 293 l 2,80,81
 22 293 22 293 11 303 c 0,82,83
 0 314.002 0 314.002 0 329 c 2,84,-1
 0 402 l 2,85,86
 0 417.002 0 417.002 11 428 c 128,-1,87
 22 439.004 22 439.004 37 439 c 2,88,-1
 119 439 l 1,89,90
 141 531.001 141 531.001 207 598 c 0,91,92
 275 666 275 666 366 686 c 1,93,-1
 366 768 l 2,94,95
 366.008 783 366.008 783 377 794 c 128,-1,96
 388.001 805 388.001 805 402 805 c 2,97,-1
 475 805 l 2,98,99
 489.999 804.992 489.999 804.992 501 794 c 128,-1,100
 512.006 782.991 512.006 782.991 512 768 c 2,101,-1
 512 686 l 1,102,103
 604 664 604 664 671 598 c 0,104,105
 739 529.999 739 529.999 760 439 c 1,106,-1
 841 439 l 2,107,108
 856 439 856 439 867 428 c 128,-1,109
 878 417 878 417 878 402 c 2,55,-1
EndSplineSet
Validated: 524289
EndChar

StartChar: uniF05C
Encoding: 89 61532 88
Width: 877
LayerCount: 5
Fore
SplineSet
643 256 m 128,-1,1
 643 241 643 241 633 230 c 2,2,-1
 574 172 l 2,3,4
 564 162 564 162 549 162 c 128,-1,5
 533.997 162.001 533.997 162.001 523 172 c 2,6,-1
 439 256 l 1,7,-1
 355 172 l 2,8,9
 344.997 162 344.997 162 329 162 c 0,10,11
 314 162.001 314 162.001 303 172 c 2,12,-1
 245 230 l 2,13,14
 235 240.001 235 240.001 234 256 c 0,15,16
 234 271.002 234 271.002 245 282 c 2,17,-1
 329 366 l 1,18,-1
 245 450 l 2,19,20
 235 460 235 460 234 475 c 0,21,22
 234 489.999 234 489.999 245 501 c 2,23,-1
 303 559 l 2,24,25
 313 569.023 313 569.023 329 569 c 0,26,27
 344.002 569 344.002 569 355 559 c 2,28,-1
 439 475 l 1,29,-1
 523 559 l 2,30,31
 533.005 569.023 533.005 569.023 549 569 c 0,32,33
 564.002 569 564.002 569 574 559 c 2,34,-1
 633 501 l 2,35,36
 643.028 490.998 643.028 490.998 643 475 c 0,37,38
 643 459.998 643 459.998 633 450 c 2,39,-1
 549 366 l 1,40,-1
 633 282 l 2,41,0
 643.028 271 643.028 271 643 256 c 128,-1,1
731 366 m 128,-1,43
 731 425.001 731 425.001 709 479 c 1,44,45
 685 533 685 533 646 572 c 0,46,47
 606 612 606 612 552 635 c 0,48,49
 498 659 498 659 439 658 c 0,50,51
 380 657.992 380 657.992 326 635 c 0,52,53
 272 611 272 611 232 572 c 0,54,55
 192 532 192 532 169 479 c 0,56,57
 145 425 145 425 146 366 c 0,58,59
 146 307 146 307 169 252 c 1,60,61
 193 198 193 198 232 159 c 0,62,63
 272 119 272 119 326 96 c 0,64,65
 380.001 72 380.001 72 439 73 c 0,66,67
 498 73.0001 498 73.0001 552 96 c 0,68,69
 606.001 120 606.001 120 646 159 c 0,70,71
 686 199 686 199 709 252 c 1,72,42
 731.009 307 731.009 307 731 366 c 128,-1,43
878 366 m 128,-1,74
 877.993 246 877.993 246 819 145 c 0,75,76
 761 45 761 45 659 -14 c 0,77,78
 559 -72 559 -72 439 -73 c 0,79,80
 319 -73 319 -73 218 -14 c 0,81,82
 118 44 118 44 58 145 c 1,83,84
 0 245 0 245 0 366 c 0,85,86
 0 486 0 486 58 586 c 128,-1,87
 116 686 116 686 218 745 c 0,88,89
 318 803 318 803 439 805 c 1,90,91
 559 805 559 805 659 745 c 1,92,93
 759.002 687 759.002 687 819 586 c 0,94,73
 878 486 878 486 878 366 c 128,-1,74
EndSplineSet
Validated: 524321
EndChar

StartChar: uniF05D
Encoding: 90 61533 89
Width: 877
LayerCount: 5
Fore
SplineSet
680 439 m 128,-1,1
 679.986 424 679.986 424 669 413 c 2,2,-1
 486 230 l 1,3,-1
 428 172 l 2,4,5
 417.999 162 417.999 162 402 162 c 0,6,7
 386.998 162.001 386.998 162.001 377 172 c 2,8,-1
 318 230 l 1,9,-1
 209 340 l 2,10,11
 199 350 199 350 199 366 c 0,12,13
 199.001 381 199.001 381 209 391 c 2,14,-1
 267 450 l 2,15,16
 277 460 277 460 293 460 c 0,17,18
 308 460.003 308 460.003 318 450 c 2,19,-1
 402 366 l 1,20,-1
 559 523 l 2,21,22
 569.002 533.008 569.002 533.008 585 534 c 0,23,24
 600 534.002 600 534.002 611 523 c 2,25,-1
 669 465 l 2,26,0
 680 454 680 454 680 439 c 128,-1,1
731 366 m 128,-1,28
 731 425.001 731 425.001 709 479 c 1,29,30
 685 533 685 533 646 572 c 0,31,32
 606 612 606 612 552 635 c 0,33,34
 498 659 498 659 439 658 c 0,35,36
 380 657.992 380 657.992 326 635 c 0,37,38
 272 611 272 611 232 572 c 0,39,40
 192 532 192 532 169 479 c 0,41,42
 145 425 145 425 146 366 c 0,43,44
 146 307 146 307 169 252 c 1,45,46
 193 198 193 198 232 159 c 0,47,48
 272 119 272 119 326 96 c 0,49,50
 380.001 72 380.001 72 439 73 c 0,51,52
 498 73.0001 498 73.0001 552 96 c 0,53,54
 606.001 120 606.001 120 646 159 c 0,55,56
 686 199 686 199 709 252 c 1,57,27
 731.009 307 731.009 307 731 366 c 128,-1,28
878 366 m 128,-1,59
 877.993 246 877.993 246 819 145 c 0,60,61
 761 45 761 45 659 -14 c 0,62,63
 559 -72 559 -72 439 -73 c 0,64,65
 319 -73 319 -73 218 -14 c 0,66,67
 118 44 118 44 58 145 c 1,68,69
 0 245 0 245 0 366 c 0,70,71
 0 486 0 486 58 586 c 128,-1,72
 116 686 116 686 218 745 c 0,73,74
 318 803 318 803 439 805 c 1,75,76
 559 805 559 805 659 745 c 1,77,78
 759.002 687 759.002 687 819 586 c 0,79,58
 878 486 878 486 878 366 c 128,-1,59
EndSplineSet
Validated: 524321
EndChar

StartChar: uniF05E
Encoding: 91 61534 90
Width: 877
LayerCount: 5
Fore
SplineSet
731 366 m 0,0,1
 731 446.001 731 446.001 691 514 c 1,2,-1
 290 114 l 1,3,4
 360 73 360 73 439 73 c 0,5,6
 498 73.0001 498 73.0001 552 96 c 0,7,8
 606.001 120 606.001 120 646 159 c 0,9,10
 686 199 686 199 709 252 c 1,11,12
 731.009 307 731.009 307 731 366 c 0,0,1
186 217 m 1,13,-1
 588 617 l 1,14,15
 518 658 518 658 439 658 c 0,16,17
 380 657.992 380 657.992 326 635 c 0,18,19
 272 611 272 611 232 572 c 0,20,21
 192 532 192 532 169 479 c 0,22,23
 145 425 145 425 146 366 c 1,24,25
 145 287 145 287 186 217 c 1,13,-1
878 366 m 128,-1,27
 877.993 246 877.993 246 819 145 c 0,28,29
 761 45 761 45 659 -14 c 0,30,31
 559 -72 559 -72 439 -73 c 0,32,33
 319 -73 319 -73 218 -14 c 0,34,35
 118 44 118 44 58 145 c 1,36,37
 0 245 0 245 0 366 c 0,38,39
 0 486 0 486 58 586 c 128,-1,40
 116 686 116 686 218 745 c 0,41,42
 318 803 318 803 439 805 c 1,43,44
 559 805 559 805 659 745 c 1,45,46
 759.002 687 759.002 687 819 586 c 0,47,26
 878 486 878 486 878 366 c 128,-1,27
EndSplineSet
Validated: 524321
EndChar

StartChar: uniF060
Encoding: 92 61536 91
Width: 877
LayerCount: 5
Fore
SplineSet
878 366 m 2,0,-1
 878 293 l 2,1,2
 878 262 878 262 859 241 c 1,3,4
 841 219 841 219 811 219 c 2,5,-1
 409 219 l 1,6,-1
 575 51 l 1,7,8
 597.002 31 597.002 31 598 0 c 1,9,10
 597.995 -31 597.995 -31 575 -51 c 1,11,-1
 534 -95 l 1,12,13
 512 -117 512 -117 481 -116 c 0,14,15
 451 -116 451 -116 430 -95 c 2,16,-1
 57 278 l 2,17,18
 35 300 35 300 37 329 c 1,19,20
 37 359 37 359 57 381 c 1,21,-1
 430 753 l 2,22,23
 452 775 452 775 481 774 c 1,24,25
 511 774 511 774 534 753 c 1,26,-1
 575 711 l 2,27,28
 597.002 689 597.002 689 598 658 c 1,29,30
 597.995 627 597.995 627 575 606 c 1,31,-1
 409 439 l 1,32,-1
 811 439 l 2,33,34
 841 439 841 439 859 418 c 0,35,36
 878.006 397 878.006 397 878 366 c 2,0,-1
EndSplineSet
Validated: 524321
EndChar

StartChar: uniF061
Encoding: 93 61537 92
Width: 877
LayerCount: 5
Fore
SplineSet
841 329 m 0,0,1
 841 298 841 298 820 278 c 2,2,-1
 449 -95 l 2,3,4
 426 -117 426 -117 396 -116 c 0,5,6
 367 -116 367 -116 344 -95 c 1,7,-1
 302 -52 l 2,8,9
 279.998 -30 279.998 -30 280 0 c 0,10,11
 280 31 280 31 302 52 c 2,12,-1
 469 219 l 1,13,-1
 67 219 l 2,14,15
 37 219.001 37 219.001 18 241 c 0,16,17
 0 263.001 0 263.001 0 293 c 2,18,-1
 0 366 l 2,19,20
 0 397 0 397 18 418 c 0,21,22
 36 440 36 440 67 439 c 1,23,-1
 469 439 l 1,24,-1
 302 607 l 1,25,26
 279.998 627 279.998 627 280 658 c 128,-1,27
 280 689.002 280 689.002 302 710 c 1,28,-1
 344 753 l 2,29,30
 366 775 366 775 396 774 c 1,31,32
 427.999 774 427.999 774 449 753 c 2,33,-1
 820 381 l 2,34,35
 841 361 841 361 841 329 c 0,0,1
EndSplineSet
Validated: 524321
EndChar

StartChar: uniF062
Encoding: 94 61538 93
Width: 950
LayerCount: 5
Fore
SplineSet
921 323 m 0,0,1
 921 294 921 294 899 271 c 2,2,-1
 856 228 l 2,3,4
 834 206 834 206 805 207 c 1,5,6
 774 207 774 207 753 228 c 2,7,-1
 585 396 l 1,8,-1
 585 -6 l 2,9,10
 585 -36 585 -36 564 -54 c 0,11,12
 542 -72 542 -72 512 -73 c 2,13,-1
 439 -73 l 2,14,15
 407.999 -73 407.999 -73 387 -54 c 1,16,17
 365 -36 365 -36 366 -6 c 1,18,-1
 366 396 l 1,19,-1
 198 228 l 1,20,21
 178 206 178 206 146 207 c 0,22,23
 115 207 115 207 95 228 c 2,24,-1
 52 271 l 2,25,26
 30 293 30 293 31 323 c 1,27,28
 31 354 31 354 52 375 c 2,29,-1
 424 746 l 1,30,31
 444 768.009 444 768.009 475 768 c 128,-1,32
 506 768 506 768 527 746 c 2,33,-1
 899 375 l 2,34,35
 921.007 352.999 921.007 352.999 921 323 c 0,0,1
EndSplineSet
Validated: 524321
EndChar

StartChar: uniF063
Encoding: 95 61539 94
Width: 950
LayerCount: 5
Fore
SplineSet
921 402 m 0,0,1
 921 371 921 371 899 351 c 1,2,-1
 527 -22 l 2,3,4
 504 -44 504 -44 475 -43 c 1,5,6
 444 -43 444 -43 424 -22 c 2,7,-1
 52 351 l 1,8,9
 30 371 30 371 31 402 c 0,10,11
 31 433 31 433 52 455 c 2,12,-1
 94 497 l 2,13,14
 117 519 117 519 146 518 c 1,15,16
 177 518 177 518 198 497 c 2,17,-1
 366 329 l 1,18,-1
 366 731 l 2,19,20
 366 761.004 366 761.004 387 783 c 0,21,22
 409 805.006 409 805.006 439 805 c 2,23,-1
 512 805 l 2,24,25
 542 805 542 805 563 783 c 0,26,27
 585 761 585 761 585 731 c 2,28,-1
 585 329 l 1,29,-1
 753 497 l 2,30,31
 775.004 519 775.004 519 805 518 c 0,32,33
 835 518 835 518 856 497 c 2,34,-1
 899 455 l 1,35,36
 921.007 432 921.007 432 921 402 c 0,0,1
EndSplineSet
Validated: 524321
EndChar

StartChar: uniF064
Encoding: 96 61540 95
Width: 1024
LayerCount: 5
Fore
SplineSet
1024 512 m 128,-1,1
 1023.96 497 1023.96 497 1013 486 c 2,2,-1
 721 194 l 2,3,4
 710 182.999 710 182.999 695 183 c 128,-1,5
 680.001 183 680.001 183 669 194 c 128,-1,6
 657.985 205 657.985 205 658 219 c 2,7,-1
 658 366 l 1,8,-1
 530 366 l 2,9,10
 474 365.996 474 365.996 430 362 c 0,11,12
 386 359 386 359 342 350 c 128,-1,13
 298 341 298 341 266 326 c 0,14,15
 233 310.999 233 310.999 206 286 c 0,16,17
 178 260.999 178 260.999 160 228 c 1,18,19
 142.999 194 142.999 194 132 150 c 1,20,21
 122 104 122 104 122 46 c 0,22,23
 122 14 122 14 125 -25 c 0,24,25
 125.002 -28 125.002 -28 127 -38 c 0,26,27
 128 -48 128 -48 128 -53 c 0,28,29
 128 -61 128 -61 123 -68 c 0,30,31
 118 -74 118 -74 110 -73 c 1,32,33
 101 -73 101 -73 94 -63 c 0,34,35
 89.9999 -58 89.9999 -58 86 -51 c 0,36,37
 82.9999 -44 82.9999 -44 79 -34 c 0,38,39
 75 -25 75 -25 73 -20 c 0,40,41
 0 143 0 143 0 238 c 0,42,43
 0 352 0 352 31 428 c 0,44,45
 123 658 123 658 530 658 c 2,46,-1
 658 658 l 1,47,-1
 658 805 l 2,48,49
 658 820.004 658 820.004 669 830 c 0,50,51
 680 841 680 841 695 841 c 128,-1,52
 710 840.981 710 840.981 721 830 c 2,53,-1
 1013 538 l 2,54,0
 1024 526.994 1024 526.994 1024 512 c 128,-1,1
EndSplineSet
Validated: 524289
EndChar

StartChar: uniF065
Encoding: 97 61541 96
Width: 877
LayerCount: 5
Fore
SplineSet
431 274 m 128,-1,1
 431 266.998 431 266.998 426 261 c 2,2,-1
 236 72 l 1,3,-1
 318 -11 l 2,4,5
 329.005 -22 329.005 -22 329 -37 c 128,-1,6
 329 -52 329 -52 318 -62 c 0,7,8
 307 -73 307 -73 293 -73 c 2,9,-1
 37 -73 l 2,10,11
 22 -73.0003 22 -73.0003 11 -62 c 128,-1,12
 0 -51 0 -51 0 -37 c 2,13,-1
 0 219 l 2,14,15
 0 234 0 234 11 245 c 128,-1,16
 22 256 22 256 37 256 c 128,-1,17
 52 255.998 52 255.998 62 245 c 2,18,-1
 144 163 l 1,19,-1
 334 352 l 2,20,21
 340 358 340 358 347 358 c 128,-1,22
 354 358 354 358 360 352 c 2,23,-1
 426 288 l 1,24,0
 431.007 280.997 431.007 280.997 431 274 c 128,-1,1
878 768 m 2,25,-1
 878 512 l 2,26,27
 877.967 497 877.967 497 867 486 c 128,-1,28
 855.994 475 855.994 475 841 475 c 128,-1,29
 825.992 475.002 825.992 475.002 815 486 c 2,30,-1
 733 568 l 1,31,-1
 544 379 l 2,32,33
 537.988 373 537.988 373 530 373 c 0,34,35
 523 373 523 373 517 379 c 2,36,-1
 452 444 l 2,37,38
 446 450 446 450 446 457 c 128,-1,39
 446 464 446 464 452 470 c 2,40,-1
 642 660 l 1,41,-1
 559 742 l 2,42,43
 547.969 753 547.969 753 549 768 c 1,44,45
 549.011 783 549.011 783 559 794 c 0,46,47
 570 805 570 805 585 805 c 2,48,-1
 841 805 l 2,49,50
 856 804.992 856 804.992 867 794 c 128,-1,51
 878 782.991 878 782.991 878 768 c 2,25,-1
EndSplineSet
Validated: 524289
EndChar

StartChar: uniF066
Encoding: 98 61542 97
Width: 877
LayerCount: 5
Fore
SplineSet
439 329 m 2,0,-1
 439 73 l 2,1,2
 439 58 439 58 428 47 c 128,-1,3
 417 35.9999 417 35.9999 402 37 c 0,4,5
 386.998 37 386.998 37 377 47 c 2,6,-1
 294 130 l 1,7,-1
 104 -60 l 2,8,9
 97.9997 -66 97.9997 -66 91 -66 c 128,-1,10
 84 -66 84 -66 78 -60 c 2,11,-1
 13 5 l 2,12,13
 7 11 7 11 7 18 c 128,-1,14
 7 25 7 25 13 32 c 2,15,-1
 203 221 l 1,16,-1
 121 303 l 2,17,18
 110 314.002 110 314.002 110 329 c 128,-1,19
 110.001 344.002 110.001 344.002 121 355 c 128,-1,20
 132 366.002 132 366.002 146 366 c 2,21,-1
 402 366 l 2,22,23
 417.002 366 417.002 366 428 355 c 128,-1,24
 439.004 344 439.004 344 439 329 c 2,0,-1
870 713 m 128,-1,26
 870 706 870 706 864 700 c 2,27,-1
 675 510 l 1,28,-1
 757 428 l 2,29,30
 768 417 768 417 768 402 c 128,-1,31
 767.973 386.998 767.973 386.998 757 377 c 0,32,33
 746.003 366 746.003 366 731 366 c 2,34,-1
 475 366 l 2,35,36
 459.998 366.008 459.998 366.008 450 377 c 0,37,38
 439 388.001 439 388.001 439 402 c 2,39,-1
 439 658 l 2,40,41
 439.002 673 439.002 673 450 684 c 128,-1,42
 461.006 695 461.006 695 475 695 c 0,43,44
 489.999 694.987 489.999 694.987 501 684 c 2,45,-1
 584 602 l 1,46,-1
 773 792 l 2,47,48
 779.006 798 779.006 798 786 797 c 0,49,50
 793.01 796.927 793.01 796.927 800 792 c 1,51,-1
 864 726 l 2,52,25
 870 720 870 720 870 713 c 128,-1,26
EndSplineSet
Validated: 524289
EndChar

StartChar: uniF067
Encoding: 99 61543 98
Width: 803
LayerCount: 5
Fore
SplineSet
805 457 m 2,0,-1
 805 347 l 2,1,2
 804.989 324 804.989 324 788 308 c 0,3,4
 772 292 772 292 750 293 c 1,5,-1
 512 293 l 1,6,-1
 512 55 l 2,7,8
 511.997 32 511.997 32 496 16 c 128,-1,9
 480 0 480 0 457 0 c 2,10,-1
 347 0 l 2,11,12
 324 0 324 0 308 16 c 128,-1,13
 292 32 292 32 293 55 c 1,14,-1
 293 293 l 1,15,-1
 55 293 l 2,16,17
 32 293 32 293 16 308 c 0,18,19
 0 324 0 324 0 347 c 2,20,-1
 0 457 l 2,21,22
 0 480 0 480 16 496 c 128,-1,23
 32 512 32 512 55 512 c 2,24,-1
 293 512 l 1,25,-1
 293 750 l 2,26,27
 293 773 293 773 308 788 c 0,28,29
 324 804.01 324 804.01 347 805 c 2,30,-1
 457 805 l 2,31,32
 480 804.989 480 804.989 496 788 c 0,33,34
 512 772 512 772 512 750 c 2,35,-1
 512 512 l 1,36,-1
 750 512 l 2,37,38
 773 511.997 773 511.997 788 496 c 1,39,40
 805 480 805 480 805 457 c 2,0,-1
EndSplineSet
Validated: 524321
EndChar

StartChar: uniF068
Encoding: 100 61544 99
Width: 803
LayerCount: 5
Fore
SplineSet
805 457 m 2,0,-1
 805 347 l 2,1,2
 804.989 324 804.989 324 788 308 c 0,3,4
 772 292 772 292 750 293 c 1,5,-1
 55 293 l 2,6,7
 32 293 32 293 16 308 c 0,8,9
 0 324 0 324 0 347 c 2,10,-1
 0 457 l 2,11,12
 0 480 0 480 16 496 c 128,-1,13
 32 512 32 512 55 512 c 2,14,-1
 750 512 l 2,15,16
 773 511.997 773 511.997 788 496 c 1,17,18
 805 480 805 480 805 457 c 2,0,-1
EndSplineSet
Validated: 524321
EndChar

StartChar: uniF069
Encoding: 101 61545 100
Width: 950
LayerCount: 5
Fore
SplineSet
847 278 m 2,0,1
 873.998 263 873.998 263 881 233 c 0,2,3
 889 203 889 203 873 178 c 1,4,-1
 838 115 l 2,5,6
 823 87.9999 823 87.9999 793 81 c 0,7,8
 762.995 73 762.995 73 737 88 c 2,9,-1
 585 175 l 1,10,-1
 585 0 l 2,11,12
 585 -30 585 -30 563 -51 c 0,13,14
 541 -73 541 -73 512 -73 c 2,15,-1
 439 -73 l 2,16,17
 409 -73 409 -73 387 -51 c 128,-1,18
 365 -29 365 -29 366 0 c 1,19,-1
 366 175 l 1,20,-1
 214 88 l 2,21,22
 187 72.9996 187 72.9996 158 81 c 0,23,24
 128 89.0001 128 89.0001 114 115 c 1,25,-1
 77 178 l 2,26,27
 62 205 62 205 70 233 c 0,28,29
 78.0001 263 78.0001 263 104 278 c 2,30,-1
 256 366 l 1,31,-1
 104 454 l 2,32,33
 76.9999 469.002 76.9999 469.002 70 498 c 0,34,35
 62 528 62 528 77 554 c 2,36,-1
 114 616 l 2,37,38
 129 643.007 129 643.007 158 650 c 0,39,40
 188 658 188 658 214 643 c 2,41,-1
 366 556 l 1,42,-1
 366 731 l 2,43,44
 366 761.004 366 761.004 387 783 c 0,45,46
 409 805.006 409 805.006 439 805 c 2,47,-1
 512 805 l 2,48,49
 542 805 542 805 563 783 c 0,50,51
 585 761 585 761 585 731 c 2,52,-1
 585 556 l 1,53,-1
 737 643 l 2,54,55
 764 658.007 764 658.007 793 650 c 0,56,57
 823 641.996 823 641.996 838 616 c 2,58,-1
 873 554 l 2,59,60
 888 527 888 527 881 498 c 0,61,62
 872.993 468 872.993 468 847 454 c 2,63,-1
 695 366 l 1,64,-1
 847 278 l 2,0,1
EndSplineSet
Validated: 524321
EndChar

StartChar: uniF06A
Encoding: 102 61546 101
Width: 877
LayerCount: 5
Fore
SplineSet
439 805 m 128,-1,1
 559 805 559 805 659 745 c 1,2,3
 759.002 687 759.002 687 819 586 c 1,4,5
 877.003 486 877.003 486 878 366 c 1,6,7
 877.993 246 877.993 246 819 145 c 0,8,9
 761 45 761 45 659 -14 c 0,10,11
 559 -72 559 -72 439 -73 c 0,12,13
 319 -73 319 -73 218 -14 c 0,14,15
 118 44 118 44 58 145 c 1,16,17
 0 245 0 245 0 366 c 0,18,19
 0 486 0 486 58 586 c 128,-1,20
 116 686 116 686 218 745 c 1,21,0
 319 805 319 805 439 805 c 128,-1,1
512 92 m 2,22,-1
 512 201 l 2,23,24
 512 209 512 209 507 214 c 128,-1,25
 502 219 502 219 495 219 c 2,26,-1
 385 219 l 2,27,28
 378.003 218.999 378.003 218.999 372 214 c 0,29,30
 366 208 366 208 366 201 c 2,31,-1
 366 92 l 2,32,33
 366 84.9998 366 84.9998 372 79 c 128,-1,34
 378 73 378 73 385 73 c 2,35,-1
 495 73 l 2,36,37
 502 73 502 73 507 79 c 0,38,39
 512.012 84.0001 512.012 84.0001 512 92 c 2,22,-1
511 289 m 2,40,-1
 521 643 l 2,41,42
 521 650.007 521 650.007 515 653 c 0,43,44
 508.997 657.03 508.997 657.03 502 658 c 2,45,-1
 376 658 l 2,46,47
 368 658.002 368 658.002 362 653 c 1,48,49
 356 650 356 650 356 643 c 2,50,-1
 367 289 l 2,51,52
 367.008 282.998 367.008 282.998 372 279 c 0,53,54
 378.001 274.994 378.001 274.994 386 274 c 2,55,-1
 492 274 l 2,56,57
 500.011 274.009 500.011 274.009 505 279 c 0,58,59
 510 283 510 283 511 289 c 2,40,-1
EndSplineSet
Validated: 524289
EndChar

StartChar: uniF06B
Encoding: 103 61547 102
Width: 877
LayerCount: 5
Fore
SplineSet
530 102 m 2,0,-1
 530 512 l 1,1,-1
 347 512 l 1,2,-1
 347 102 l 2,3,4
 347.003 88 347.003 88 358 81 c 1,5,6
 368 73 368 73 384 73 c 2,7,-1
 494 73 l 2,8,9
 509 72.9999 509 72.9999 520 81 c 0,10,11
 530.021 88 530.021 88 530 102 c 2,0,-1
269 585 m 2,12,-1
 381 585 l 1,13,-1
 309 677 l 2,14,15
 295.999 694 295.999 694 269 695 c 0,16,17
 246 695 246 695 230 679 c 128,-1,18
 214 663 214 663 215 640 c 0,19,20
 215 617 215 617 230 601 c 0,21,22
 246 585 246 585 269 585 c 2,12,-1
663 640 m 128,-1,24
 663 663 663 663 647 679 c 128,-1,25
 631 694.996 631 694.996 608 695 c 0,26,27
 581.998 695 581.998 695 568 677 c 2,28,-1
 497 585 l 1,29,-1
 608 585 l 2,30,31
 631 585.008 631 585.008 647 601 c 128,-1,23
 662.998 617 662.998 617 663 640 c 128,-1,24
878 494 m 2,32,-1
 878 311 l 2,33,34
 878 303 878 303 872 298 c 0,35,36
 866 294 866 294 856 292 c 0,37,38
 846.972 291.007 846.972 291.007 839 291 c 128,-1,39
 831 291 831 291 818 292 c 0,40,41
 806.988 293 806.988 293 805 293 c 1,42,-1
 805 55 l 2,43,44
 804.989 32 804.989 32 788 16 c 0,45,46
 772 0 772 0 750 0 c 2,47,-1
 128 0 l 2,48,49
 105 0 105 0 89 16 c 128,-1,50
 72.9999 32 72.9999 32 73 55 c 2,51,-1
 73 293 l 1,52,53
 70 292.973 70 292.973 59 292 c 128,-1,54
 47.9999 291.007 47.9999 291.007 40 291 c 128,-1,55
 32 291 32 291 22 292 c 0,56,57
 13 293 13 293 6 298 c 0,58,59
 0 302 0 302 0 311 c 2,60,-1
 0 494 l 2,61,62
 0 501 0 501 5 507 c 0,63,64
 10 512.012 10 512.012 18 512 c 2,65,-1
 269 512 l 2,66,67
 216 512 216 512 179 550 c 0,68,69
 141 588 141 588 141 640 c 0,70,71
 141 693 141 693 179 730 c 0,72,73
 217 768 217 768 269 768 c 0,74,75
 330 767.993 330 767.993 366 724 c 1,76,-1
 439 630 l 1,77,-1
 512 724 l 2,78,79
 546 768 546 768 608 768 c 0,80,81
 661 767.996 661 767.996 698 730 c 0,82,83
 736 692 736 692 736 640 c 0,84,85
 735.995 587 735.995 587 698 550 c 0,86,87
 660 512 660 512 608 512 c 2,88,-1
 859 512 l 2,89,90
 866.023 512 866.023 512 872 507 c 0,91,92
 878 500.999 878 500.999 878 494 c 2,32,-1
EndSplineSet
Validated: 524321
EndChar

StartChar: uniF06C
Encoding: 104 61548 103
Width: 1024
LayerCount: 5
Fore
SplineSet
731 475 m 128,-1,1
 731 489.999 731 489.999 721 501 c 0,2,3
 710 512.006 710 512.006 695 512 c 0,4,5
 597 512 597 512 513 483 c 0,6,7
 430 454 430 454 365 408 c 1,8,9
 300 360 300 360 230 282 c 0,10,11
 218.999 270 218.999 270 219 256 c 0,12,13
 219 241 219 241 230 230 c 128,-1,14
 241 218.999 241 218.999 256 219 c 0,15,16
 269 219 269 219 282 230 c 0,17,18
 297 243 297 243 324 271 c 0,19,20
 351.002 298 351.002 298 362 308 c 0,21,22
 440 379 440 379 516 410 c 0,23,24
 591 440.002 591 440.002 695 439 c 0,25,26
 710 439.002 710 439.002 721 450 c 0,27,0
 731.009 460 731.009 460 731 475 c 128,-1,1
1024 589 m 0,28,29
 1023.96 535 1023.96 535 1013 478 c 1,30,31
 986 350 986 350 907 259 c 128,-1,32
 828 168 828 168 702 106 c 0,33,34
 580 45 580 45 453 45 c 0,35,36
 368 45 368 45 289 72 c 0,37,38
 281 75.0001 281 75.0001 239 95 c 1,39,40
 197 117 197 117 184 117 c 0,41,42
 175 117 175 117 162 98 c 0,43,44
 149 79.9999 149 79.9999 136 58 c 0,45,46
 124 36 124 36 105 18 c 1,47,48
 88 0 88 0 72 0 c 0,49,50
 55 0 55 0 42 6 c 0,51,52
 30 12 30 12 25 20 c 1,53,54
 19 27 19 27 9 44 c 1,55,-1
 6 50 l 1,56,-1
 3 56 l 1,57,-1
 1 61 l 2,58,59
 1.19209e-07 65.0002 1.19209e-07 65.0002 0 70 c 0,60,61
 0 90 0 90 17 112 c 128,-1,62
 34 134 34 134 56 148 c 0,63,64
 78 163 78 163 95 180 c 0,65,66
 112 196.001 112 196.001 113 208 c 0,67,68
 113 210 113 210 105 229 c 128,-1,69
 97 248.001 97 248.001 96 255 c 0,70,71
 91 284 91 284 91 314 c 0,72,73
 91 380 91 380 116 440 c 128,-1,74
 141 500 141 500 183 546 c 1,75,76
 226 591 226 591 282 625 c 1,77,78
 336 658.999 336 658.999 397 680 c 0,79,80
 429.001 690.008 429.001 690.008 480 694 c 128,-1,81
 531 698.064 531 698.064 583 699 c 0,82,83
 634 700 634 700 685 702 c 0,84,85
 736 705 736 705 778 716 c 0,86,87
 821 727 821 727 844 749 c 1,88,-1
 860 766 l 1,89,-1
 878 781 l 1,90,-1
 893 794 l 1,91,-1
 913 802 l 1,92,-1
 938 805 l 1,93,94
 961 805 961 805 979 778 c 128,-1,95
 997 751 997 751 1006 715 c 0,96,97
 1015 677 1015 677 1020 643 c 0,98,99
 1024.09 611 1024.09 611 1024 589 c 0,28,29
EndSplineSet
Validated: 524321
EndChar

StartChar: uniF06D
Encoding: 105 61549 104
Width: 803
LayerCount: 5
Fore
SplineSet
805 -91 m 2,0,-1
 805 -128 l 2,1,2
 805 -135 805 -135 799 -141 c 0,3,4
 793.985 -146 793.985 -146 786 -146 c 2,5,-1
 18 -146 l 2,6,7
 11 -146 11 -146 5 -141 c 0,8,9
 0 -136 0 -136 0 -128 c 2,10,-1
 0 -91 l 2,11,12
 0 -84 0 -84 5 -79 c 128,-1,13
 10 -74 10 -74 18 -73 c 1,14,-1
 786 -73 l 2,15,16
 793.009 -73 793.009 -73 799 -79 c 0,17,18
 805 -84 805 -84 805 -91 c 2,0,-1
658 512 m 0,19,20
 657.985 467.001 657.985 467.001 644 430 c 0,21,22
 629.989 392 629.989 392 607 366 c 0,23,24
 583.998 339 583.998 339 558 315 c 1,25,26
 530 291 530 291 503 271 c 0,27,28
 474.999 251 474.999 251 453 229 c 1,29,30
 430 209 430 209 417 183 c 0,31,32
 403 157 403 157 402 128 c 1,33,34
 402.001 73 402.001 73 440 0 c 1,35,-1
 438 1 l 1,36,-1
 439 0 l 1,37,38
 388 24 388 24 347 47 c 1,39,40
 307 71 307 71 268 104 c 128,-1,41
 229 137 229 137 204 174 c 0,42,43
 178 211 178 211 162 260 c 0,44,45
 147 309 147 309 146 366 c 0,46,47
 146 412 146 412 161 449 c 1,48,49
 175 487 175 487 197 512 c 0,50,51
 220 539 220 539 247 562 c 0,52,53
 275 586 275 586 302 607 c 1,54,55
 330 627 330 627 351 648 c 1,56,57
 374.002 668 374.002 668 388 694 c 128,-1,58
 402.006 720 402.006 720 402 750 c 0,59,60
 401.999 803 401.999 803 365 878 c 1,61,-1
 367 878 l 1,62,-1
 366 878 l 1,63,64
 417 854 417 854 457 830 c 128,-1,65
 497 806 497 806 537 773 c 0,66,67
 576.003 740 576.003 740 601 703 c 0,68,69
 627 666 627 666 643 617 c 0,70,71
 658 568 658 568 658 512 c 0,19,20
EndSplineSet
Validated: 524325
EndChar

StartChar: uniF06E
Encoding: 106 61550 105
Width: 1024
LayerCount: 5
Fore
SplineSet
951 329 m 1,0,1
 863.999 464 863.999 464 733 530 c 1,2,3
 768 471 768 471 768 402 c 0,4,5
 768 297 768 297 693 221 c 0,6,7
 618 146 618 146 512 146 c 0,8,9
 407 146 407 146 331 221 c 0,10,11
 256 296 256 296 256 402 c 0,12,13
 256 472 256 472 291 530 c 1,14,15
 160 463 160 463 73 329 c 1,16,17
 149 212 149 212 264 142 c 128,-1,18
 379 72 379 72 512 73 c 1,19,20
 646 73 646 73 760 142 c 0,21,22
 875.001 212 875.001 212 951 329 c 1,0,1
540 549 m 128,-1,24
 540 560 540 560 531 568 c 0,25,26
 522.993 575.013 522.993 575.013 512 575 c 0,27,28
 440 574.999 440 574.999 389 525 c 0,29,30
 338 474 338 474 338 402 c 0,31,32
 338.002 391 338.002 391 346 383 c 128,-1,33
 354.003 375 354.003 375 366 375 c 0,34,35
 377.003 375.006 377.003 375.006 385 383 c 128,-1,36
 393.01 391.003 393.01 391.003 393 402 c 0,37,38
 393.001 451 393.001 451 428 486 c 128,-1,39
 463 521.005 463 521.005 512 521 c 0,40,41
 523 521 523 521 531 529 c 0,42,23
 540 538 540 538 540 549 c 128,-1,24
1024 329 m 128,-1,44
 1023.96 310 1023.96 310 1013 290 c 1,45,46
 932.998 159 932.998 159 798 79 c 0,47,48
 663 0 663 0 512 0 c 128,-1,49
 361 0 361 0 226 80 c 128,-1,50
 91 160 91 160 11 290 c 1,51,52
 0 310 0 310 0 329 c 128,-1,53
 0 348 0 348 11 369 c 1,54,55
 91 500 91 500 226 579 c 0,56,57
 361 659 361 659 512 658 c 0,58,59
 663.001 658 663.001 658 798 579 c 0,60,61
 933 499 933 499 1013 369 c 1,62,43
 1024 347.998 1024 347.998 1024 329 c 128,-1,44
EndSplineSet
Validated: 524321
EndChar

StartChar: uniF070
Encoding: 107 61552 106
Width: 1024
LayerCount: 5
Fore
SplineSet
317 115 m 1,0,-1
 361 196 l 1,1,2
 311 232 311 232 284 287 c 0,3,4
 256 342 256 342 256 402 c 0,5,6
 256 472 256 472 291 530 c 1,7,8
 160 463 160 463 73 329 c 1,9,10
 169 182 169 182 317 115 c 1,0,-1
540 549 m 128,-1,12
 540 560 540 560 531 568 c 0,13,14
 522.993 575.013 522.993 575.013 512 575 c 0,15,16
 440 574.999 440 574.999 389 525 c 0,17,18
 338 474 338 474 338 402 c 0,19,20
 338.002 391 338.002 391 346 383 c 128,-1,21
 354.003 375 354.003 375 366 375 c 0,22,23
 377.003 375.006 377.003 375.006 385 383 c 128,-1,24
 393.01 391.003 393.01 391.003 393 402 c 0,25,26
 393.001 451 393.001 451 428 486 c 128,-1,27
 463 521.005 463 521.005 512 521 c 0,28,29
 523 521 523 521 531 529 c 0,30,11
 540 538 540 538 540 549 c 128,-1,12
746 657 m 2,31,-1
 746 652 l 1,32,33
 686 544 686 544 566 329 c 2,34,-1
 386 5 l 1,35,-1
 357 -46 l 2,36,37
 351 -55 351 -55 342 -55 c 0,38,39
 335 -55 335 -55 265 -15 c 0,40,41
 256 -9 256 -9 256 1 c 0,42,43
 256 8 256 8 282 51 c 1,44,45
 200 88 200 88 131 150 c 0,46,47
 62 211 62 211 11 290 c 0,48,49
 0 307 0 307 0 329 c 128,-1,50
 0 351 0 351 11 369 c 0,51,52
 98 503 98 503 228 581 c 128,-1,53
 358 659 358 659 512 658 c 0,54,55
 563 658 563 658 614 648 c 1,56,-1
 646 705 l 2,57,58
 652.004 714 652.004 714 662 713 c 0,59,60
 664.996 713 664.996 713 672 710 c 128,-1,61
 679 707 679 707 690 700 c 1,62,63
 700.004 694.984 700.004 694.984 709 690 c 0,64,65
 717 684.99 717 684.99 727 680 c 0,66,67
 736.017 674.961 736.017 674.961 737 673 c 0,68,69
 746 666 746 666 746 657 c 2,31,-1
768 402 m 0,70,71
 768 322 768 322 723 257 c 0,72,73
 678 191 678 191 603 164 c 1,74,-1
 764 451 l 1,75,76
 768.07 425 768.07 425 768 402 c 0,70,71
1024 329 m 128,-1,78
 1023.96 309 1023.96 309 1013 290 c 0,79,80
 990 253 990 253 950 207 c 0,81,82
 864 109 864 109 752 54 c 1,83,84
 639 0 639 0 512 0 c 1,85,-1
 554 76 l 1,86,87
 675.001 86 675.001 86 778 154 c 128,-1,88
 881.001 222 881.001 222 951 329 c 1,89,90
 884.998 431 884.998 431 790 497 c 1,91,-1
 825 561 l 1,92,93
 879 524 879 524 930 474 c 1,94,95
 980 423 980 423 1013 369 c 1,96,77
 1024 349 1024 349 1024 329 c 128,-1,78
EndSplineSet
Validated: 524321
EndChar

StartChar: uniF071
Encoding: 108 61553 107
Width: 1024
LayerCount: 5
Fore
SplineSet
585 92 m 2,0,-1
 585 201 l 2,1,2
 584.947 209 584.947 209 580 214 c 128,-1,3
 574.999 219 574.999 219 567 219 c 2,4,-1
 457 219 l 2,5,6
 450 218.999 450 218.999 444 214 c 0,7,8
 439 208.999 439 208.999 439 201 c 2,9,-1
 439 92 l 2,10,11
 439.019 84 439.019 84 444 79 c 128,-1,12
 449.003 74 449.003 74 457 73 c 1,13,-1
 567 73 l 2,14,15
 574.012 73 574.012 73 580 79 c 0,16,17
 585 84.0001 585 84.0001 585 92 c 2,0,-1
584 306 m 2,18,-1
 594 568 l 2,19,20
 594.003 575.013 594.003 575.013 589 579 c 0,21,22
 582 585 582 585 574 585 c 2,23,-1
 450 585 l 2,24,25
 444 585 444 585 435 579 c 0,26,27
 429 575 429 575 430 567 c 2,28,-1
 439 306 l 2,29,30
 439 299.994 439 299.994 445 296 c 128,-1,31
 451 292 451 292 459 293 c 1,32,-1
 564 293 l 2,33,34
 572 293 572 293 578 296 c 1,35,36
 583 300 583 300 584 306 c 2,18,-1
575 840 m 2,37,-1
 1015 35 l 2,38,39
 1034.91 -1 1034.91 -1 1014 -37 c 0,40,41
 1005 -53 1005 -53 987 -63 c 0,42,43
 971 -71.9998 971 -71.9998 951 -73 c 1,44,-1
 73 -73 l 2,45,46
 54 -73 54 -73 37 -63 c 0,47,48
 21 -54 21 -54 10 -37 c 0,49,50
 -12 -1 -12 -1 9 35 c 1,51,-1
 449 840 l 2,52,53
 458.004 857 458.004 857 475 867 c 128,-1,54
 492.001 877.018 492.001 877.018 512 878 c 1,55,56
 532 877.967 532 877.967 549 867 c 0,57,58
 566 857 566 857 575 840 c 2,37,-1
EndSplineSet
Validated: 524321
EndChar

StartChar: uniF072
Encoding: 109 61554 108
Width: 803
LayerCount: 5
Fore
SplineSet
799 757 m 0,0,1
 799 707 799 707 713 622 c 2,2,-1
 575 484 l 1,3,-1
 657 58 l 1,4,-1
 658 55 l 1,5,6
 658.002 46.9999 658.002 46.9999 653 42 c 2,7,-1
 616 5 l 2,8,9
 610.99 0 610.99 0 603 0 c 0,10,11
 591 0 591 0 587 10 c 2,12,-1
 430 339 l 1,13,-1
 290 199 l 1,14,15
 329 63 329 63 329 55 c 128,-1,16
 329 46.9999 329 46.9999 324 42 c 2,17,-1
 288 5 l 2,18,19
 283 0 283 0 274 0 c 0,20,21
 263.997 0 263.997 0 258 9 c 2,22,-1
 170 169 l 1,23,-1
 9 258 l 2,24,25
 0 263 0 263 0 273 c 0,26,27
 0 281.002 0 281.002 5 287 c 2,28,-1
 42 324 l 2,29,30
 47 329.013 47 329.013 55 329 c 128,-1,31
 63 329 63 329 199 290 c 1,32,-1
 339 430 l 1,33,-1
 10 587 l 2,34,35
 0 591.013 0 591.013 0 603 c 0,36,37
 0 611 0 611 5 616 c 2,38,-1
 42 653 l 2,39,40
 47 658 47 658 55 658 c 0,41,42
 57 658 57 658 58 657 c 2,43,-1
 484 575 l 1,44,-1
 622 713 l 2,45,46
 707 798.001 707 798.001 757 799 c 0,47,48
 775 799 775 799 786 786 c 1,49,50
 799.013 775 799.013 775 799 757 c 0,0,1
EndSplineSet
Validated: 524289
EndChar

StartChar: uniF073
Encoding: 110 61555 109
Width: 950
LayerCount: 5
Fore
SplineSet
73 -73 m 1,0,-1
 238 -73 l 1,1,-1
 238 91 l 1,2,-1
 73 91 l 1,3,-1
 73 -73 l 1,0,-1
274 -73 m 1,4,-1
 457 -73 l 1,5,-1
 457 91 l 1,6,-1
 274 91 l 1,7,-1
 274 -73 l 1,4,-1
73 128 m 1,8,-1
 238 128 l 1,9,-1
 238 311 l 1,10,-1
 73 311 l 1,11,-1
 73 128 l 1,8,-1
274 128 m 1,12,-1
 457 128 l 1,13,-1
 457 311 l 1,14,-1
 274 311 l 1,15,-1
 274 128 l 1,12,-1
73 347 m 1,16,-1
 238 347 l 1,17,-1
 238 512 l 1,18,-1
 73 512 l 1,19,-1
 73 347 l 1,16,-1
494 -73 m 1,20,-1
 677 -73 l 1,21,-1
 677 91 l 1,22,-1
 494 91 l 1,23,-1
 494 -73 l 1,20,-1
274 347 m 1,24,-1
 457 347 l 1,25,-1
 457 512 l 1,26,-1
 274 512 l 1,27,-1
 274 347 l 1,24,-1
713 -73 m 1,28,-1
 878 -73 l 1,29,-1
 878 91 l 1,30,-1
 713 91 l 1,31,-1
 713 -73 l 1,28,-1
494 128 m 1,32,-1
 677 128 l 1,33,-1
 677 311 l 1,34,-1
 494 311 l 1,35,-1
 494 128 l 1,32,-1
293 622 m 2,36,-1
 293 786 l 2,37,38
 293 793.009 293 793.009 287 799 c 0,39,40
 282 804 282 804 274 805 c 1,41,-1
 238 805 l 2,42,43
 231 805 231 805 225 799 c 0,44,45
 220 793.985 220 793.985 219 786 c 1,46,-1
 219 622 l 2,47,48
 219 615 219 615 225 609 c 0,49,50
 230 604 230 604 238 603 c 1,51,-1
 274 603 l 2,52,53
 281 603 281 603 287 609 c 128,-1,54
 293 615.012 293 615.012 293 622 c 2,36,-1
713 128 m 1,55,-1
 878 128 l 1,56,-1
 878 311 l 1,57,-1
 713 311 l 1,58,-1
 713 128 l 1,55,-1
494 347 m 1,59,-1
 677 347 l 1,60,-1
 677 512 l 1,61,-1
 494 512 l 1,62,-1
 494 347 l 1,59,-1
713 347 m 1,63,-1
 878 347 l 1,64,-1
 878 512 l 1,65,-1
 713 512 l 1,66,-1
 713 347 l 1,63,-1
731 622 m 2,67,-1
 731 786 l 2,68,69
 730.991 793.009 730.991 793.009 726 799 c 0,70,71
 720.991 804 720.991 804 713 805 c 1,72,-1
 677 805 l 2,73,74
 670 805 670 805 664 799 c 0,75,76
 659 793.985 659 793.985 658 786 c 1,77,-1
 658 622 l 2,78,79
 658 615 658 615 664 609 c 0,80,81
 669 604 669 604 677 603 c 1,82,-1
 713 603 l 2,83,84
 720.022 603 720.022 603 726 609 c 0,85,86
 731 615.012 731 615.012 731 622 c 2,67,-1
951 658 m 2,87,-1
 951 -73 l 2,88,89
 951 -103 951 -103 929 -125 c 128,-1,90
 907 -147 907 -147 878 -146 c 1,91,-1
 73 -146 l 2,92,93
 43 -146 43 -146 22 -125 c 0,94,95
 0 -103 0 -103 0 -73 c 2,96,-1
 0 658 l 2,97,98
 0 688.004 0 688.004 22 710 c 128,-1,99
 44 732 44 732 73 731 c 1,100,-1
 146 731 l 1,101,-1
 146 786 l 2,102,103
 146 824 146 824 173 851 c 128,-1,104
 200 878 200 878 238 878 c 2,105,-1
 274 878 l 2,106,107
 312 878 312 878 339 851 c 128,-1,108
 366 823.997 366 823.997 366 786 c 2,109,-1
 366 731 l 1,110,-1
 585 731 l 1,111,-1
 585 786 l 2,112,113
 585 824 585 824 612 851 c 128,-1,114
 639 878 639 878 677 878 c 2,115,-1
 713 878 l 2,116,117
 751 878 751 878 777 851 c 0,118,119
 804.009 823.997 804.009 823.997 805 786 c 2,120,-1
 805 731 l 1,121,-1
 878 731 l 2,122,123
 908 731 908 731 929 710 c 0,124,125
 951.006 688 951.006 688 951 658 c 2,87,-1
EndSplineSet
Validated: 524321
EndChar

StartChar: uniF074
Encoding: 111 61556 110
Width: 1024
LayerCount: 5
Fore
SplineSet
381 603 m 1,0,1
 347 551 347 551 302 446 c 1,2,3
 290 472 290 472 282 488 c 0,4,5
 274 503 274 503 258 524 c 0,6,7
 244 544 244 544 228 557 c 0,8,9
 214 568 214 568 193 577 c 1,10,11
 171 585 171 585 146 585 c 2,12,-1
 18 585 l 2,13,14
 10 585 10 585 5 590 c 128,-1,15
 0 595 0 595 0 603 c 2,16,-1
 0 713 l 2,17,18
 0 721 0 721 5 726 c 128,-1,19
 10 731 10 731 18 731 c 2,20,-1
 146 731 l 2,21,22
 290 731.997 290 731.997 381 603 c 1,0,1
1024 146 m 128,-1,24
 1023.95 137.999 1023.95 137.999 1019 133 c 2,25,-1
 836 -50 l 2,26,27
 830.997 -54.9998 830.997 -54.9998 823 -55 c 0,28,29
 816 -55 816 -55 810 -49 c 0,30,31
 804.963 -44 804.963 -44 805 -37 c 2,32,-1
 805 73 l 1,33,-1
 756 73 l 1,34,-1
 710 73 l 1,35,-1
 668 73 l 1,36,37
 641.998 74 641.998 74 628 76 c 0,38,39
 613 78 613 78 591 82 c 128,-1,40
 569 86 569 86 555 92 c 128,-1,41
 540.995 98.0001 540.995 98.0001 521 109 c 0,42,43
 503 118 503 118 488 131 c 128,-1,44
 472.999 144 472.999 144 457 162 c 0,45,46
 440.999 179 440.999 179 425 202 c 1,47,48
 459 255 459 255 503 357 c 1,49,50
 515 331 515 331 523 316 c 128,-1,51
 531 301 531 301 547 280 c 0,52,53
 561 260 561 260 575 248 c 0,54,55
 589 237 589 237 611 227 c 1,56,57
 633.003 218.997 633.003 218.997 658 219 c 2,58,-1
 805 219 l 1,59,-1
 805 329 l 2,60,61
 805 337.004 805 337.004 810 342 c 128,-1,62
 815 347.01 815 347.01 823 347 c 0,63,64
 830.009 347 830.009 347 837 342 c 1,65,-1
 1019 160 l 2,66,23
 1024 153.999 1024 153.999 1024 146 c 128,-1,24
1024 658 m 128,-1,68
 1023.95 649.987 1023.95 649.987 1019 645 c 2,69,-1
 836 462 l 2,70,71
 830.997 457 830.997 457 823 457 c 0,72,73
 816 457 816 457 810 463 c 0,74,75
 804.963 468 804.963 468 805 475 c 2,76,-1
 805 585 l 1,77,-1
 658 585 l 2,78,79
 630 584.973 630 584.973 608 577 c 0,80,81
 585 568.998 585 568.998 569 551 c 1,82,83
 552.002 533.997 552.002 533.997 540 516 c 128,-1,84
 527.996 498 527.996 498 514 471 c 0,85,86
 496 435 496 435 470 374 c 0,87,88
 453.998 336 453.998 336 441 310 c 1,89,90
 430 284 430 284 411 250 c 128,-1,91
 392 216 392 216 374 194 c 1,92,93
 357 171 357 171 332 145 c 0,94,95
 307 120 307 120 281 106 c 0,96,97
 254 92 254 92 219 83 c 0,98,99
 185 73.9998 185 73.9998 146 73 c 2,100,-1
 18 73 l 2,101,102
 10 73.0002 10 73.0002 5 78 c 128,-1,103
 0 83.0005 0 83.0005 0 91 c 2,104,-1
 0 201 l 2,105,106
 0 209 0 209 5 214 c 128,-1,107
 10 219 10 219 18 219 c 2,108,-1
 146 219 l 2,109,110
 174 219 174 219 196 228 c 1,111,112
 219 236 219 236 236 254 c 0,113,114
 253 271.001 253 271.001 264 289 c 0,115,116
 276.001 307.001 276.001 307.001 290 333 c 0,117,118
 308 369.001 308 369.001 335 431 c 0,119,120
 351 469.001 351 469.001 364 495 c 1,121,122
 375 521 375 521 394 554 c 0,123,124
 413 588 413 588 430 611 c 128,-1,125
 447.002 634 447.002 634 473 658 c 1,126,127
 498 682.997 498 682.997 524 698 c 1,128,129
 551.001 712 551.001 712 585 722 c 0,130,131
 619.002 731 619.002 731 658 731 c 2,132,-1
 805 731 l 1,133,-1
 805 841 l 2,134,135
 805 849 805 849 810 854 c 128,-1,136
 815 859 815 859 823 859 c 0,137,138
 830.009 858.989 830.009 858.989 837 854 c 1,139,-1
 1019 672 l 2,140,67
 1024 665.985 1024 665.985 1024 658 c 128,-1,68
EndSplineSet
Validated: 524321
EndChar

StartChar: uniF075
Encoding: 112 61557 111
Width: 1024
LayerCount: 5
Fore
SplineSet
1024 366 m 128,-1,1
 1024 267 1024 267 955 182 c 0,2,3
 886 98 886 98 769 49 c 0,4,5
 651 0 651 0 512 0 c 0,6,7
 471.999 0 471.999 0 429 4 c 1,8,9
 316 -96 316 -96 166 -134 c 0,10,11
 138 -142 138 -142 101 -146 c 0,12,13
 92 -147 92 -147 84 -141 c 128,-1,14
 76 -135 76 -135 74 -125 c 1,15,-1
 74 -124 l 1,16,17
 72 -122.001 72 -122.001 74 -117 c 0,18,19
 75 -113 75 -113 75 -112 c 128,-1,20
 75.0001 -111 75.0001 -111 77 -106 c 1,21,-1
 81 -100 l 1,22,-1
 85 -96 l 1,23,-1
 89 -91 l 2,24,25
 93 -87 93 -87 106 -71 c 0,26,27
 119 -56 119 -56 127 -49 c 0,28,29
 133 -43 133 -43 144 -27 c 128,-1,30
 155 -11 155 -11 163 2 c 0,31,32
 170 15 170 15 178 36 c 0,33,34
 186 56 186 56 194 80 c 1,35,36
 104 131 104 131 52 205 c 0,37,38
 0 280 0 280 0 366 c 0,39,40
 0 441 0 441 41 508 c 0,41,42
 82 576 82 576 150 625 c 0,43,44
 219 674.001 219 674.001 313 702 c 0,45,46
 408 731 408 731 512 731 c 0,47,48
 651.001 731 651.001 731 769 683 c 0,49,50
 887 634 887 634 955 550 c 0,51,0
 1024 465 1024 465 1024 366 c 128,-1,1
EndSplineSet
Validated: 524289
EndChar

StartChar: uniF076
Encoding: 113 61558 112
Width: 877
LayerCount: 5
Fore
SplineSet
878 402 m 2,0,-1
 878 329 l 2,1,2
 878 214 878 214 821 122 c 0,3,4
 765 30 765 30 665 -22 c 128,-1,5
 565 -74 565 -74 439 -73 c 0,6,7
 313 -73 313 -73 213 -22 c 0,8,9
 113 30 113 30 56 122 c 0,10,11
 0 214 0 214 0 329 c 2,12,-1
 0 402 l 2,13,14
 0 417.002 0 417.002 11 428 c 128,-1,15
 22 439.004 22 439.004 37 439 c 2,16,-1
 256 439 l 2,17,18
 271.002 439 271.002 439 282 428 c 128,-1,19
 293.003 417 293.003 417 293 402 c 2,20,-1
 293 329 l 2,21,22
 293 299 293 299 306 278 c 0,23,24
 319 255.999 319 255.999 337 245 c 0,25,26
 354.001 233.999 354.001 233.999 377 228 c 0,27,28
 401 221.999 401 221.999 414 220 c 0,29,30
 427 219 427 219 439 219 c 128,-1,31
 451 219 451 219 464 220 c 128,-1,32
 477 221.002 477 221.002 501 228 c 0,33,34
 525 234 525 234 541 245 c 0,35,36
 558 256 558 256 571 278 c 128,-1,37
 584.007 300 584.007 300 585 329 c 2,38,-1
 585 402 l 2,39,40
 585 417.002 585 417.002 596 428 c 128,-1,41
 607 439.004 607 439.004 622 439 c 2,42,-1
 841 439 l 2,43,44
 856 439 856 439 867 428 c 128,-1,45
 878 417 878 417 878 402 c 2,0,-1
293 768 m 2,46,-1
 293 549 l 2,47,48
 293 533.997 293 533.997 282 523 c 128,-1,49
 271 512 271 512 256 512 c 2,50,-1
 37 512 l 2,51,52
 22 512 22 512 11 523 c 128,-1,53
 0 534 0 534 0 549 c 2,54,-1
 0 768 l 2,55,56
 0 783 0 783 11 794 c 128,-1,57
 22 805 22 805 37 805 c 2,58,-1
 256 805 l 2,59,60
 271.002 804.992 271.002 804.992 282 794 c 128,-1,61
 293.003 782.991 293.003 782.991 293 768 c 2,46,-1
878 768 m 2,62,-1
 878 549 l 2,63,64
 877.967 533.997 877.967 533.997 867 523 c 128,-1,65
 855.994 512 855.994 512 841 512 c 2,66,-1
 622 512 l 2,67,68
 606.994 512 606.994 512 596 523 c 128,-1,69
 584.994 534 584.994 534 585 549 c 2,70,-1
 585 768 l 2,71,72
 585 783 585 783 596 794 c 128,-1,73
 607 805 607 805 622 805 c 2,74,-1
 841 805 l 2,75,76
 856 804.992 856 804.992 867 794 c 128,-1,77
 878 782.991 878 782.991 878 768 c 2,62,-1
EndSplineSet
Validated: 524321
EndChar

StartChar: uniF077
Encoding: 114 61559 113
Width: 950
LayerCount: 5
Fore
SplineSet
921 183 m 128,-1,1
 921 152 921 152 899 131 c 2,2,-1
 856 88 l 2,3,4
 834 66 834 66 805 67 c 1,5,6
 774 67 774 67 753 88 c 2,7,-1
 475 366 l 1,8,-1
 198 88 l 1,9,10
 178 66 178 66 146 67 c 0,11,12
 115 67 115 67 95 88 c 2,13,-1
 52 131 l 1,14,15
 30 151 30 151 31 183 c 0,16,17
 31 214 31 214 52 234 c 2,18,-1
 424 607 l 2,19,20
 446 629 446 629 475 628 c 1,21,22
 505.001 628 505.001 628 527 607 c 2,23,-1
 899 234 l 1,24,0
 921.007 214 921.007 214 921 183 c 128,-1,1
EndSplineSet
Validated: 524321
EndChar

StartChar: uniF078
Encoding: 115 61560 114
Width: 950
LayerCount: 5
Fore
SplineSet
921 475 m 0,0,1
 921 444 921 444 899 424 c 1,2,-1
 527 52 l 2,3,4
 504.999 30 504.999 30 475 31 c 1,5,6
 444 31 444 31 424 52 c 2,7,-1
 52 424 l 1,8,9
 30 444 30 444 31 475 c 0,10,11
 31 506 31 506 52 527 c 2,12,-1
 94 570 l 1,13,14
 117 592.004 117 592.004 146 592 c 0,15,16
 177 592 177 592 198 570 c 2,17,-1
 475 293 l 1,18,-1
 753 570 l 2,19,20
 775.004 592.004 775.004 592.004 805 592 c 128,-1,21
 835 592 835 592 856 570 c 2,22,-1
 899 527 l 2,23,24
 921.007 504.999 921.007 504.999 921 475 c 0,0,1
EndSplineSet
Validated: 524321
EndChar

StartChar: uniF079
Encoding: 116 61561 115
Width: 1096
LayerCount: 5
Fore
SplineSet
731 18 m 0,0,1
 730.991 11 730.991 11 726 5 c 0,2,3
 720.991 0 720.991 0 713 0 c 2,4,-1
 165 0 l 2,5,6
 161 0 161 0 157 1 c 0,7,8
 154 2 154 2 152 5 c 128,-1,9
 149.994 8 149.994 8 148 9 c 1,10,11
 147 11 147 11 146 16 c 128,-1,12
 145 21 145 21 146 23 c 1,13,-1
 146 31 l 1,14,-1
 146 37 l 1,15,-1
 146 128 l 1,16,-1
 146 366 l 1,17,-1
 37 366 l 2,18,19
 22 366.008 22 366.008 11 377 c 128,-1,20
 0 388.001 0 388.001 0 402 c 0,21,22
 0 415 0 415 8 426 c 2,23,-1
 191 645 l 2,24,25
 202 657 202 657 219 657 c 128,-1,26
 236 657 236 657 248 645 c 1,27,-1
 430 426 l 2,28,29
 438 417 438 417 439 402 c 0,30,31
 439 386.998 439 386.998 428 377 c 0,32,33
 417 366 417 366 402 366 c 2,34,-1
 293 366 l 1,35,-1
 293 146 l 1,36,-1
 622 146 l 2,37,38
 631 146 631 146 636 140 c 2,39,-1
 727 31 l 1,40,41
 731.042 24 731.042 24 731 18 c 0,0,1
1097 256 m 0,42,43
 1097 243 1097 243 1089 232 c 2,44,-1
 905 13 l 2,45,46
 894 0 894 0 878 0 c 128,-1,47
 862 0 862 0 850 13 c 2,48,-1
 667 232 l 2,49,50
 659 241 659 241 658 256 c 0,51,52
 658 271.002 658 271.002 669 282 c 128,-1,53
 680 293.003 680 293.003 695 293 c 2,54,-1
 805 293 l 1,55,-1
 805 512 l 1,56,-1
 475 512 l 2,57,58
 466 512 466 512 461 519 c 2,59,-1
 370 629 l 2,60,61
 365.989 634 365.989 634 366 640 c 0,62,63
 366.008 647.018 366.008 647.018 371 653 c 0,64,65
 376.003 658 376.003 658 384 658 c 2,66,-1
 933 658 l 2,67,68
 937.029 658 937.029 658 940 657 c 128,-1,69
 943 656 943 656 945 653 c 128,-1,70
 947 650.004 947 650.004 948 648 c 128,-1,71
 949.016 646 949.016 646 950 642 c 0,72,73
 951.049 637 951.049 637 951 636 c 2,74,-1
 951 628 l 1,75,-1
 951 622 l 1,76,-1
 951 530 l 1,77,-1
 951 293 l 1,78,-1
 1061 293 l 2,79,80
 1076 293 1076 293 1086 282 c 0,81,82
 1097.07 271 1097.07 271 1097 256 c 0,42,43
EndSplineSet
Validated: 524289
EndChar

StartChar: uniF07A
Encoding: 117 61562 116
Width: 950
LayerCount: 5
Fore
SplineSet
366 0 m 128,-1,1
 365.998 -31 365.998 -31 344 -52 c 0,2,3
 322 -74 322 -74 293 -73 c 1,4,5
 262 -73 262 -73 241 -52 c 0,6,7
 219 -30 219 -30 219 0 c 0,8,9
 219.001 31 219.001 31 241 52 c 0,10,11
 263.001 74 263.001 74 293 73 c 1,12,13
 324 73 324 73 344 52 c 1,14,0
 366 31 366 31 366 0 c 128,-1,1
878 0 m 128,-1,16
 878 -31 878 -31 856 -52 c 0,17,18
 834 -74 834 -74 805 -73 c 1,19,20
 774 -73 774 -73 753 -52 c 0,21,22
 731 -30 731 -30 731 0 c 0,23,24
 731.016 31 731.016 31 753 52 c 0,25,26
 775.004 74 775.004 74 805 73 c 1,27,28
 836 73 836 73 856 52 c 1,29,15
 878.008 31 878.008 31 878 0 c 128,-1,16
951 622 m 2,30,-1
 951 329 l 2,31,32
 951 316 951 316 942 305 c 0,33,34
 933.002 295 933.002 295 919 293 c 2,35,-1
 322 223 l 1,36,-1
 325 211 l 1,37,-1
 328 196 l 1,38,-1
 329 183 l 2,39,40
 329 174 329 174 315 146 c 1,41,-1
 841 146 l 2,42,43
 856 145.998 856 145.998 867 135 c 128,-1,44
 878 124 878 124 878 110 c 0,45,46
 877.967 95 877.967 95 867 84 c 128,-1,47
 855.994 73 855.994 73 841 73 c 2,48,-1
 256 73 l 2,49,50
 241 73 241 73 230 84 c 128,-1,51
 218.999 95.0002 218.999 95.0002 219 110 c 0,52,53
 219 118 219 118 225 132 c 128,-1,54
 231 146 231 146 243 166 c 1,55,56
 253.002 185.001 253.002 185.001 254 188 c 1,57,-1
 154 658 l 1,58,-1
 37 658 l 2,59,60
 22 658 22 658 11 669 c 128,-1,61
 0 680 0 680 0 695 c 128,-1,62
 0 710 0 710 11 721 c 128,-1,63
 22 732 22 732 37 731 c 1,64,-1
 183 731 l 2,65,66
 192.001 731 192.001 731 199 728 c 0,67,68
 206 724 206 724 211 719 c 0,69,70
 215.002 713.985 215.002 713.985 218 705 c 128,-1,71
 221 696 221 696 222 690 c 128,-1,72
 223 683.989 223 683.989 225 673 c 2,73,-1
 228 658 l 1,74,-1
 914 658 l 2,75,76
 929 657.985 929 657.985 940 647 c 0,77,78
 951 637 951 637 951 622 c 2,30,-1
EndSplineSet
Validated: 524325
EndChar

StartChar: uniF07B
Encoding: 118 61563 117
Width: 950
LayerCount: 5
Fore
SplineSet
951 530 m 2,0,-1
 951 128 l 2,1,2
 950.986 76 950.986 76 913 38 c 128,-1,3
 875 0 875 0 823 0 c 2,4,-1
 128 0 l 2,5,6
 76 0 76 0 38 38 c 128,-1,7
 0 76 0 76 0 128 c 2,8,-1
 0 677 l 2,9,10
 0 729 0 729 38 767 c 128,-1,11
 76 805 76 805 128 805 c 2,12,-1
 311 805 l 2,13,14
 363 804.987 363 804.987 401 767 c 128,-1,15
 439.003 729 439.003 729 439 677 c 2,16,-1
 439 658 l 1,17,-1
 823 658 l 2,18,19
 875 658 875 658 913 621 c 1,20,21
 951 582 951 582 951 530 c 2,0,-1
EndSplineSet
Validated: 524321
EndChar

StartChar: uniF07C
Encoding: 119 61564 118
Width: 1096
LayerCount: 5
Fore
SplineSet
1074 334 m 128,-1,1
 1074 317 1074 317 1056 296 c 2,2,-1
 864 70 l 2,3,4
 839 41 839 41 796 20 c 1,5,6
 751.997 0 751.997 0 713 0 c 2,7,-1
 91 0 l 2,8,9
 72 0 72 0 57 7 c 128,-1,10
 42 14 42 14 42 32 c 0,11,12
 42 49 42 49 59 70 c 2,13,-1
 252 296 l 2,14,15
 277 325 277 325 321 345 c 128,-1,16
 365 365 365 365 402 366 c 1,17,-1
 1024 366 l 2,18,19
 1043 366 1043 366 1059 358 c 0,20,0
 1074 351 1074 351 1074 334 c 128,-1,1
878 530 m 2,21,-1
 878 439 l 1,22,-1
 402 439 l 2,23,24
 349 439 349 439 290 412 c 1,25,26
 232 384 232 384 196 343 c 2,27,-1
 3 117 l 1,28,-1
 1 114 l 1,29,30
 1 116 1 116 0 121 c 1,31,-1
 0 128 l 1,32,-1
 0 677 l 2,33,34
 0 729 0 729 38 767 c 128,-1,35
 76 805 76 805 128 805 c 2,36,-1
 311 805 l 2,37,38
 363 804.987 363 804.987 401 767 c 128,-1,39
 439.003 729 439.003 729 439 677 c 2,40,-1
 439 658 l 1,41,-1
 750 658 l 2,42,43
 802 658 802 658 840 621 c 1,44,45
 878 582 878 582 878 530 c 2,21,-1
EndSplineSet
Validated: 524321
EndChar

StartChar: uniF07D
Encoding: 120 61565 119
Width: 438
LayerCount: 5
Fore
SplineSet
402 695 m 128,-1,1
 402 680.001 402 680.001 391 669 c 128,-1,2
 380 657.985 380 657.985 366 658 c 2,3,-1
 293 658 l 1,4,-1
 293 73 l 1,5,-1
 366 73 l 2,6,7
 381 73 381 73 391 62 c 0,8,9
 402.008 51 402.008 51 402 37 c 0,10,11
 402 22 402 22 391 11 c 2,12,-1
 245 -135 l 2,13,14
 234 -145.998 234 -145.998 219 -146 c 128,-1,15
 204 -146 204 -146 194 -135 c 2,16,-1
 47 11 l 2,17,18
 35.9999 22 35.9999 22 37 37 c 0,19,20
 37 52 37 52 47 62 c 0,21,22
 58 73.0003 58 73.0003 73 73 c 2,23,-1
 146 73 l 1,24,-1
 146 658 l 1,25,-1
 73 658 l 2,26,27
 58 658 58 658 47 669 c 128,-1,28
 35.9999 680 35.9999 680 37 695 c 0,29,30
 37 710 37 710 47 721 c 2,31,-1
 194 867 l 2,32,33
 205 878 205 878 219 878 c 0,34,35
 234 877.967 234 877.967 245 867 c 2,36,-1
 391 721 l 2,37,0
 402.008 710 402.008 710 402 695 c 128,-1,1
EndSplineSet
Validated: 524289
EndChar

StartChar: uniF07E
Encoding: 121 61566 120
Width: 1024
LayerCount: 5
Fore
SplineSet
1024 366 m 128,-1,1
 1023.96 351 1023.96 351 1013 340 c 2,2,-1
 867 194 l 2,3,4
 855.994 182.999 855.994 182.999 841 183 c 128,-1,5
 825.992 183 825.992 183 815 194 c 128,-1,6
 803.978 205 803.978 205 805 219 c 1,7,-1
 805 293 l 1,8,-1
 219 293 l 1,9,-1
 219 219 l 2,10,11
 219 204 219 204 209 194 c 0,12,13
 198 182.999 198 182.999 183 183 c 128,-1,14
 168 183 168 183 157 194 c 2,15,-1
 11 340 l 2,16,17
 0 351.003 0 351.003 0 366 c 128,-1,18
 0 381 0 381 11 391 c 2,19,-1
 157 538 l 2,20,21
 168 549 168 549 183 549 c 128,-1,22
 198 548.995 198 548.995 209 538 c 128,-1,23
 220 526.994 220 526.994 219 512 c 1,24,-1
 219 439 l 1,25,-1
 805 439 l 1,26,-1
 805 512 l 2,27,28
 805.016 527 805.016 527 815 538 c 0,29,30
 826 549 826 549 841 549 c 128,-1,31
 856 548.995 856 548.995 867 538 c 2,32,-1
 1013 391 l 2,33,0
 1024 380.997 1024 380.997 1024 366 c 128,-1,1
EndSplineSet
Validated: 524289
EndChar

StartChar: uniF080
Encoding: 122 61568 121
Width: 1096
LayerCount: 5
Fore
SplineSet
293 293 m 1,0,-1
 293 73 l 1,1,-1
 146 73 l 1,2,-1
 146 293 l 1,3,-1
 293 293 l 1,0,-1
512 585 m 1,4,-1
 512 73 l 1,5,-1
 366 73 l 1,6,-1
 366 585 l 1,7,-1
 512 585 l 1,4,-1
731 439 m 1,8,-1
 731 73 l 1,9,-1
 585 73 l 1,10,-1
 585 439 l 1,11,-1
 731 439 l 1,8,-1
951 658 m 1,12,-1
 951 73 l 1,13,-1
 805 73 l 1,14,-1
 805 658 l 1,15,-1
 951 658 l 1,12,-1
1024 18 m 2,16,-1
 1024 713 l 2,17,18
 1023.95 720.022 1023.95 720.022 1019 726 c 0,19,20
 1013.97 731 1013.97 731 1006 731 c 2,21,-1
 91 731 l 2,22,23
 84 730.991 84 730.991 79 726 c 128,-1,24
 74 720.991 74 720.991 73 713 c 1,25,-1
 73 18 l 2,26,27
 73 11 73 11 79 5 c 0,28,29
 84 0 84 0 91 0 c 2,30,-1
 1006 0 l 2,31,32
 1013.01 0 1013.01 0 1019 5 c 1,33,34
 1024 11 1024 11 1024 18 c 2,16,-1
1097 713 m 2,35,-1
 1097 18 l 2,36,37
 1097 -20 1097 -20 1070 -46 c 0,38,39
 1043 -73 1043 -73 1006 -73 c 2,40,-1
 91 -73 l 2,41,42
 53 -73 53 -73 27 -46 c 0,43,44
 0 -19 0 -19 0 18 c 2,45,-1
 0 713 l 2,46,47
 0 751 0 751 27 777 c 0,48,49
 54 804.009 54 804.009 91 805 c 2,50,-1
 1006 805 l 2,51,52
 1044.02 805 1044.02 805 1070 777 c 1,53,54
 1097 750.991 1097 750.991 1097 713 c 2,35,-1
EndSplineSet
Validated: 524289
EndChar

StartChar: uniF081
Encoding: 123 61569 122
Width: 877
LayerCount: 5
Fore
SplineSet
731 548 m 0,0,1
 730.991 555 730.991 555 726 560 c 128,-1,2
 720.991 565 720.991 565 713 565 c 0,3,4
 709.992 565.005 709.992 565.005 705 563 c 1,5,6
 716 582.004 716 582.004 716 595 c 0,7,8
 715.959 602 715.959 602 711 607 c 128,-1,9
 705.983 612 705.983 612 697 613 c 0,10,11
 693 613 693 613 688 610 c 0,12,13
 654 591 654 591 633 586 c 1,14,15
 596 622 596 622 545 622 c 0,16,17
 489 622.002 489 622.002 451 581 c 128,-1,18
 413 540 413 540 414 483 c 1,19,-1
 414 476 l 1,20,21
 353 484.001 353 484.001 306 513 c 0,22,23
 260 542 260 542 217 593 c 0,24,25
 211 600 211 600 201 599 c 0,26,27
 186 598.994 186 598.994 178 570 c 128,-1,28
 170 540.997 170 540.997 169 521 c 1,29,30
 169 485 169 485 185 455 c 1,31,32
 178 453.994 178 453.994 173 447 c 1,33,34
 167.999 442 167.999 442 169 435 c 1,35,36
 169 372 169 372 215 329 c 1,37,38
 208 325 208 325 208 314 c 0,39,40
 208 311 208 311 209 309 c 0,41,42
 217 280 217 280 238 257 c 1,43,44
 258 233 258 233 286 223 c 1,45,46
 242 198 242 198 191 199 c 1,47,-1
 178 199 l 1,48,49
 169 200.009 169 200.009 165 200 c 0,50,51
 158 199.998 158 199.998 152 195 c 0,52,53
 147 189.999 147 189.999 146 181 c 0,54,55
 146 172 146 172 155 167 c 1,56,57
 191 140 191 140 240 125 c 0,58,59
 290 110 290 110 337 110 c 0,60,61
 412 110 412 110 479 143 c 1,62,63
 574 188 574 188 625 275 c 0,64,65
 676 363 676 363 676 470 c 2,66,-1
 676 476 l 1,67,68
 691 488 691 488 711 513 c 0,69,70
 731 537 731 537 731 548 c 0,0,1
878 640 m 2,71,-1
 878 91 l 2,72,73
 878 23 878 23 829 -25 c 0,74,75
 780.998 -73 780.998 -73 713 -73 c 2,76,-1
 165 -73 l 2,77,78
 97 -73 97 -73 48 -25 c 0,79,80
 0 23 0 23 0 91 c 2,81,-1
 0 640 l 2,82,83
 0 708 0 708 48 757 c 0,84,85
 96 805 96 805 165 805 c 2,86,-1
 713 805 l 2,87,88
 781 805 781 805 829 757 c 0,89,90
 878.003 708 878.003 708 878 640 c 2,71,-1
EndSplineSet
Validated: 524321
EndChar

StartChar: uniF082
Encoding: 124 61570 123
Width: 877
LayerCount: 5
Fore
SplineSet
713 805 m 2,0,1
 781 805 781 805 829 757 c 128,-1,2
 877.003 709 877.003 709 878 640 c 2,3,-1
 878 91 l 2,4,5
 878 23 878 23 829 -25 c 0,6,7
 780.998 -73 780.998 -73 713 -73 c 2,8,-1
 513 -73 l 1,9,-1
 512 -73 l 1,10,-1
 512 311 l 1,11,-1
 613 311 l 2,12,13
 630 311 630 311 632 324 c 1,14,-1
 638 418 l 2,15,16
 638.956 426.003 638.956 426.003 634 432 c 0,17,18
 628.004 439 628.004 439 620 439 c 2,19,-1
 512 439 l 1,20,-1
 512 480 l 2,21,22
 512 506 512 506 518 513 c 128,-1,23
 524 520.015 524 520.015 550 520 c 0,24,25
 583 520 583 520 616 513 c 0,26,27
 623.014 511.048 623.014 511.048 632 515 c 1,28,29
 638.005 519.012 638.005 519.012 639 528 c 2,30,-1
 652 623 l 2,31,32
 653 630.011 653 630.011 649 636 c 128,-1,33
 645 642 645 642 638 643 c 0,34,35
 584.999 658 584.999 658 525 658 c 0,36,37
 347 658 347 658 347 487 c 2,38,-1
 347 439 l 1,39,-1
 293 439 l 2,40,41
 285.998 439 285.998 439 280 433 c 128,-1,42
 274 427 274 427 274 419 c 2,43,-1
 274 321 l 2,44,45
 274 316.995 274 316.995 278 313 c 0,46,47
 281 311 281 311 284 311 c 2,48,-1
 293 311 l 1,49,-1
 347 311 l 1,50,-1
 347 -73 l 1,51,-1
 353 -73 l 1,52,-1
 165 -73 l 2,53,54
 97 -73 97 -73 48 -25 c 0,55,56
 0 23 0 23 0 91 c 2,57,-1
 0 640 l 2,58,59
 0 708 0 708 48 757 c 0,60,61
 96 805 96 805 165 805 c 2,62,-1
 713 805 l 2,0,1
EndSplineSet
Validated: 524325
EndChar

StartChar: uniF083
Encoding: 125 61571 124
Width: 1024
LayerCount: 5
Fore
SplineSet
530 402 m 128,-1,1
 530.002 410.001 530.002 410.001 525 416 c 0,2,3
 519.988 421.01 519.988 421.01 512 421 c 0,4,5
 474 420.998 474 420.998 447 393 c 0,6,7
 420 365.999 420 365.999 421 329 c 0,8,9
 421.005 321 421.005 321 426 316 c 128,-1,10
 431.005 311 431.005 311 439 311 c 128,-1,11
 447.01 311.013 447.01 311.013 452 316 c 128,-1,12
 457.018 321.001 457.018 321.001 457 329 c 0,13,14
 457 352 457 352 473 368 c 128,-1,15
 489 384 489 384 512 384 c 0,16,17
 520 384.009 520 384.009 525 389 c 128,-1,0
 530 394.005 530 394.005 530 402 c 128,-1,1
658 328 m 128,-1,19
 658 268 658 268 615 224 c 0,20,21
 572 181 572 181 512 181 c 128,-1,22
 451.999 181 451.999 181 409 224 c 128,-1,23
 365.999 267 365.999 267 366 328 c 0,24,25
 366 388 366 388 409 431 c 128,-1,26
 452 474 452 474 512 474 c 128,-1,27
 572.002 474 572.002 474 615 431 c 128,-1,18
 657.999 387.999 657.999 387.999 658 328 c 128,-1,19
73 0 m 1,28,-1
 951 0 l 1,29,-1
 951 73 l 1,30,-1
 73 73 l 1,31,-1
 73 0 l 1,28,-1
731 328 m 128,-1,33
 731 419 731 419 668 483 c 0,34,35
 603 548 603 548 512 548 c 128,-1,36
 421 547.999 421 547.999 356 483 c 128,-1,37
 291 418 291 418 293 328 c 1,38,39
 293 237 293 237 356 173 c 0,40,41
 421 108 421 108 512 109 c 0,42,43
 603 109 603 109 668 173 c 1,44,32
 731 237 731 237 731 328 c 128,-1,33
146 695 m 1,45,-1
 366 695 l 1,46,-1
 366 768 l 1,47,-1
 146 768 l 1,48,-1
 146 695 l 1,45,-1
73 585 m 1,49,-1
 951 585 l 1,50,-1
 951 652 l 1,51,-1
 951 731 l 1,52,-1
 478 731 l 1,53,-1
 441 658 l 1,54,-1
 73 658 l 1,55,-1
 73 585 l 1,49,-1
1024 731 m 2,56,-1
 1024 0 l 2,57,58
 1024 -31 1024 -31 1002 -52 c 0,59,60
 980 -74 980 -74 951 -73 c 1,61,-1
 73 -73 l 2,62,63
 42 -73 42 -73 22 -52 c 0,64,65
 0 -30 0 -30 0 0 c 2,66,-1
 0 731 l 2,67,68
 0 762.004 0 762.004 22 783 c 0,69,70
 44 805.006 44 805.006 73 805 c 2,71,-1
 951 805 l 2,72,73
 982 805 982 805 1002 783 c 1,74,75
 1024.01 762 1024.01 762 1024 731 c 2,56,-1
EndSplineSet
Validated: 524321
EndChar

StartChar: uniF084
Encoding: 126 61572 125
Width: 1024
LayerCount: 5
Fore
SplineSet
475 585 m 128,-1,1
 475 631 475 631 443 663 c 128,-1,2
 411 695 411 695 366 695 c 0,3,4
 320 694.989 320 694.989 288 663 c 128,-1,5
 256 631 256 631 256 585 c 0,6,7
 256 560.998 256 560.998 267 538 c 1,8,9
 243 549 243 549 219 549 c 0,10,11
 173 549 173 549 141 516 c 0,12,13
 109 484 109 484 110 439 c 1,14,15
 110 393 110 393 141 361 c 0,16,17
 173 329 173 329 219 329 c 128,-1,18
 265 329.001 265 329.001 297 361 c 128,-1,19
 329.001 393 329.001 393 329 439 c 0,20,21
 329 463.001 329 463.001 318 486 c 1,22,23
 342 475 342 475 366 475 c 0,24,25
 412 475 412 475 443 508 c 1,26,0
 475.001 539.002 475.001 539.002 475 585 c 128,-1,1
962 183 m 0,27,28
 962 174 962 174 934 145 c 0,29,30
 906 117 906 117 896 117 c 0,31,32
 890.985 117 890.985 117 880 126 c 128,-1,33
 869 135 869 135 859 145 c 0,34,35
 850 154 850 154 837 168 c 0,36,37
 825.001 181 825.001 181 823 183 c 1,38,-1
 768 128 l 1,39,-1
 894 2 l 2,40,41
 910 -14 910 -14 909 -37 c 1,42,43
 909 -61 909 -61 888 -83 c 0,44,45
 864.993 -106 864.993 -106 841 -105 c 0,46,47
 818 -105 818 -105 802 -89 c 2,48,-1
 419 294 l 1,49,50
 319 219 319 219 210 219 c 0,51,52
 117 219 117 219 58 278 c 0,53,54
 0 336 0 336 0 430 c 0,55,56
 0 521 0 521 54 608 c 128,-1,57
 108 695 108 695 196 751 c 1,58,59
 283 805 283 805 375 805 c 0,60,61
 468 804.998 468 804.998 526 746 c 0,62,63
 584.004 688 584.004 688 585 594 c 0,64,65
 585 485.999 585 485.999 510 386 c 1,66,-1
 713 183 l 1,67,-1
 768 238 l 1,68,69
 766 240 766 240 753 252 c 128,-1,70
 740 264 740 264 730 273 c 0,71,72
 721 282 721 282 712 295 c 1,73,74
 703 306.006 703 306.006 702 311 c 1,75,76
 702.007 320 702.007 320 730 348 c 128,-1,77
 758.003 376 758.003 376 768 377 c 0,78,79
 775.022 377 775.022 377 781 371 c 0,80,81
 784 368 784 368 808 345 c 0,82,83
 831 323 831 323 854 300 c 0,84,85
 878 276 878 276 904 251 c 0,86,87
 930 225 930 225 945 206 c 1,88,89
 962 187 962 187 962 183 c 0,27,28
EndSplineSet
Validated: 524321
EndChar

